{"glyphs":{"0":{"ha":750,"x_min":57,"x_max":667,"o":"m 667 433 q 633 213 667 313 q 531 52 599 113 q 361 -8 463 -8 q 192 52 259 -8 q 91 213 124 113 q 57 433 57 313 q 91 655 57 553 q 192 820 124 758 q 361 882 259 882 q 531 820 463 882 q 633 655 599 758 q 667 433 667 553 m 526 433 q 518 570 526 503 q 493 690 511 637 q 443 775 475 743 q 361 806 411 806 q 279 775 311 806 q 229 690 247 743 q 204 570 212 637 q 197 433 197 503 q 204 297 197 362 q 229 179 212 231 q 279 97 247 127 q 361 67 311 67 q 443 97 411 67 q 493 179 475 127 q 518 297 511 231 q 526 433 526 362 z "},"1":{"ha":750,"x_min":144,"x_max":657,"o":"m 657 0 l 188 0 l 188 64 l 326 70 q 348 79 339 71 q 357 100 357 88 l 357 736 l 144 699 l 144 763 l 444 856 l 498 856 l 498 100 q 507 79 498 88 q 529 70 516 71 l 657 64 l 657 0 z "},"2":{"ha":750,"x_min":74,"x_max":675,"o":"m 675 0 l 74 0 l 74 93 l 138 145 q 331 311 245 232 q 465 465 416 389 q 515 618 515 541 q 490 718 515 676 q 427 783 466 760 q 345 805 388 805 q 271 791 302 805 q 231 772 239 777 l 231 636 q 208 622 224 629 q 169 614 191 614 q 115 633 139 614 q 92 690 92 652 q 131 788 92 745 q 235 856 170 831 q 374 882 299 882 q 582 812 505 882 q 660 631 660 743 q 602 463 660 547 q 444 290 543 378 q 223 108 345 202 l 587 108 l 609 218 l 675 218 l 675 0 z "},"3":{"ha":750,"x_min":77,"x_max":673,"o":"m 673 252 q 627 117 673 176 q 504 25 581 58 q 337 -8 428 -8 q 195 16 253 -8 q 107 75 137 41 q 77 140 77 110 q 96 187 77 166 q 151 208 114 208 q 173 206 159 208 q 195 199 186 205 l 230 100 q 283 76 254 85 q 341 67 311 67 q 480 122 429 67 q 530 252 530 176 q 502 342 530 309 q 432 390 474 376 q 349 404 391 404 q 304 401 325 404 q 273 398 283 399 q 273 444 273 418 q 273 490 273 471 q 285 489 274 489 q 304 488 296 488 q 442 529 384 488 q 500 648 500 570 q 453 764 500 722 q 341 806 406 806 q 274 794 304 806 q 228 770 243 782 l 228 652 q 208 642 223 649 q 172 635 193 635 q 124 650 149 635 q 99 706 99 665 q 137 794 99 754 q 238 858 175 833 q 376 882 301 882 q 509 855 450 882 q 604 780 568 829 q 639 665 639 731 q 590 538 639 594 q 447 456 541 481 q 552 431 500 453 q 639 365 604 409 q 673 252 673 321 z "},"4":{"ha":750,"x_min":71,"x_max":678,"o":"m 678 250 l 583 250 l 583 -8 l 449 -8 l 449 250 l 71 250 l 71 361 l 464 856 l 583 856 l 583 353 l 678 353 l 678 250 m 449 353 l 449 726 l 479 720 l 159 317 l 140 353 l 449 353 z "},"5":{"ha":750,"x_min":80,"x_max":669,"o":"m 669 283 q 629 132 669 198 q 510 29 589 66 q 317 -8 432 -8 q 198 15 252 -8 q 112 73 144 39 q 80 140 80 107 q 102 192 80 174 q 159 210 125 210 q 182 208 169 210 q 199 204 195 205 l 236 103 q 283 78 252 89 q 336 67 315 67 q 446 95 402 67 q 513 166 490 123 q 535 253 535 209 q 477 409 535 358 q 329 459 420 459 q 261 452 299 459 q 188 436 224 446 q 127 417 152 427 l 127 857 l 612 857 l 612 748 l 222 748 l 222 517 q 288 534 239 524 q 387 545 336 545 q 593 475 517 545 q 669 283 669 404 z "},"6":{"ha":750,"x_min":72,"x_max":677,"o":"m 677 306 q 636 140 677 211 q 526 31 595 70 q 372 -8 457 -8 q 220 30 288 -8 q 112 153 152 68 q 72 379 72 238 q 131 642 72 529 q 302 818 190 755 q 573 882 414 882 l 573 802 l 522 802 q 382 765 447 802 q 272 659 317 728 q 214 496 227 591 q 416 568 314 568 q 554 534 496 568 q 645 440 613 499 q 677 306 677 380 m 543 290 q 499 433 543 382 q 372 484 456 484 q 290 466 332 484 q 210 420 247 449 q 209 385 209 401 q 208 354 208 368 q 248 145 208 226 q 372 64 288 64 q 470 95 433 64 q 525 176 508 125 q 543 290 543 227 z "},"7":{"ha":750,"x_min":70,"x_max":680,"o":"m 680 787 l 267 34 l 267 -8 l 126 -8 l 557 777 l 572 748 l 157 748 l 137 635 l 70 635 l 70 857 l 680 857 l 680 787 z "},"8":{"ha":750,"x_min":73,"x_max":677,"o":"m 677 241 q 637 113 677 169 q 530 24 598 56 q 374 -8 461 -8 q 214 24 282 -8 q 110 111 146 56 q 73 238 73 167 q 97 337 73 295 q 160 409 122 379 q 236 458 197 438 q 179 496 209 471 q 127 558 149 521 q 106 646 106 596 q 180 818 106 754 q 374 882 254 882 q 512 853 451 882 q 608 776 572 825 q 643 666 643 727 q 619 571 643 613 q 563 500 595 530 q 505 454 530 471 q 578 414 538 440 q 648 346 618 388 q 677 241 677 304 m 521 654 q 479 769 521 727 q 374 811 437 811 q 274 769 311 811 q 237 675 237 726 q 289 564 237 609 q 436 483 340 519 q 498 554 475 511 q 521 654 521 597 m 543 220 q 517 303 543 270 q 438 364 491 336 q 302 424 385 392 q 225 357 255 398 q 196 248 196 315 q 240 119 196 172 q 374 66 283 66 q 466 89 429 66 q 524 146 504 111 q 543 220 543 182 z "},"9":{"ha":750,"x_min":72,"x_max":677,"o":"m 72 568 q 113 730 72 659 q 223 841 154 801 q 377 882 292 882 q 530 842 462 882 q 637 718 597 803 q 677 494 677 632 q 618 231 677 345 q 447 55 559 118 q 175 -8 334 -8 l 175 72 l 228 72 q 368 109 302 72 q 477 215 433 146 q 535 378 522 283 q 333 305 435 305 q 195 340 254 305 q 104 434 136 374 q 72 568 72 493 m 207 584 q 250 441 207 492 q 377 390 294 390 q 460 407 417 390 q 539 453 503 425 q 541 489 541 473 q 541 519 541 505 q 524 667 541 602 q 470 771 507 732 q 377 809 434 809 q 279 778 317 809 q 224 694 241 746 q 207 584 207 643 z "}," ":{"ha":625,"x_min":0,"x_max":0,"o":""},"!":{"ha":750,"x_min":228,"x_max":440,"o":"m 425 750 q 422 689 425 719 q 413 623 418 659 l 366 278 l 300 278 l 256 596 q 244 679 250 644 q 239 751 239 714 q 263 869 239 832 q 334 907 288 907 q 402 873 378 907 q 425 750 425 839 m 440 107 q 410 31 440 62 q 335 0 379 0 q 259 31 290 0 q 228 107 228 62 q 259 182 228 151 q 335 212 290 212 q 410 182 379 212 q 440 107 440 151 z "},"\"":{"ha":631,"x_min":115,"x_max":515,"o":"m 515 856 q 512 809 515 841 q 500 725 509 777 l 461 519 l 427 519 l 389 725 q 372 846 372 814 q 391 910 372 890 q 444 930 410 930 q 497 908 478 930 q 515 856 515 886 m 257 854 q 237 726 257 828 l 199 519 l 170 519 l 131 728 q 119 800 122 770 q 115 846 115 829 q 135 912 115 894 q 184 930 155 930 q 237 909 216 930 q 257 854 257 888 z "},"#":{"ha":1032,"x_min":86,"x_max":947,"o":"m 947 585 l 728 585 l 663 386 l 886 386 l 886 317 l 637 317 l 521 -32 l 452 -9 l 559 317 l 358 317 l 240 -32 l 172 -8 l 283 317 l 86 317 l 86 386 l 306 386 l 374 585 l 149 585 l 149 656 l 397 656 l 509 983 l 579 961 l 472 656 l 675 656 l 785 983 l 859 961 l 753 656 l 947 656 l 947 585 m 652 585 l 450 585 l 382 386 l 583 386 l 652 585 z "},"$":{"ha":750,"x_min":60,"x_max":669,"o":"m 669 240 q 615 104 669 168 q 467 14 560 40 l 467 -71 l 392 -71 l 392 1 q 375 0 383 1 q 357 0 366 0 l 338 0 l 338 -71 l 262 -71 l 262 12 q 118 103 175 37 q 61 272 61 170 l 189 272 q 208 191 189 229 q 262 127 227 152 l 262 432 q 117 511 174 460 q 60 654 60 562 q 116 796 60 741 q 262 871 173 851 l 262 953 l 338 953 l 338 880 q 365 880 351 880 q 392 879 379 880 l 392 953 l 467 953 l 467 868 q 600 794 546 847 q 663 656 653 741 l 549 656 q 467 766 536 729 l 467 479 q 617 386 565 446 q 669 240 669 326 m 392 100 l 392 396 l 338 412 l 338 100 q 365 98 347 98 q 392 100 382 99 m 392 501 q 392 620 392 562 q 390 723 391 677 q 387 790 389 768 q 387 790 387 790 q 386 790 387 790 q 362 792 374 791 q 338 793 350 793 l 338 519 q 363 510 350 515 q 392 501 377 506 m 262 550 l 262 775 q 209 727 226 758 q 192 659 192 696 q 207 598 192 624 q 262 550 221 573 m 532 249 q 517 309 532 281 q 467 359 503 336 l 467 126 q 516 181 501 148 q 532 249 532 214 z "},"%":{"ha":1096,"x_min":60,"x_max":1036,"o":"m 1036 222 q 975 52 1036 108 q 825 -4 913 -4 q 677 52 739 -4 q 615 222 615 108 q 677 393 615 337 q 825 449 739 449 q 975 393 913 449 q 1036 222 1036 337 m 873 869 l 371 -17 l 233 -17 l 736 869 l 873 869 m 481 631 q 419 460 481 516 q 269 404 357 404 q 121 460 183 404 q 60 631 60 516 q 121 801 60 745 q 269 857 183 857 q 419 801 357 857 q 481 631 481 745 m 921 222 q 901 321 921 284 q 825 358 882 358 q 750 321 771 358 q 729 222 729 284 q 748 125 729 162 q 825 87 768 87 q 901 125 882 87 q 921 222 921 162 m 366 631 q 346 729 366 692 q 269 766 326 766 q 195 729 216 766 q 174 631 174 692 q 193 533 174 570 q 269 496 212 496 q 346 533 326 496 q 366 631 366 570 z "},"&":{"ha":971,"x_min":54,"x_max":943,"o":"m 943 0 l 688 0 l 688 33 l 625 103 q 549 47 589 75 q 458 1 508 20 q 343 -17 408 -17 q 198 19 264 -17 q 93 117 132 55 q 54 258 54 179 q 106 409 54 350 q 240 503 158 469 l 234 509 q 191 555 217 526 q 144 626 164 585 q 123 715 123 667 q 158 838 123 785 q 253 920 193 890 q 387 950 313 950 q 513 923 458 950 q 600 848 568 896 q 632 741 632 801 q 602 627 632 673 q 526 551 572 581 q 428 497 479 520 l 661 245 q 693 293 675 263 q 725 355 711 323 q 739 410 739 387 q 732 425 739 416 q 715 435 724 434 l 640 446 l 640 504 l 925 504 l 925 446 l 825 431 q 771 299 806 360 q 707 196 737 238 l 819 66 l 943 60 l 943 0 m 504 732 q 472 837 504 791 q 374 882 440 882 q 283 844 317 882 q 249 751 249 806 q 268 673 249 709 q 313 609 286 638 q 365 557 340 581 l 378 545 q 471 618 438 574 q 504 732 504 662 m 581 151 l 294 463 q 224 393 253 433 q 195 290 195 353 q 221 179 195 228 q 294 102 248 130 q 396 74 340 74 q 503 98 460 74 q 581 151 545 121 z "},"'":{"ha":261,"x_min":60,"x_max":201,"o":"m 201 856 q 182 726 201 833 l 144 519 l 113 519 l 75 728 q 63 801 66 772 q 60 846 60 831 q 126 930 60 930 q 184 906 166 930 q 201 856 201 881 z "},"(":{"ha":461,"x_min":83,"x_max":378,"o":"m 378 -5 q 351 -28 378 -28 q 297 0 330 -28 q 228 75 264 27 q 158 185 191 123 q 104 319 125 248 q 83 464 83 391 q 103 608 83 537 q 156 742 123 680 q 225 852 188 804 q 297 927 262 900 q 355 954 332 954 q 371 949 364 954 q 378 930 378 944 q 363 898 378 915 q 326 852 348 881 q 282 776 304 824 q 245 651 260 728 q 231 461 231 575 q 245 272 231 347 q 282 150 260 197 q 326 76 304 103 q 363 30 348 48 q 378 -5 378 12 z "},")":{"ha":461,"x_min":83,"x_max":378,"o":"m 378 463 q 358 318 378 389 q 306 184 338 247 q 236 74 273 122 q 164 -1 199 26 q 106 -28 130 -28 q 90 -23 97 -28 q 83 -4 83 -18 q 98 28 83 12 q 135 74 113 45 q 179 151 157 102 q 216 275 201 199 q 231 465 231 351 q 216 654 231 579 q 179 777 201 730 q 135 851 157 823 q 98 896 113 878 q 83 932 83 914 q 110 954 83 954 q 164 927 131 954 q 234 851 197 899 q 303 741 271 804 q 357 607 336 678 q 378 463 378 536 z "},"*":{"ha":676,"x_min":69,"x_max":582,"o":"m 503 850 q 557 827 532 850 q 582 774 582 804 q 556 713 582 735 q 494 691 531 691 q 437 698 465 691 q 398 705 410 705 q 396 704 397 705 q 395 704 395 704 q 378 690 378 699 q 385 675 378 684 q 411 661 389 669 q 461 640 434 653 q 503 606 488 627 q 517 564 517 587 q 495 506 517 529 q 439 482 474 482 q 406 489 422 482 q 376 514 389 496 q 356 563 362 534 q 348 614 350 591 q 342 643 345 637 q 327 654 335 654 q 311 643 319 654 q 307 614 308 638 q 302 560 307 589 q 281 509 297 530 q 253 486 269 492 q 220 479 236 479 q 172 492 189 479 q 151 517 161 499 q 140 558 140 536 q 155 603 140 583 q 196 637 170 623 q 243 660 221 650 q 268 675 264 669 q 274 690 274 683 q 257 704 274 699 q 218 695 248 704 q 155 686 187 686 q 93 707 117 686 q 69 768 69 729 q 72 789 69 781 q 97 824 77 804 q 146 843 117 843 q 171 839 159 843 q 217 811 195 831 q 254 774 238 791 q 275 754 269 756 q 284 753 279 753 q 300 772 300 753 q 286 799 300 779 q 258 845 272 819 q 244 899 244 872 q 259 942 244 925 q 292 968 273 960 q 323 977 311 977 q 355 968 336 977 q 387 943 373 960 q 401 897 401 925 q 389 846 401 872 q 365 800 377 820 q 353 772 353 779 q 367 752 353 752 q 378 754 372 752 q 398 775 383 756 q 434 816 413 795 q 481 846 456 838 q 503 850 492 850 z "},"+":{"ha":815,"x_min":85,"x_max":733,"o":"m 733 325 l 479 325 l 479 75 l 334 75 l 334 325 l 85 325 l 85 472 l 334 472 l 334 721 l 479 721 l 479 472 l 733 472 l 733 325 z "},",":{"ha":472,"x_min":102,"x_max":332,"o":"m 332 61 q 308 -59 332 -5 q 249 -152 284 -113 q 179 -211 214 -191 q 122 -232 144 -232 q 102 -215 102 -232 q 131 -180 102 -210 q 193 -98 173 -140 q 212 0 212 -56 q 140 25 170 0 q 111 100 111 50 q 139 181 111 150 q 216 212 168 212 q 299 182 266 212 q 332 61 332 152 z "},"-":{"ha":510,"x_min":83,"x_max":425,"o":"m 425 268 l 83 268 l 83 370 l 425 370 l 425 268 z "},".":{"ha":443,"x_min":82,"x_max":296,"o":"m 296 107 q 265 31 296 62 q 189 0 234 0 q 113 31 144 0 q 82 107 82 62 q 113 183 82 152 q 189 214 144 214 q 265 183 234 214 q 296 107 296 152 z "},"/":{"ha":566,"x_min":0,"x_max":564,"o":"m 564 972 l 151 -8 l 0 -7 l 414 972 l 564 972 z "},":":{"ha":389,"x_min":85,"x_max":272,"o":"m 272 593 q 244 527 272 555 q 178 500 216 500 q 112 527 139 500 q 85 593 85 555 q 112 659 85 631 q 178 686 139 686 q 244 659 216 686 q 272 593 272 631 m 272 77 q 244 11 272 38 q 178 -17 216 -17 q 112 11 139 -17 q 85 77 85 38 q 112 142 85 115 q 178 170 139 170 q 244 142 216 170 q 272 77 272 115 z "},";":{"ha":389,"x_min":45,"x_max":286,"o":"m 271 593 q 243 527 271 555 q 178 500 216 500 q 112 527 139 500 q 85 593 85 555 q 113 659 85 631 q 179 686 140 686 q 244 659 218 686 q 271 593 271 631 m 286 14 q 252 -110 286 -56 q 163 -197 218 -164 q 45 -236 108 -231 l 45 -186 q 157 -129 117 -170 q 197 5 197 -87 l 197 9 l 110 9 q 96 29 107 13 q 85 74 85 45 q 109 140 85 110 q 171 170 134 170 q 258 125 231 170 q 286 14 286 81 z "},"<":{"ha":1157,"x_min":179,"x_max":978,"o":"m 978 52 l 179 378 l 179 449 l 978 777 l 978 690 l 300 414 l 978 139 l 978 52 z "},"=":{"ha":823,"x_min":102,"x_max":721,"o":"m 721 473 l 102 473 l 102 619 l 721 619 l 721 473 m 721 178 l 102 178 l 102 323 l 721 323 l 721 178 z "},">":{"ha":1157,"x_min":179,"x_max":978,"o":"m 978 378 l 179 52 l 179 139 l 857 414 l 179 690 l 179 777 l 978 449 l 978 378 z "},"?":{"ha":814,"x_min":119,"x_max":564,"o":"m 564 694 q 545 601 564 643 q 497 524 526 559 q 441 454 469 488 q 394 387 413 421 q 375 313 375 352 q 378 292 375 305 q 380 278 380 278 l 296 279 q 276 332 283 304 q 268 400 268 359 q 284 480 268 441 q 323 555 301 519 q 361 622 345 591 q 378 676 378 652 q 354 736 378 712 q 288 760 330 760 q 229 741 247 760 q 203 704 210 723 l 153 704 q 129 738 138 718 q 119 774 119 758 q 141 832 119 801 q 209 885 162 863 q 330 907 256 907 q 458 876 406 907 q 537 797 510 845 q 564 694 564 748 m 440 107 q 410 31 440 62 q 335 0 379 0 q 259 31 290 0 q 228 107 228 62 q 259 182 228 151 q 335 212 290 212 q 410 182 379 212 q 440 107 440 151 z "},"@":{"ha":1300,"x_min":102,"x_max":1200,"o":"m 1200 518 q 1167 330 1200 412 q 1083 192 1135 248 q 972 107 1031 136 q 861 78 913 78 q 778 107 804 78 q 753 193 753 136 q 650 109 699 139 q 551 79 600 79 q 427 140 475 79 q 378 306 378 201 q 407 454 378 385 q 485 574 436 523 q 596 655 534 626 q 724 684 658 684 q 791 673 753 684 q 860 646 829 663 l 885 677 l 962 677 q 953 640 961 672 q 935 562 945 608 q 913 463 924 515 q 891 367 901 412 q 874 294 881 322 q 868 265 868 265 q 862 221 862 241 q 876 174 862 192 q 920 157 890 157 q 987 182 950 157 q 1057 254 1023 207 q 1111 368 1090 301 q 1132 517 1132 434 q 1099 687 1132 614 q 1011 806 1066 759 q 886 876 956 852 q 743 899 817 899 q 525 858 625 899 q 353 744 426 817 q 241 572 281 671 q 201 357 201 473 q 259 102 201 216 q 426 -77 317 -11 q 688 -143 534 -143 q 900 -109 809 -143 q 1054 -40 991 -75 l 1074 -90 q 878 -176 980 -140 q 654 -212 775 -212 q 443 -175 543 -212 q 267 -67 343 -138 q 146 105 190 4 q 102 332 102 205 q 155 604 102 486 q 297 800 208 721 q 498 920 387 880 q 725 960 609 960 q 970 909 863 960 q 1138 760 1077 858 q 1200 518 1200 661 m 811 546 q 812 551 812 547 q 801 581 812 564 q 771 612 790 599 q 729 625 753 625 q 610 584 661 625 q 532 473 559 543 q 505 318 505 403 q 534 206 505 243 q 614 168 562 168 q 697 200 661 168 q 755 258 734 231 l 811 546 z "},"A":{"ha":936,"x_min":7,"x_max":929,"o":"m 929 0 l 599 0 l 599 60 l 679 66 q 689 74 684 66 q 694 87 694 81 q 693 90 694 90 l 597 345 l 277 345 l 184 94 q 184 90 184 93 q 191 74 184 82 q 204 66 198 66 l 286 60 l 286 0 l 7 0 l 7 60 l 87 77 l 411 954 l 515 954 l 838 97 q 847 78 843 83 q 867 71 851 73 l 929 60 l 929 0 m 572 411 l 436 775 l 301 411 l 572 411 z "},"B":{"ha":840,"x_min":45,"x_max":786,"o":"m 786 275 q 752 137 786 191 q 664 53 718 83 q 549 12 610 23 q 433 0 488 0 l 45 0 l 45 60 l 118 65 q 140 76 133 66 q 147 96 147 85 l 147 836 q 140 856 147 846 q 118 867 133 866 l 45 872 l 45 932 l 416 932 q 656 872 583 932 q 729 708 729 812 q 696 595 729 639 q 617 529 663 552 q 529 494 570 505 q 650 474 591 494 q 748 405 709 453 q 786 275 786 357 m 579 699 q 526 824 579 780 q 366 868 473 868 q 319 866 344 868 q 286 864 294 864 l 286 513 q 306 512 286 513 q 336 511 325 511 q 526 560 472 511 q 579 699 579 609 m 635 264 q 578 403 635 359 q 411 447 522 447 q 361 445 389 447 q 312 441 333 443 q 286 439 290 439 l 286 72 q 302 71 286 72 q 339 69 318 70 q 372 68 359 68 q 576 117 518 68 q 635 264 635 165 z "},"C":{"ha":871,"x_min":54,"x_max":817,"o":"m 817 257 l 817 32 q 773 17 813 31 q 672 -9 734 3 q 539 -22 610 -22 q 332 18 422 -22 q 180 127 242 58 q 86 284 118 197 q 54 468 54 372 q 115 721 54 612 q 286 892 176 831 q 541 954 395 954 q 670 940 608 954 q 817 900 732 926 l 817 682 l 733 682 l 713 808 q 703 829 710 820 q 689 840 695 838 l 684 843 q 631 864 666 851 q 547 876 595 876 q 377 830 453 876 q 258 692 302 783 q 214 468 214 602 q 307 164 214 274 q 566 54 401 54 q 645 66 614 54 q 677 78 675 77 q 704 106 699 86 l 736 257 l 817 257 z "},"D":{"ha":966,"x_min":45,"x_max":913,"o":"m 913 468 q 886 293 913 377 q 803 143 860 209 q 653 38 745 77 q 431 0 562 0 l 45 0 l 45 60 l 118 65 q 141 76 133 66 q 149 96 149 85 l 149 836 q 141 856 149 846 q 118 867 133 866 l 45 872 l 45 932 l 403 932 q 664 883 549 932 q 846 731 779 833 q 913 468 913 629 m 755 465 q 711 699 755 611 q 586 826 667 787 q 395 865 505 865 l 289 865 l 289 66 l 401 68 q 588 109 509 69 q 711 235 667 149 q 755 465 755 322 z "},"E":{"ha":810,"x_min":45,"x_max":765,"o":"m 765 0 l 45 0 l 45 60 l 117 65 q 139 76 132 66 q 147 96 147 85 l 147 836 q 139 856 147 846 q 117 867 132 866 l 45 872 l 45 932 l 720 932 l 720 725 l 636 725 l 615 839 q 607 857 614 849 q 590 865 600 865 l 289 865 l 289 519 l 497 519 q 514 528 507 519 q 522 543 522 536 l 536 639 l 607 639 l 607 329 l 536 329 l 522 425 q 514 441 522 433 q 497 450 506 450 l 289 450 l 289 68 l 640 68 q 657 78 649 68 q 665 94 665 87 l 690 232 l 765 232 l 765 0 z "},"F":{"ha":751,"x_min":35,"x_max":710,"o":"m 710 711 l 628 711 l 608 839 q 600 857 606 849 q 585 864 594 864 l 289 864 l 289 503 l 501 503 q 518 512 511 503 q 526 528 526 521 l 539 625 l 608 625 l 608 313 l 539 313 l 526 410 q 518 426 526 417 q 501 435 510 435 l 289 435 l 289 96 q 296 76 289 85 q 318 65 303 66 l 411 60 l 411 0 l 46 0 l 46 60 l 119 65 q 141 76 134 66 q 149 96 149 85 l 149 836 q 141 856 149 846 q 119 867 134 866 l 35 872 l 35 932 l 710 932 l 710 711 z "},"G":{"ha":965,"x_min":54,"x_max":930,"o":"m 930 390 l 860 383 q 838 374 845 382 q 831 354 831 365 l 831 33 q 789 19 831 33 q 681 -8 747 5 q 539 -22 614 -22 q 333 18 423 -22 q 181 126 243 58 q 86 283 119 195 q 54 468 54 372 q 115 723 54 614 q 289 893 176 833 q 557 954 401 954 q 688 941 628 954 q 806 913 749 928 l 829 907 l 829 682 l 746 682 l 724 807 q 713 828 722 819 q 696 840 705 836 q 688 844 693 841 q 631 865 667 853 q 551 876 595 876 q 375 830 452 876 q 255 694 298 783 q 212 475 212 604 q 309 165 212 275 q 568 56 406 56 q 650 66 614 56 q 690 77 686 77 l 690 354 q 683 374 690 365 q 661 383 676 382 l 568 390 l 568 450 l 930 450 l 930 390 z "},"H":{"ha":1032,"x_min":45,"x_max":987,"o":"m 987 0 l 636 0 l 636 60 l 715 65 q 737 76 730 66 q 745 96 745 85 l 745 454 l 288 454 l 288 96 q 295 76 288 85 q 317 65 302 66 l 396 60 l 396 0 l 45 0 l 45 60 l 117 65 q 139 76 132 66 q 147 96 147 85 l 147 836 q 139 856 147 846 q 117 865 132 865 l 45 871 l 45 932 l 396 932 l 396 871 l 317 865 q 295 856 302 865 q 288 836 288 846 l 288 524 l 745 524 l 745 836 q 737 856 745 846 q 715 865 730 865 l 636 871 l 636 932 l 987 932 l 987 871 l 916 865 q 893 856 901 865 q 885 836 885 846 l 885 96 q 893 76 885 85 q 916 65 901 66 l 987 60 l 987 0 z "},"I":{"ha":458,"x_min":46,"x_max":412,"o":"m 412 0 l 46 0 l 46 60 l 129 65 q 151 76 144 66 q 158 96 158 85 l 158 836 q 151 856 158 846 q 129 865 144 865 l 46 871 l 46 932 l 412 932 l 412 871 l 328 865 q 306 856 313 865 q 298 836 298 846 l 298 96 q 306 76 298 85 q 328 65 313 66 l 412 60 l 412 0 z "},"J":{"ha":673,"x_min":35,"x_max":637,"o":"m 637 872 l 557 867 q 535 856 543 866 q 528 836 528 846 l 528 351 q 498 152 528 236 q 402 23 469 68 q 222 -22 335 -22 q 136 -13 178 -22 q 66 6 94 -4 q 35 17 39 16 l 35 254 l 118 254 l 149 85 q 172 56 153 64 q 212 49 191 49 q 347 122 307 49 q 387 342 387 196 l 387 836 q 380 856 387 846 q 358 867 373 866 l 271 872 l 271 932 l 637 932 l 637 872 z "},"K":{"ha":886,"x_min":45,"x_max":886,"o":"m 886 0 l 643 0 l 643 43 l 385 414 l 288 414 l 288 96 q 295 76 288 85 q 318 65 303 66 l 397 60 l 397 0 l 45 0 l 45 60 l 118 65 q 140 76 133 66 q 147 96 147 85 l 147 836 q 140 856 147 846 q 118 867 133 866 l 45 872 l 45 932 l 397 932 l 397 872 l 318 867 q 295 856 303 866 q 288 836 288 846 l 288 472 l 338 472 l 640 842 q 643 849 643 844 q 629 865 643 864 l 558 872 l 558 932 l 852 932 l 852 872 q 830 870 852 872 q 785 865 808 867 q 758 861 762 862 l 475 522 l 786 66 l 886 60 l 886 0 z "},"L":{"ha":737,"x_min":37,"x_max":713,"o":"m 713 0 l 37 0 l 37 60 l 118 65 q 140 76 133 66 q 147 96 147 85 l 147 836 q 140 856 147 846 q 118 867 133 866 l 37 872 l 37 932 l 392 932 l 392 872 l 318 867 q 295 856 303 866 q 288 836 288 846 l 288 68 l 579 68 q 599 75 589 68 q 610 92 609 83 l 632 258 l 713 258 l 713 0 z "},"M":{"ha":1217,"x_min":40,"x_max":1174,"o":"m 1174 0 l 823 0 l 823 60 l 897 65 q 920 76 912 66 q 928 96 928 85 l 928 861 l 608 0 l 539 0 l 231 848 l 231 96 q 238 76 231 85 q 261 65 246 66 l 340 60 l 340 0 l 40 0 l 40 60 l 119 65 q 141 76 134 66 q 149 96 149 85 l 149 836 q 141 856 149 846 q 119 867 134 866 l 40 872 l 40 932 l 351 932 l 351 895 l 603 212 l 854 890 l 854 932 l 1174 932 l 1174 872 l 1099 867 q 1076 856 1084 866 q 1068 836 1068 846 l 1068 96 q 1076 76 1068 85 q 1099 65 1084 66 l 1174 60 l 1174 0 z "},"N":{"ha":1002,"x_min":35,"x_max":961,"o":"m 961 872 l 884 867 q 862 856 869 866 q 854 836 854 846 l 854 0 l 746 0 l 229 778 l 229 96 q 236 76 229 85 q 258 65 243 66 l 338 60 l 338 0 l 37 0 l 37 60 l 117 65 q 139 76 132 66 q 147 96 147 85 l 147 836 q 139 856 147 846 q 117 867 132 866 l 35 872 l 35 932 l 310 932 l 310 897 l 772 199 l 772 836 q 765 856 772 846 q 743 867 758 866 l 664 872 l 664 932 l 961 932 l 961 872 z "},"O":{"ha":1015,"x_min":54,"x_max":961,"o":"m 961 465 q 929 276 961 364 q 837 121 897 188 q 694 16 777 54 q 509 -22 610 -22 q 270 42 372 -22 q 111 216 168 106 q 54 467 54 327 q 86 656 54 568 q 177 812 117 745 q 320 917 237 879 q 507 954 404 954 q 694 916 610 954 q 837 811 777 878 q 929 655 897 743 q 961 465 961 566 m 800 464 q 768 670 800 577 q 670 819 735 764 q 509 875 606 875 q 343 819 408 875 q 245 670 277 763 q 214 467 214 577 q 245 261 214 355 q 342 111 277 168 q 505 54 407 54 q 671 111 606 54 q 768 261 736 168 q 800 464 800 354 z "},"P":{"ha":804,"x_min":35,"x_max":750,"o":"m 750 652 q 702 483 750 550 q 572 382 654 416 q 391 349 491 349 l 387 349 q 327 351 360 349 q 289 354 294 353 l 289 96 q 296 76 289 85 q 318 65 303 66 l 410 60 l 410 0 l 45 0 l 45 60 l 118 65 q 141 76 133 66 q 149 96 149 85 l 149 836 q 141 856 149 846 q 118 867 133 866 l 35 872 l 35 932 l 367 932 q 657 869 564 932 q 750 652 750 806 m 606 650 q 549 807 606 751 q 359 864 492 864 q 315 863 340 864 q 289 863 289 863 l 289 425 q 320 421 292 425 q 367 418 347 418 l 371 418 q 542 474 479 418 q 606 650 606 530 z "},"Q":{"ha":1026,"x_min":54,"x_max":972,"o":"m 972 465 q 927 239 972 340 q 795 71 881 137 q 589 -16 709 4 q 637 -138 590 -94 q 781 -183 685 -183 q 864 -177 829 -183 q 911 -169 899 -172 q 913 -169 912 -169 q 914 -168 913 -168 l 914 -228 q 913 -228 913 -228 q 911 -229 912 -229 q 835 -242 892 -233 q 708 -252 778 -252 q 501 -189 562 -252 q 440 -18 440 -125 q 242 61 330 -2 q 104 227 155 123 q 54 465 54 330 q 86 656 54 567 q 179 812 119 745 q 323 917 239 879 q 511 954 407 954 q 756 889 652 954 q 916 713 859 824 q 972 465 972 602 m 808 465 q 777 668 808 574 q 680 819 745 762 q 513 876 615 876 q 346 820 412 876 q 248 671 280 764 q 216 468 216 578 q 249 265 216 359 q 348 112 281 170 q 513 54 414 54 q 679 112 613 54 q 776 263 744 169 q 808 465 808 357 z "},"R":{"ha":901,"x_min":45,"x_max":901,"o":"m 901 -4 q 867 -14 892 -5 q 810 -22 841 -22 q 697 1 739 -22 q 632 64 655 25 q 596 150 610 103 q 570 243 583 197 q 532 329 556 290 q 466 391 509 368 q 350 415 423 415 q 309 414 328 415 q 288 412 290 412 l 288 96 q 295 76 288 85 q 317 65 302 66 l 390 60 l 390 0 l 45 0 l 45 60 l 117 65 q 139 76 132 66 q 147 96 147 85 l 147 836 q 139 856 147 846 q 117 867 132 866 l 45 872 l 45 932 l 407 932 q 656 877 565 932 q 747 685 747 823 q 715 566 747 612 q 630 493 682 519 q 519 453 578 467 q 620 409 584 437 q 674 343 656 380 q 701 267 692 307 q 718 191 709 228 q 745 123 727 153 q 800 76 763 94 q 901 58 836 58 l 901 -4 m 596 679 q 539 816 596 768 q 351 864 483 864 l 288 864 l 288 484 q 316 483 291 484 q 357 482 340 482 q 534 525 473 482 q 596 679 596 568 z "},"S":{"ha":724,"x_min":54,"x_max":669,"o":"m 669 261 q 632 126 669 191 q 513 19 594 61 q 301 -22 432 -22 q 171 -9 227 -22 q 85 16 115 3 q 54 29 54 29 l 54 275 l 142 275 l 160 118 q 169 100 161 110 q 183 87 176 91 q 223 71 186 87 q 323 56 259 56 q 470 99 412 56 q 528 220 528 142 q 504 293 528 262 q 444 349 481 325 q 364 394 406 374 q 283 432 321 414 q 178 490 227 459 q 99 566 129 521 q 69 682 69 612 q 111 826 69 765 q 226 921 153 887 q 390 954 298 954 q 522 940 465 954 q 623 911 578 925 l 635 907 l 635 690 l 555 690 l 534 823 q 526 837 533 833 q 513 848 519 842 q 479 865 507 852 q 392 879 451 879 q 260 832 309 879 q 212 715 212 786 q 262 610 212 652 q 406 532 312 568 q 601 425 532 484 q 669 261 669 366 z "},"T":{"ha":832,"x_min":22,"x_max":810,"o":"m 810 710 l 728 710 l 708 840 q 685 864 703 864 l 486 864 l 486 96 q 493 76 486 85 q 515 65 500 66 l 604 60 l 604 0 l 228 0 l 228 60 l 317 65 q 339 76 332 66 q 346 96 346 85 l 346 864 l 146 864 q 122 840 125 864 l 103 710 l 22 710 l 22 932 l 810 932 l 810 710 z "},"U":{"ha":989,"x_min":43,"x_max":951,"o":"m 951 872 l 871 867 q 849 856 856 866 q 842 836 842 846 l 842 309 q 750 58 842 138 q 485 -22 659 -22 q 230 61 313 -22 q 146 309 146 145 l 146 836 q 139 856 146 846 q 117 867 132 866 l 43 872 l 43 932 l 396 932 l 396 872 l 317 867 q 295 856 302 866 q 288 836 288 846 l 288 345 q 306 201 288 263 q 375 105 324 140 q 522 71 426 71 q 670 107 618 71 q 740 205 721 143 q 760 345 760 268 l 760 836 q 752 856 760 846 q 729 867 744 866 l 650 872 l 650 932 l 951 932 l 951 872 z "},"V":{"ha":925,"x_min":14,"x_max":911,"o":"m 911 872 l 831 857 l 519 -22 l 414 -22 l 96 859 l 14 872 l 14 932 l 346 932 l 346 872 l 264 865 q 254 858 258 865 q 251 845 251 851 q 252 840 251 842 l 496 154 l 730 838 q 731 842 731 839 q 725 857 731 850 q 711 865 719 865 l 635 872 l 635 932 l 911 932 l 911 872 z "},"W":{"ha":1293,"x_min":14,"x_max":1279,"o":"m 1279 872 l 1194 856 l 982 -22 l 880 -22 l 648 747 l 421 -22 l 321 -22 l 94 856 l 14 872 l 14 932 l 332 932 l 332 872 l 249 864 q 233 844 233 862 q 235 836 233 842 l 400 210 l 618 932 l 725 932 l 949 187 l 1103 836 q 1103 841 1103 838 q 1083 864 1103 862 l 996 872 l 996 932 l 1279 932 l 1279 872 z "},"X":{"ha":880,"x_min":14,"x_max":867,"o":"m 867 0 l 510 0 l 510 60 l 590 68 q 610 87 610 71 q 607 97 610 92 l 422 387 l 208 93 q 205 82 205 87 q 225 66 205 68 l 309 60 l 309 0 l 14 0 l 14 60 l 97 77 l 376 460 l 123 856 l 32 872 l 32 932 l 380 932 l 380 872 l 310 865 q 290 849 290 865 q 293 838 290 843 l 463 576 l 650 833 q 654 844 654 839 q 635 863 654 861 l 564 872 l 564 932 l 854 932 l 854 872 l 765 859 l 507 504 l 781 77 l 867 60 l 867 0 z "},"Y":{"ha":869,"x_min":14,"x_max":856,"o":"m 856 872 l 781 859 l 501 396 l 501 96 q 509 76 501 85 q 530 65 516 66 l 619 60 l 619 0 l 244 0 l 244 60 l 330 65 q 353 76 345 66 q 361 96 361 85 l 361 375 l 94 856 l 14 872 l 14 932 l 343 932 l 343 872 l 273 865 q 254 849 254 863 q 257 838 254 842 l 453 475 l 668 833 q 671 843 671 838 q 652 863 671 860 l 574 872 l 574 932 l 856 932 l 856 872 z "},"Z":{"ha":799,"x_min":54,"x_max":745,"o":"m 745 0 l 54 0 l 54 61 l 571 863 l 210 863 q 186 839 192 863 l 165 710 l 83 710 l 83 932 l 737 932 l 737 868 l 220 71 l 615 71 q 631 78 625 71 q 639 96 637 85 l 663 257 l 745 257 l 745 0 z "},"[":{"ha":461,"x_min":119,"x_max":396,"o":"m 396 -107 l 119 -107 l 119 1008 l 396 1008 l 396 925 l 249 925 l 249 -28 l 396 -28 l 396 -107 z "},"\\":{"ha":564,"x_min":0,"x_max":566,"o":"m 150 971 l 566 -8 l 412 -8 l 0 971 l 150 971 z "},"]":{"ha":461,"x_min":56,"x_max":332,"o":"m 332 -107 l 56 -107 l 56 -24 l 203 -24 l 203 929 l 56 929 l 56 1008 l 332 1008 l 332 -107 z "},"^":{"ha":1331,"x_min":302,"x_max":1028,"o":"m 1028 16 l 940 16 l 665 693 l 389 16 l 302 16 l 631 814 l 701 814 l 1028 16 z "},"_":{"ha":833,"x_min":0,"x_max":833,"o":"m 833 -463 l 0 -463 l 0 -325 l 833 -325 l 833 -463 z "},"`":{"ha":486,"x_min":0,"x_max":322,"o":"m 322 765 l 243 765 l 32 900 q 0 956 0 921 q 14 997 0 977 q 64 1018 28 1018 q 107 1008 92 1018 q 136 981 121 998 l 322 765 z "},"a":{"ha":707,"x_min":47,"x_max":684,"o":"m 684 0 l 478 0 l 460 82 q 439 67 460 82 q 385 33 418 52 q 310 -2 351 13 q 228 -17 269 -17 q 100 33 153 -17 q 47 171 47 83 q 61 243 47 210 q 117 306 75 276 q 241 365 159 336 q 460 424 323 394 l 460 484 q 330 621 460 621 q 268 614 294 621 q 232 603 242 607 l 232 482 l 131 482 q 96 489 112 482 q 79 522 79 496 q 123 615 79 579 q 233 669 166 652 q 368 686 300 686 q 502 660 454 686 q 568 586 549 633 q 587 478 587 538 l 587 89 q 596 68 587 76 q 616 58 604 60 l 684 54 l 684 0 m 460 131 l 460 371 q 311 325 366 348 q 229 278 256 301 q 193 230 201 254 q 184 180 184 206 q 212 101 184 138 q 289 65 239 65 q 347 75 317 65 q 402 98 376 85 q 444 121 428 111 q 460 131 460 131 z "},"b":{"ha":771,"x_min":20,"x_max":724,"o":"m 724 367 q 682 179 724 262 q 553 48 641 96 q 325 0 465 0 l 125 0 l 125 924 l 20 924 l 20 970 l 199 1023 l 254 1023 l 254 635 q 331 666 278 646 q 446 686 385 686 q 599 642 537 686 q 692 525 661 598 q 724 367 724 452 m 582 339 q 526 537 582 471 q 370 604 471 604 q 311 597 347 604 q 254 582 275 589 l 254 66 q 278 66 254 66 q 322 65 302 65 q 514 126 446 65 q 582 339 582 187 z "},"c":{"ha":647,"x_min":47,"x_max":600,"o":"m 600 131 l 600 52 q 495 5 553 26 q 366 -17 436 -17 q 197 28 269 -17 q 86 152 125 74 q 47 330 47 231 q 94 526 47 447 q 217 646 140 606 q 382 686 293 686 q 535 651 473 686 q 597 547 597 615 q 572 486 597 507 q 515 465 547 465 q 475 473 492 465 q 446 489 458 481 l 446 610 q 387 628 414 628 q 281 592 326 628 q 213 492 237 555 q 189 349 189 429 q 215 209 189 272 q 292 108 241 145 q 419 71 343 71 q 511 86 467 71 q 600 131 555 102 z "},"d":{"ha":783,"x_min":47,"x_max":747,"o":"m 747 0 l 529 0 l 529 74 q 428 10 481 37 q 314 -17 374 -17 q 194 13 244 -17 q 111 91 143 42 q 63 199 79 140 q 47 317 47 258 q 86 495 47 411 q 203 633 125 580 q 401 686 282 686 q 474 680 435 686 q 529 669 513 673 l 529 924 l 424 924 l 424 970 l 603 1023 l 659 1023 l 659 89 q 688 58 659 60 l 747 54 l 747 0 m 529 126 l 529 599 q 476 612 511 605 q 411 619 441 619 q 246 543 308 619 q 184 340 184 467 q 237 153 184 227 q 386 78 290 78 q 465 94 428 78 q 529 126 502 110 z "},"e":{"ha":681,"x_min":47,"x_max":633,"o":"m 633 69 q 508 8 575 33 q 370 -17 440 -17 q 212 21 286 -17 q 93 135 138 58 q 47 328 47 212 q 90 517 47 436 q 205 642 132 597 q 374 686 279 686 q 568 606 503 686 q 633 401 633 526 q 633 384 633 395 q 632 363 633 372 l 182 363 q 193 257 182 310 q 231 162 204 205 q 302 94 257 119 q 414 68 347 68 q 530 95 473 68 q 633 154 587 123 l 633 69 m 494 425 l 494 456 q 461 571 494 524 q 359 618 429 618 q 243 566 291 618 q 189 425 195 515 l 494 425 z "},"f":{"ha":453,"x_min":40,"x_max":541,"o":"m 541 940 q 527 896 541 912 q 497 873 513 880 q 476 865 481 867 q 455 881 474 867 q 411 911 435 895 q 369 942 387 928 q 349 956 350 955 q 293 892 319 940 q 267 747 267 845 l 267 659 l 439 659 l 439 587 l 267 587 l 267 89 q 275 67 267 76 q 296 58 283 59 l 378 54 l 378 0 l 40 0 l 40 54 l 109 58 q 129 68 121 60 q 138 89 138 76 l 138 587 l 49 587 l 49 636 l 138 661 q 148 775 138 730 q 184 869 159 820 q 289 986 225 948 q 421 1023 353 1023 q 510 999 480 1023 q 541 940 541 974 z "},"g":{"ha":729,"x_min":47,"x_max":705,"o":"m 705 576 l 567 576 q 593 522 583 551 q 604 452 604 492 q 566 333 604 382 q 466 258 528 284 q 332 231 404 231 q 318 231 325 231 q 304 232 311 231 q 293 201 296 218 q 290 171 290 185 q 291 149 290 158 q 293 139 292 140 l 313 137 q 422 123 361 132 q 539 95 483 115 q 633 39 596 75 q 669 -56 669 3 q 621 -181 669 -121 q 491 -280 573 -241 q 309 -318 410 -318 q 116 -261 184 -318 q 47 -121 47 -205 q 83 -13 47 -60 q 195 47 119 34 q 184 79 187 69 q 180 111 180 88 q 197 171 180 138 q 250 241 214 204 q 130 312 181 257 q 78 450 78 366 q 155 623 78 559 q 357 686 232 686 q 449 672 406 686 q 518 644 491 657 l 705 644 l 705 576 m 472 460 q 457 543 472 504 q 414 605 442 581 q 343 629 385 629 q 248 584 285 629 q 211 458 211 539 q 244 339 211 389 q 343 289 277 289 q 439 339 406 289 q 472 460 472 389 m 550 -93 q 520 -26 550 -50 q 445 9 490 -2 q 355 26 400 21 q 278 37 309 31 q 195 -22 218 16 q 172 -93 172 -59 q 192 -164 172 -126 q 251 -228 211 -201 q 354 -254 292 -254 q 464 -228 420 -254 q 529 -164 507 -201 q 550 -93 550 -126 z "},"h":{"ha":798,"x_min":21,"x_max":765,"o":"m 765 0 l 456 0 l 456 54 l 513 58 q 534 68 525 60 q 543 89 543 76 l 543 447 q 515 546 543 507 q 406 585 486 585 q 327 573 369 585 q 254 545 284 562 l 254 89 q 282 58 254 60 l 342 54 l 342 0 l 29 0 l 29 54 l 96 58 q 125 89 125 60 l 125 924 l 21 924 l 21 970 l 199 1023 l 254 1023 l 254 600 q 319 636 279 616 q 404 671 359 656 q 484 686 448 686 q 618 635 564 686 q 672 476 672 583 l 672 89 q 681 68 672 76 q 703 58 690 60 l 765 54 l 765 0 z "},"i":{"ha":421,"x_min":47,"x_max":374,"o":"m 302 899 q 278 838 302 863 q 218 812 254 812 q 158 838 183 812 q 132 899 132 863 q 158 959 132 935 q 218 983 183 983 q 278 959 254 983 q 302 899 302 935 m 374 0 l 47 0 l 47 54 l 115 58 q 144 89 144 60 l 144 585 l 49 585 l 49 633 l 218 686 l 273 686 l 273 89 q 282 68 273 76 q 302 58 290 60 l 374 54 l 374 0 z "},"j":{"ha":406,"x_min":-110,"x_max":296,"o":"m 296 899 q 271 838 296 863 q 211 812 247 812 q 150 838 176 812 q 125 899 125 863 q 150 959 125 935 q 211 983 176 983 q 271 959 247 983 q 296 899 296 935 m 281 89 q 277 -3 281 47 q 261 -103 273 -54 q 226 -189 250 -152 q 123 -287 184 -255 q -4 -318 62 -318 q -78 -299 -47 -318 q -110 -241 -110 -281 q -91 -187 -110 -206 q -50 -161 -71 -168 l 85 -254 q 137 -171 123 -233 q 151 -29 151 -109 l 151 587 l 53 587 l 53 633 l 224 686 l 281 686 l 281 89 z "},"k":{"ha":742,"x_min":20,"x_max":728,"o":"m 728 0 l 505 0 l 505 54 l 332 315 l 254 315 l 254 89 q 283 58 254 60 l 343 54 l 343 0 l 28 0 l 28 54 l 96 58 q 125 89 125 60 l 125 924 l 20 924 l 20 970 l 197 1023 l 254 1023 l 254 355 l 282 355 l 486 586 q 489 595 489 589 q 475 610 489 608 l 418 615 l 418 669 l 688 669 l 688 615 l 599 606 l 415 410 l 654 62 l 728 54 l 728 0 z "},"l":{"ha":412,"x_min":36,"x_max":375,"o":"m 375 0 l 37 0 l 37 54 l 111 58 q 131 68 121 58 q 142 87 142 79 l 142 924 l 36 924 l 36 970 l 214 1023 l 271 1023 l 271 87 q 281 68 271 79 q 300 58 291 58 l 375 54 l 375 0 z "},"m":{"ha":1181,"x_min":28,"x_max":1150,"o":"m 1150 0 l 839 0 l 839 54 l 897 58 q 926 89 926 60 l 926 443 q 900 546 926 507 q 803 585 873 585 q 727 574 768 585 q 654 546 686 563 l 654 89 q 684 58 654 60 l 742 54 l 742 0 l 437 0 l 437 54 l 496 58 q 525 89 525 60 l 525 452 q 497 548 525 511 q 403 585 469 585 q 321 571 363 585 q 254 545 278 558 l 254 89 q 283 58 254 60 l 342 54 l 342 0 l 28 0 l 28 54 l 96 58 q 125 89 125 60 l 125 571 l 29 571 l 29 616 l 197 669 l 254 669 l 254 600 q 325 639 286 619 q 404 672 363 659 q 481 686 445 686 q 578 655 541 686 q 633 590 616 625 q 704 630 661 608 q 792 670 747 653 q 875 686 838 686 q 987 653 948 686 q 1040 570 1025 619 q 1054 473 1054 521 l 1054 89 q 1062 68 1054 76 q 1083 58 1071 60 l 1150 54 l 1150 0 z "},"n":{"ha":787,"x_min":28,"x_max":760,"o":"m 760 0 l 453 0 l 453 54 l 511 58 q 532 68 524 60 q 541 89 541 76 l 541 450 q 510 550 541 516 q 407 585 479 585 q 329 573 368 585 q 254 545 290 562 l 254 89 q 283 58 254 60 l 342 54 l 342 0 l 28 0 l 28 54 l 96 58 q 125 89 125 60 l 125 571 l 28 571 l 28 616 l 197 669 l 254 669 l 254 600 q 374 660 313 633 q 484 686 435 686 q 622 630 574 686 q 669 472 669 573 l 669 89 q 678 68 669 76 q 699 58 686 60 l 760 54 l 760 0 z "},"o":{"ha":755,"x_min":47,"x_max":708,"o":"m 708 334 q 667 156 708 235 q 552 30 627 76 q 376 -17 478 -17 q 201 29 275 -17 q 87 155 127 75 q 47 334 47 234 q 88 513 47 433 q 203 640 128 593 q 380 686 278 686 q 557 639 484 686 q 669 511 631 591 q 708 334 708 431 m 564 335 q 544 477 564 411 q 483 583 524 543 q 379 624 441 624 q 274 583 315 624 q 213 477 233 543 q 193 335 193 411 q 213 194 193 260 q 274 87 233 127 q 378 46 315 46 q 483 87 441 46 q 544 193 524 127 q 564 335 564 259 z "},"p":{"ha":777,"x_min":29,"x_max":729,"o":"m 729 345 q 687 154 729 235 q 566 28 645 73 q 378 -17 488 -17 q 324 -14 353 -17 q 275 -7 295 -10 q 254 -4 254 -4 l 254 -211 q 263 -231 254 -224 q 285 -240 272 -239 l 367 -249 l 367 -302 l 29 -302 l 29 -249 l 96 -240 q 125 -211 125 -238 l 125 571 l 29 571 l 29 616 l 200 669 l 254 669 l 254 600 q 272 613 254 600 q 318 643 289 626 q 386 673 348 661 q 464 686 423 686 q 596 644 536 686 q 692 525 656 602 q 729 345 729 448 m 590 325 q 568 456 590 397 q 503 552 546 516 q 396 589 460 589 q 329 578 361 589 q 275 558 296 568 q 254 547 254 547 l 254 69 q 289 58 254 69 q 367 47 324 47 q 493 87 444 47 q 566 190 542 126 q 590 325 590 253 z "},"q":{"ha":762,"x_min":47,"x_max":742,"o":"m 742 -302 l 406 -302 l 406 -250 l 488 -243 q 508 -234 500 -241 q 517 -214 517 -227 l 517 37 q 424 1 478 18 q 322 -17 369 -17 q 175 28 237 -17 q 81 150 114 74 q 47 318 47 226 q 153 587 47 488 q 449 686 259 686 q 545 680 487 686 q 646 664 602 674 l 646 -214 q 654 -234 646 -227 q 675 -243 663 -241 l 742 -250 l 742 -302 m 517 85 l 517 608 q 473 617 498 612 q 421 623 449 623 q 247 545 307 623 q 187 340 187 468 q 209 206 187 269 q 276 104 230 143 q 397 65 323 65 q 458 72 423 65 q 517 85 494 78 z "},"r":{"ha":543,"x_min":32,"x_max":529,"o":"m 529 528 l 475 528 q 444 554 462 543 q 400 566 426 566 q 332 543 367 566 q 261 479 297 519 l 261 89 q 290 58 261 60 l 382 54 l 382 0 l 35 0 l 35 53 l 103 58 q 124 68 115 60 q 132 89 132 76 l 132 571 l 32 571 l 32 616 l 204 669 l 261 669 l 261 546 q 312 602 281 568 q 377 661 342 635 q 444 686 412 686 q 491 680 466 686 q 529 665 516 673 l 529 528 z "},"s":{"ha":553,"x_min":47,"x_max":505,"o":"m 505 201 q 435 41 505 99 q 240 -17 364 -17 q 122 -4 176 -17 q 47 18 68 9 l 47 203 l 118 203 l 135 85 q 187 59 156 71 q 258 46 218 46 q 351 79 318 46 q 383 154 383 113 q 344 237 383 209 q 232 300 304 265 l 214 309 q 97 384 138 345 q 57 485 57 422 q 122 632 57 578 q 307 686 187 686 q 416 675 368 686 q 485 654 464 664 l 485 490 l 412 490 l 401 587 q 357 609 387 599 q 296 619 328 619 q 211 593 239 619 q 183 526 183 567 q 217 452 183 479 q 338 385 250 425 q 458 310 411 351 q 505 201 505 269 z "},"t":{"ha":472,"x_min":37,"x_max":463,"o":"m 463 85 l 463 29 q 436 18 463 29 q 368 -5 410 6 q 275 -17 326 -17 q 162 20 197 -17 q 126 139 126 57 l 126 600 l 37 600 l 37 646 l 132 690 l 195 838 l 256 838 l 256 669 l 452 669 l 452 600 l 256 600 l 256 212 q 283 95 256 130 q 367 61 311 61 q 435 73 408 61 q 463 85 463 85 z "},"u":{"ha":790,"x_min":29,"x_max":761,"o":"m 761 0 l 541 0 l 541 79 q 480 39 517 61 q 401 0 444 16 q 318 -17 359 -17 q 177 37 229 -17 q 126 208 126 91 l 126 585 l 29 585 l 29 632 l 200 686 l 256 686 l 256 235 q 286 119 256 161 q 390 78 316 78 q 474 93 433 78 q 541 119 515 107 l 541 585 l 443 585 l 443 632 l 612 686 l 669 686 l 669 89 q 679 68 669 76 q 700 58 688 60 l 761 54 l 761 0 z "},"v":{"ha":734,"x_min":14,"x_max":721,"o":"m 721 615 l 647 607 l 404 0 l 314 0 l 90 607 l 14 615 l 14 669 l 321 669 l 321 615 l 254 611 q 232 589 232 609 q 233 581 232 586 l 389 146 l 559 581 q 562 589 562 585 q 541 611 562 610 l 478 615 l 478 669 l 721 669 l 721 615 z "},"w":{"ha":1088,"x_min":14,"x_max":1074,"o":"m 1074 615 l 1003 607 l 812 0 l 714 0 l 550 519 l 367 0 l 268 0 l 90 607 l 14 615 l 14 669 l 318 669 l 318 615 l 253 611 q 231 588 231 609 q 232 581 231 583 l 347 149 l 526 669 l 625 669 l 786 149 l 914 581 q 915 587 915 583 q 909 603 915 596 q 895 611 904 610 l 831 615 l 831 669 l 1074 669 l 1074 615 z "},"x":{"ha":708,"x_min":14,"x_max":694,"o":"m 694 0 l 396 0 l 396 54 l 443 60 q 458 77 458 61 q 456 85 458 81 l 336 262 l 200 85 q 197 74 197 81 q 208 60 197 60 l 278 54 l 278 0 l 14 0 l 14 54 l 93 65 l 292 323 l 103 603 l 21 615 l 21 669 l 326 669 l 326 615 l 278 608 q 262 591 262 606 q 264 583 262 587 l 374 428 l 494 583 q 498 593 498 588 q 485 608 498 607 l 425 615 l 425 669 l 675 669 l 675 615 l 600 603 l 414 366 l 619 65 l 694 54 l 694 0 z "},"y":{"ha":736,"x_min":14,"x_max":722,"o":"m 722 615 l 650 607 l 383 -43 q 356 -107 374 -65 q 312 -192 337 -149 q 257 -265 286 -236 q 202 -304 232 -290 q 136 -318 172 -318 q 61 -294 87 -318 q 35 -239 35 -270 q 79 -155 35 -193 l 210 -215 q 256 -153 233 -192 q 297 -71 279 -113 q 326 1 316 -29 l 90 607 l 14 615 l 14 669 l 321 669 l 321 615 l 254 611 q 232 589 232 609 q 233 581 232 583 l 395 171 l 559 581 q 562 589 562 585 q 541 611 562 610 l 475 615 l 475 669 l 722 669 l 722 615 z "},"z":{"ha":642,"x_min":47,"x_max":595,"o":"m 595 0 l 47 0 l 47 74 l 415 604 l 174 604 q 156 594 163 604 q 146 575 148 585 l 132 472 l 61 472 l 61 669 l 575 669 l 575 612 l 195 66 l 475 66 q 494 78 484 66 q 505 100 505 90 l 519 210 l 595 210 l 595 0 z "},"{":{"ha":677,"x_min":83,"x_max":582,"o":"m 582 -114 l 582 -171 q 441 -158 508 -171 q 340 -110 374 -146 q 292 -14 301 -68 q 283 97 283 39 l 283 169 q 268 297 283 253 q 210 356 253 340 q 83 372 167 372 l 83 435 q 210 451 167 435 q 268 510 253 467 q 283 638 283 554 l 283 710 q 292 822 283 768 q 340 917 301 875 q 441 965 374 953 q 582 978 508 978 l 582 921 q 543 918 570 921 q 487 907 515 916 q 440 879 458 898 q 412 813 417 854 q 407 726 407 772 l 407 673 q 394 543 407 596 q 341 455 381 489 q 220 404 301 422 q 341 353 301 387 q 394 264 381 318 q 407 134 407 210 l 407 81 q 412 -6 407 35 q 440 -72 417 -47 q 487 -100 458 -91 q 543 -111 515 -109 q 582 -114 570 -114 z "},"|":{"ha":694,"x_min":298,"x_max":396,"o":"m 396 -328 l 298 -328 l 298 1061 l 396 1061 l 396 -328 z "},"}":{"ha":677,"x_min":96,"x_max":595,"o":"m 595 435 l 595 372 q 470 357 513 372 q 411 299 427 342 q 395 173 395 256 l 395 97 q 386 -14 395 39 q 338 -110 378 -68 q 237 -158 303 -146 q 96 -171 170 -171 l 96 -114 q 135 -111 108 -114 q 191 -100 162 -109 q 237 -72 220 -91 q 266 -8 260 -48 q 271 77 271 32 q 271 106 271 92 q 271 134 271 120 q 284 265 271 211 q 337 353 297 319 q 458 404 378 387 q 337 455 377 422 q 284 542 297 488 q 271 673 271 596 q 271 701 271 687 q 271 730 271 715 q 266 815 271 775 q 237 879 260 855 q 191 907 220 898 q 135 918 162 916 q 96 921 108 921 l 96 978 q 237 965 170 978 q 338 917 303 953 q 386 822 378 875 q 395 710 395 768 l 395 634 q 411 508 395 551 q 470 450 427 465 q 595 435 513 435 z "},"~":{"ha":1157,"x_min":119,"x_max":1038,"o":"m 1038 515 l 1038 425 q 897 349 958 370 q 777 328 836 328 q 678 342 727 328 q 580 374 629 356 q 479 407 530 393 q 375 421 429 421 q 256 392 322 421 q 119 313 189 363 l 119 403 q 261 478 194 456 q 383 501 328 501 q 485 487 434 501 q 586 455 536 473 q 684 422 636 436 q 778 408 732 408 q 891 432 828 408 q 1038 515 954 455 z "}," ":{"ha":625,"x_min":0,"x_max":0,"o":""},"¡":{"ha":750,"x_min":225,"x_max":437,"o":"m 437 646 q 407 570 437 601 q 332 538 376 538 q 256 570 287 538 q 225 646 225 601 q 256 720 225 690 q 332 751 287 751 q 407 720 376 751 q 437 646 437 690 m 427 -1 q 402 -118 427 -81 q 332 -156 377 -156 q 263 -122 287 -156 q 240 1 240 -87 q 242 40 240 18 q 250 109 243 63 q 268 242 256 155 q 300 473 279 328 l 366 473 q 397 244 385 330 q 415 112 409 159 q 424 42 422 65 q 427 -1 427 18 z "},"¢":{"ha":782,"x_min":106,"x_max":676,"o":"m 676 32 q 624 15 673 29 q 476 0 574 0 l 476 -138 l 410 -138 l 410 3 q 247 60 315 14 q 142 181 179 106 q 106 350 106 256 q 144 516 106 442 q 250 637 182 590 q 410 697 319 685 l 410 839 l 476 839 l 476 703 q 575 694 528 703 q 676 668 623 686 l 676 464 l 610 464 q 596 551 600 526 q 590 581 591 576 q 589 587 589 586 q 584 603 587 595 q 574 614 581 611 q 539 628 559 623 q 476 635 519 634 l 476 66 q 547 77 520 68 q 574 86 574 86 q 584 97 580 90 q 590 109 588 104 l 608 241 l 676 241 l 676 32 m 410 71 l 410 631 q 334 590 374 623 q 267 500 294 558 q 239 354 239 441 q 289 159 239 231 q 410 71 340 87 z "},"£":{"ha":782,"x_min":60,"x_max":722,"o":"m 722 876 q 696 820 722 842 q 636 798 670 798 q 604 801 621 798 q 586 804 586 804 l 586 943 q 565 949 586 943 q 524 954 545 954 q 426 929 463 954 q 370 864 389 905 q 345 775 351 823 q 338 679 338 726 q 338 612 338 648 q 340 551 339 576 q 340 525 340 525 l 599 525 l 599 457 l 340 457 q 329 304 340 368 q 286 193 318 240 q 193 106 254 145 q 216 108 193 106 q 267 112 239 110 q 309 114 295 114 l 720 114 l 720 0 l 60 0 l 60 85 q 177 173 144 106 q 211 348 211 239 l 211 355 q 212 374 212 357 q 211 408 212 389 q 210 442 211 427 q 210 457 210 457 l 113 457 l 113 525 l 208 525 q 208 543 208 525 q 208 586 208 560 q 207 636 208 611 q 207 677 207 662 q 238 852 207 774 q 336 977 270 930 q 503 1023 401 1023 q 573 1015 535 1023 q 645 990 610 1007 q 701 944 679 972 q 722 876 722 916 z "},"¤":{"ha":842,"x_min":58,"x_max":783,"o":"m 783 285 l 734 236 l 595 376 q 515 334 559 349 q 422 318 471 318 q 249 376 322 318 l 109 236 l 58 286 l 200 427 q 156 508 172 463 q 139 602 139 553 q 155 694 139 650 q 197 774 170 739 l 58 913 l 109 961 l 245 822 q 422 884 322 884 q 515 868 471 884 q 596 823 559 852 l 734 961 l 783 913 l 646 774 q 704 602 704 701 q 643 425 704 500 l 783 285 m 635 602 q 606 709 635 661 q 530 785 578 757 q 422 814 481 814 q 315 785 363 814 q 237 709 266 757 q 208 602 208 661 q 237 494 208 543 q 315 416 266 446 q 422 387 363 387 q 530 416 481 387 q 606 494 578 446 q 635 602 635 543 z "},"¥":{"ha":828,"x_min":14,"x_max":814,"o":"m 814 873 l 736 856 l 587 593 l 783 593 l 783 532 l 553 532 l 472 390 l 783 390 l 783 329 l 473 329 l 473 96 q 482 78 473 89 q 510 65 491 66 l 590 58 l 590 0 l 228 0 l 228 58 l 310 65 q 337 78 329 66 q 345 96 345 89 l 345 329 l 45 329 l 45 390 l 342 390 l 267 532 l 45 532 l 45 593 l 233 593 l 96 857 l 14 873 l 14 932 l 325 932 l 325 873 l 265 864 q 246 844 246 861 q 249 833 246 840 l 432 475 l 633 832 q 637 843 637 837 q 615 863 637 859 l 549 873 l 549 932 l 814 932 l 814 873 z "},"¦":{"ha":694,"x_min":300,"x_max":395,"o":"m 395 457 l 300 457 l 300 972 l 395 972 l 395 457 m 395 -237 l 300 -237 l 300 278 l 395 278 l 395 -237 z "},"§":{"ha":694,"x_min":82,"x_max":612,"o":"m 612 452 q 588 353 612 397 q 525 276 564 308 q 444 227 487 243 q 546 154 505 199 q 587 43 587 110 q 554 -67 587 -20 q 463 -142 521 -115 q 329 -170 404 -170 q 199 -153 257 -170 q 115 -125 141 -136 l 115 57 l 184 57 q 190 29 188 38 q 193 12 191 20 q 197 -14 194 3 q 204 -68 199 -31 q 267 -95 229 -85 q 335 -104 304 -104 q 437 -74 396 -104 q 478 8 478 -43 q 450 78 478 49 q 376 131 421 106 q 280 180 331 155 q 184 237 229 205 q 111 314 139 269 q 82 424 82 359 q 104 526 82 486 q 163 594 126 567 q 245 642 201 621 q 145 715 184 673 q 107 819 107 758 q 174 969 107 914 q 376 1023 241 1023 q 493 1011 437 1023 q 570 990 549 1000 l 570 810 l 504 810 l 490 922 q 434 948 467 935 q 359 962 401 962 q 259 929 298 962 q 221 846 221 896 q 249 784 221 810 q 322 734 277 758 q 417 687 367 711 q 511 630 467 662 q 584 555 556 599 q 612 452 612 512 m 504 416 q 454 527 504 479 q 313 612 404 575 q 218 546 249 591 q 187 456 187 502 q 236 347 187 392 q 387 254 286 302 q 435 290 408 265 q 483 347 463 314 q 504 416 504 380 z "},"¨":{"ha":439,"x_min":0,"x_max":439,"o":"m 439 890 q 417 836 439 859 q 364 812 395 812 q 310 836 333 812 q 288 890 288 859 q 311 943 288 920 q 364 966 335 966 q 417 944 395 966 q 439 890 439 922 m 151 890 q 129 836 151 859 q 75 812 106 812 q 22 836 45 812 q 0 889 0 859 q 22 943 0 919 q 75 966 45 966 q 129 944 106 966 q 151 890 151 922 z "},"©":{"ha":1206,"x_min":83,"x_max":1122,"o":"m 1122 501 q 1082 299 1122 393 q 970 133 1042 205 q 805 21 899 61 q 603 -20 711 -20 q 401 21 495 -20 q 235 133 307 61 q 124 299 164 205 q 83 501 83 393 q 124 703 83 609 q 235 869 164 798 q 401 982 307 941 q 603 1022 495 1022 q 805 982 711 1022 q 970 869 899 941 q 1082 703 1042 798 q 1122 501 1122 609 m 1053 501 q 1018 676 1053 595 q 921 820 983 758 q 778 918 859 882 q 603 953 696 953 q 428 918 509 953 q 284 820 347 882 q 188 676 222 758 q 153 501 153 595 q 188 326 153 408 q 284 182 222 244 q 428 85 347 120 q 603 50 509 50 q 778 85 696 50 q 921 182 859 120 q 1018 326 983 244 q 1053 501 1053 408 m 873 401 q 840 287 868 339 q 754 204 811 235 q 607 174 697 174 q 500 188 552 174 q 405 239 448 203 q 338 338 363 275 q 313 498 313 401 q 340 671 313 597 q 431 787 368 745 q 596 829 493 829 q 733 810 680 829 q 815 760 786 791 q 857 691 845 728 q 868 618 868 654 l 757 618 q 716 718 757 682 q 587 754 676 754 q 510 728 547 754 q 450 645 473 701 q 427 498 427 588 q 477 312 427 364 q 608 260 528 260 q 697 283 664 260 q 745 340 730 307 q 762 401 760 374 l 873 401 z "},"ª":{"ha":473,"x_min":37,"x_max":452,"o":"m 452 532 l 318 532 l 306 581 q 283 566 306 581 q 225 537 260 551 q 154 522 190 522 q 72 552 106 522 q 37 635 37 581 q 46 678 37 658 q 82 716 55 698 q 163 751 109 734 q 306 786 216 768 l 306 822 q 222 904 306 904 q 181 900 199 904 q 157 893 164 895 l 157 821 l 92 821 q 69 825 79 821 q 58 844 58 829 q 86 901 58 880 q 158 933 115 923 q 245 943 201 943 q 359 908 330 943 q 389 818 389 873 l 389 585 q 407 567 389 570 l 452 564 l 452 532 m 306 610 l 306 754 q 186 717 224 736 q 137 680 148 699 q 126 640 126 661 q 144 593 126 614 q 195 571 162 571 q 245 581 219 571 q 288 600 271 590 q 306 610 306 610 m 447 422 l 43 422 l 43 464 l 447 464 l 447 422 z "},"«":{"ha":833,"x_min":140,"x_max":770,"o":"m 770 779 l 578 449 l 749 180 l 589 158 l 418 439 l 595 758 l 770 779 m 492 779 l 300 449 l 471 180 l 311 158 l 140 439 l 317 758 l 492 779 z "},"¬":{"ha":1157,"x_min":179,"x_max":978,"o":"m 978 262 l 895 262 l 895 500 l 179 500 l 179 583 l 978 583 l 978 262 z "},"­":{"ha":444,"x_min":61,"x_max":383,"o":"m 383 282 l 61 282 l 61 386 l 383 386 l 383 282 z "},"®":{"ha":1162,"x_min":47,"x_max":1116,"o":"m 1116 486 q 1074 278 1116 376 q 959 107 1032 181 q 788 -8 885 33 q 579 -50 690 -50 q 374 -8 470 -50 q 204 107 277 33 q 89 278 131 181 q 47 486 47 376 q 89 694 47 597 q 204 866 130 791 q 374 982 277 940 q 582 1023 471 1023 q 788 982 691 1023 q 958 866 884 940 q 1074 695 1031 792 q 1116 486 1116 597 m 1055 486 q 1018 673 1055 586 q 916 825 981 760 q 765 928 851 891 q 582 965 680 965 q 398 928 484 965 q 247 826 313 892 q 144 673 182 760 q 107 484 107 585 q 144 300 107 386 q 245 149 180 214 q 396 45 311 83 q 581 8 482 8 q 765 46 679 8 q 916 150 851 83 q 1018 302 981 216 q 1055 486 1055 389 m 926 197 q 894 194 920 197 q 846 191 867 191 q 753 211 785 191 q 706 262 721 231 q 682 329 691 294 q 658 396 673 365 q 611 448 643 428 q 518 468 580 468 q 488 467 503 468 q 472 467 474 467 l 472 260 q 477 248 472 254 q 493 240 483 241 l 546 236 l 546 197 l 300 197 l 300 236 l 353 240 q 369 248 363 241 q 374 260 374 254 l 374 743 q 369 755 374 749 q 353 762 363 762 l 300 766 l 300 806 l 558 806 q 737 770 672 806 q 802 644 802 734 q 779 567 802 597 q 719 520 755 537 q 639 493 682 503 q 721 457 694 481 q 758 405 747 434 q 774 346 768 375 q 793 291 781 316 q 836 250 805 265 q 926 235 866 235 l 926 197 m 693 640 q 653 730 693 698 q 519 762 613 762 l 472 762 l 472 513 q 493 512 474 513 q 524 511 513 511 q 650 539 606 511 q 693 640 693 568 z "},"¯":{"ha":465,"x_min":0,"x_max":465,"o":"m 465 812 l 0 812 l 0 901 l 465 901 l 465 812 z "},"°":{"ha":444,"x_min":54,"x_max":390,"o":"m 390 847 q 368 763 390 801 q 307 702 345 724 q 222 679 269 679 q 137 702 176 679 q 77 763 99 724 q 54 847 54 801 q 77 932 54 894 q 137 992 99 970 q 222 1015 176 1015 q 307 992 269 1015 q 368 932 345 970 q 390 847 390 894 m 309 847 q 283 908 309 883 q 222 933 258 933 q 162 908 187 933 q 136 847 136 883 q 162 786 136 812 q 222 761 187 761 q 283 786 258 761 q 309 847 309 812 z "},"±":{"ha":1157,"x_min":172,"x_max":985,"o":"m 985 488 l 619 488 l 619 254 l 539 254 l 539 488 l 172 488 l 172 567 l 539 567 l 539 800 l 619 800 l 619 567 l 985 567 l 985 488 m 985 28 l 172 28 l 172 107 l 985 107 l 985 28 z "},"¹":{"ha":543,"x_min":89,"x_max":424,"o":"m 424 416 l 118 416 l 118 464 l 207 464 q 226 481 226 464 l 226 901 l 89 879 l 89 918 l 278 974 l 321 974 l 321 481 q 328 468 321 475 q 342 461 334 461 l 424 461 l 424 416 z "},"²":{"ha":543,"x_min":60,"x_max":482,"o":"m 482 416 l 60 416 l 60 479 l 102 512 q 295 674 223 604 q 367 823 367 745 q 332 915 367 884 q 245 945 297 945 q 197 938 218 945 q 170 928 176 931 l 170 836 q 153 826 165 831 q 125 821 141 821 q 88 833 104 821 q 71 871 71 846 q 99 933 71 906 q 172 975 127 960 q 270 990 217 990 q 414 947 357 990 q 471 832 471 905 q 433 726 471 777 q 333 623 395 674 q 196 519 271 572 q 160 493 178 505 l 419 493 l 435 561 l 482 561 l 482 416 z "},"³":{"ha":543,"x_min":60,"x_max":482,"o":"m 482 575 q 450 486 482 524 q 365 426 418 448 q 246 404 311 404 q 107 437 155 404 q 60 500 60 470 q 73 531 60 517 q 113 546 85 546 q 128 545 118 546 q 143 541 138 544 l 169 472 q 249 454 205 454 q 347 492 311 454 q 382 575 382 530 q 362 637 382 614 q 313 670 342 660 q 253 680 283 680 q 221 678 236 680 q 199 675 206 676 l 199 734 q 222 733 207 733 q 320 760 280 733 q 360 840 360 787 q 328 913 360 887 q 249 939 295 939 q 200 932 222 939 q 167 918 178 925 l 167 843 q 154 835 164 840 q 127 830 144 830 q 93 840 111 830 q 75 878 75 850 q 102 935 75 909 q 175 975 130 960 q 274 990 220 990 q 405 953 352 990 q 458 850 458 916 q 423 766 458 803 q 321 712 388 730 q 396 695 359 711 q 458 651 433 680 q 482 575 482 621 z "},"´":{"ha":488,"x_min":165,"x_max":488,"o":"m 488 956 q 456 900 488 920 l 243 765 l 165 765 l 349 981 q 380 1008 364 998 q 424 1018 395 1018 q 474 997 460 1018 q 488 956 488 977 z "},"µ":{"ha":760,"x_min":81,"x_max":768,"o":"m 741 150 l 768 150 q 722 22 762 60 q 628 -17 682 -17 q 551 12 587 -17 q 505 118 516 40 q 400 16 446 50 q 298 -17 354 -17 q 266 -14 288 -17 q 218 3 243 -10 q 175 45 193 16 l 175 11 q 183 -78 175 -33 q 200 -162 192 -123 q 208 -229 208 -201 q 188 -286 208 -264 q 142 -309 168 -309 q 99 -287 118 -309 q 81 -232 81 -265 q 87 -174 81 -199 q 103 -113 94 -148 q 118 -19 111 -78 q 125 140 125 41 l 125 669 l 254 669 l 254 273 q 267 136 254 174 q 298 91 275 111 q 354 71 321 71 q 429 95 395 71 q 505 167 464 120 l 505 669 l 635 669 l 635 191 q 641 101 635 128 q 659 68 648 74 q 682 62 669 62 q 717 81 704 62 q 741 150 730 99 z "},"¶":{"ha":778,"x_min":83,"x_max":694,"o":"m 694 949 l 611 949 l 611 0 l 542 0 l 542 949 l 416 949 l 416 0 l 347 0 l 347 530 q 261 542 307 530 q 175 581 216 554 q 109 654 135 608 q 83 768 83 700 q 109 882 83 837 q 175 954 135 927 q 261 992 216 981 q 347 1003 307 1003 l 694 1003 l 694 949 z "},"·":{"ha":390,"x_min":102,"x_max":289,"o":"m 289 465 q 261 399 289 426 q 195 372 233 372 q 129 399 156 372 q 102 465 102 427 q 129 532 102 504 q 195 559 156 559 q 261 532 233 559 q 289 465 289 504 z "},"¸":{"ha":321,"x_min":57,"x_max":321,"o":"m 321 -180 q 275 -279 321 -245 q 160 -313 230 -313 q 90 -306 123 -313 q 57 -298 57 -298 l 57 -244 q 86 -250 57 -244 q 140 -256 115 -256 q 202 -243 174 -256 q 231 -199 231 -231 q 212 -160 231 -174 q 165 -147 193 -147 q 144 -151 155 -147 q 134 -155 134 -155 l 134 0 l 187 0 l 187 -87 q 201 -84 195 -86 q 220 -82 208 -82 q 291 -105 262 -82 q 321 -180 321 -127 z "},"º":{"ha":497,"x_min":33,"x_max":464,"o":"m 464 732 q 406 583 464 644 q 249 522 348 522 q 92 582 150 522 q 33 732 33 642 q 92 882 33 821 q 252 943 151 943 q 366 915 319 943 q 439 838 414 886 q 464 732 464 790 m 461 422 l 37 422 l 37 464 l 461 464 l 461 422 m 371 732 q 341 853 371 800 q 250 905 311 905 q 158 853 188 905 q 129 732 129 800 q 142 648 129 687 q 182 584 155 608 q 249 559 209 559 q 341 612 311 559 q 371 732 371 664 z "},"»":{"ha":833,"x_min":64,"x_max":693,"o":"m 693 498 l 517 179 l 342 158 l 533 489 l 363 757 l 522 779 l 693 498 m 415 498 l 239 179 l 64 158 l 256 489 l 85 757 l 244 779 l 415 498 z "},"¼":{"ha":1215,"x_min":66,"x_max":1149,"o":"m 1149 158 l 1046 158 l 1046 -29 l 968 -29 l 968 158 l 679 158 l 679 216 l 985 564 l 1046 564 l 1046 215 l 1149 215 l 1149 158 m 958 970 l 343 0 l 254 0 l 871 970 l 958 970 m 401 410 l 96 410 l 96 447 l 187 450 q 207 468 207 452 l 207 908 l 66 886 l 66 924 l 262 979 l 296 979 l 296 468 q 302 456 296 461 q 317 450 309 452 l 401 447 l 401 410 m 968 215 l 968 467 l 751 215 l 968 215 z "},"½":{"ha":1215,"x_min":64,"x_max":1153,"o":"m 1153 0 l 729 0 l 729 56 l 747 69 q 899 190 834 136 q 1000 296 964 245 q 1036 403 1036 347 q 1003 493 1036 463 q 918 524 970 524 q 871 517 890 524 q 846 507 852 510 q 846 506 846 507 q 844 505 845 505 l 844 414 q 833 407 844 414 q 800 400 821 400 q 763 412 779 400 q 746 449 746 424 q 773 511 746 484 q 845 554 800 538 q 942 570 889 570 q 1081 526 1029 570 q 1132 410 1132 483 q 1089 295 1132 351 q 977 185 1046 240 q 825 71 907 130 l 1092 71 l 1107 143 l 1153 143 l 1153 0 m 949 970 l 332 0 l 244 0 l 861 970 l 949 970 m 399 410 l 93 410 l 93 447 l 184 450 q 204 468 204 452 l 204 908 l 64 886 l 64 924 l 260 979 l 293 979 l 293 468 q 314 450 293 453 l 399 447 l 399 410 z "},"¾":{"ha":1215,"x_min":53,"x_max":1164,"o":"m 1164 158 l 1061 158 l 1061 -29 l 983 -29 l 983 158 l 694 158 l 694 216 l 1000 564 l 1061 564 l 1061 215 l 1164 215 l 1164 158 m 465 572 q 435 483 465 522 q 352 424 404 445 q 235 403 300 403 q 98 434 143 403 q 53 496 53 466 q 66 528 53 513 q 106 543 79 543 q 121 542 111 543 q 136 536 131 540 l 164 463 q 199 449 182 454 q 237 444 216 444 q 337 483 300 444 q 374 572 374 522 q 353 635 374 613 q 303 666 333 657 q 243 675 273 675 q 205 673 219 675 q 192 672 192 672 l 192 724 l 215 724 q 312 749 273 724 q 351 829 351 774 q 317 908 351 882 q 237 935 283 935 q 181 925 201 935 q 160 916 160 916 l 160 832 q 147 826 157 831 q 119 821 136 821 q 85 831 104 821 q 66 868 66 841 q 123 948 66 916 q 261 981 180 981 q 391 943 340 981 q 443 839 443 905 q 407 758 443 792 q 304 705 371 723 q 379 690 342 704 q 441 647 416 676 q 465 572 465 618 m 974 970 l 357 0 l 269 0 l 886 970 l 974 970 m 983 215 l 983 467 l 766 215 l 983 215 z "},"¿":{"ha":675,"x_min":96,"x_max":606,"o":"m 482 729 q 457 669 482 694 q 397 644 433 644 q 336 670 361 644 q 311 730 311 695 q 337 791 311 766 q 397 815 362 815 q 457 790 433 815 q 482 729 482 765 m 606 -20 q 582 -83 606 -52 q 509 -135 558 -115 q 385 -156 460 -156 q 238 -125 303 -156 q 134 -39 172 -94 q 96 93 96 17 q 121 208 96 159 q 188 292 147 257 q 274 352 228 328 q 359 394 319 376 l 359 550 l 437 550 l 437 349 q 347 303 394 334 q 268 222 300 271 q 236 104 236 173 q 288 -39 236 7 q 435 -86 340 -86 l 492 54 q 503 56 492 54 q 515 57 513 57 q 579 39 553 57 q 606 -20 606 20 z "},"À":{"ha":936,"x_min":7,"x_max":929,"o":"m 528 1034 l 450 1034 l 239 1168 q 215 1191 224 1177 q 205 1223 205 1204 q 220 1265 205 1244 q 271 1286 235 1286 q 314 1276 299 1286 q 343 1249 328 1266 l 528 1034 m 929 0 l 599 0 l 599 60 l 679 66 q 689 74 684 66 q 694 87 694 81 q 693 90 694 90 l 597 345 l 277 345 l 184 94 q 184 90 184 93 q 191 74 184 82 q 204 66 198 66 l 286 60 l 286 0 l 7 0 l 7 60 l 87 77 l 411 954 l 515 954 l 838 97 q 847 78 843 83 q 867 71 851 73 l 929 60 l 929 0 m 572 411 l 436 775 l 301 411 l 572 411 z "},"Á":{"ha":936,"x_min":7,"x_max":929,"o":"m 697 1223 q 665 1168 697 1189 l 456 1034 l 376 1034 l 561 1249 q 591 1276 576 1266 q 635 1286 607 1286 q 684 1265 671 1286 q 697 1223 697 1244 m 929 0 l 599 0 l 599 60 l 679 66 q 689 74 684 66 q 694 87 694 81 q 693 90 694 90 l 597 345 l 277 345 l 184 94 q 184 90 184 93 q 191 74 184 82 q 204 66 198 66 l 286 60 l 286 0 l 7 0 l 7 60 l 87 77 l 411 954 l 515 954 l 838 97 q 847 78 843 83 q 867 71 851 73 l 929 60 l 929 0 m 572 411 l 436 775 l 301 411 l 572 411 z "},"Â":{"ha":936,"x_min":7,"x_max":929,"o":"m 673 1034 l 590 1034 l 447 1173 l 302 1034 l 220 1034 l 395 1270 l 498 1270 l 673 1034 m 929 0 l 599 0 l 599 60 l 679 66 q 689 74 684 66 q 694 87 694 81 q 693 90 694 90 l 597 345 l 277 345 l 184 94 q 184 90 184 93 q 191 74 184 82 q 204 66 198 66 l 286 60 l 286 0 l 7 0 l 7 60 l 87 77 l 411 954 l 515 954 l 838 97 q 847 78 843 83 q 867 71 851 73 l 929 60 l 929 0 m 572 411 l 436 775 l 301 411 l 572 411 z "},"Ã":{"ha":936,"x_min":7,"x_max":929,"o":"m 697 1229 q 643 1122 682 1168 q 536 1076 604 1076 q 474 1093 500 1076 q 419 1126 448 1109 q 345 1143 390 1143 q 295 1122 317 1143 q 271 1076 274 1101 l 215 1076 q 270 1183 231 1138 q 376 1229 309 1229 q 440 1212 414 1229 q 496 1179 467 1196 q 570 1162 525 1162 q 618 1183 597 1162 q 642 1229 639 1204 l 697 1229 m 929 0 l 599 0 l 599 60 l 679 66 q 689 74 684 66 q 694 87 694 81 q 693 90 694 90 l 597 345 l 277 345 l 184 94 q 184 90 184 93 q 191 74 184 82 q 204 66 198 66 l 286 60 l 286 0 l 7 0 l 7 60 l 87 77 l 411 954 l 515 954 l 838 97 q 847 78 843 83 q 867 71 851 73 l 929 60 l 929 0 m 572 411 l 436 775 l 301 411 l 572 411 z "},"Ä":{"ha":936,"x_min":7,"x_max":929,"o":"m 673 1154 q 651 1100 673 1123 q 597 1076 629 1076 q 544 1100 566 1076 q 521 1154 521 1123 q 545 1207 521 1183 q 597 1231 568 1231 q 651 1208 629 1231 q 673 1154 673 1185 m 386 1154 q 363 1100 386 1123 q 310 1076 341 1076 q 256 1099 279 1076 q 233 1153 233 1122 q 256 1207 233 1183 q 310 1231 279 1231 q 363 1208 341 1231 q 386 1154 386 1185 m 929 0 l 599 0 l 599 60 l 679 66 q 689 74 684 66 q 694 87 694 81 q 693 90 694 90 l 597 345 l 277 345 l 184 94 q 184 90 184 93 q 191 74 184 82 q 204 66 198 66 l 286 60 l 286 0 l 7 0 l 7 60 l 87 77 l 411 954 l 515 954 l 838 97 q 847 78 843 83 q 867 71 851 73 l 929 60 l 929 0 m 572 411 l 436 775 l 301 411 l 572 411 z "},"Å":{"ha":936,"x_min":7,"x_max":929,"o":"m 628 1207 q 605 1120 628 1159 q 542 1057 581 1080 q 454 1034 503 1034 q 367 1057 406 1034 q 305 1120 328 1080 q 282 1207 282 1159 q 305 1294 282 1255 q 367 1356 328 1333 q 454 1379 406 1379 q 542 1356 503 1379 q 605 1294 581 1333 q 628 1207 628 1255 m 929 0 l 599 0 l 599 60 l 679 66 q 689 74 684 66 q 694 87 694 81 q 693 90 694 90 l 597 345 l 277 345 l 184 94 q 184 90 184 93 q 191 74 184 82 q 204 66 198 66 l 286 60 l 286 0 l 7 0 l 7 60 l 87 77 l 411 954 l 515 954 l 838 97 q 847 78 843 83 q 867 71 851 73 l 929 60 l 929 0 m 545 1207 q 518 1271 545 1244 q 454 1297 492 1297 q 391 1271 417 1297 q 364 1207 364 1244 q 391 1143 364 1170 q 454 1117 417 1117 q 518 1143 492 1117 q 545 1207 545 1170 m 572 411 l 436 775 l 301 411 l 572 411 z "},"Æ":{"ha":1296,"x_min":7,"x_max":1251,"o":"m 1251 0 l 564 0 l 564 60 l 632 65 q 657 77 647 66 q 668 96 668 87 l 668 347 l 347 347 l 192 96 q 187 82 187 89 q 201 66 187 68 l 281 60 l 281 0 l 7 0 l 7 60 l 81 71 l 553 838 q 555 846 555 842 q 548 860 555 854 q 533 867 541 866 l 465 873 l 465 932 l 1202 932 l 1202 725 l 1121 725 l 1101 839 q 1093 857 1099 849 q 1078 865 1087 865 l 808 865 l 808 518 l 983 518 q 1000 527 993 518 q 1008 543 1008 536 l 1021 639 l 1089 639 l 1089 329 l 1021 329 l 1008 427 q 1000 442 1008 434 q 983 450 991 450 l 808 450 l 808 68 l 1126 68 q 1143 78 1135 68 q 1152 94 1151 87 l 1173 232 l 1251 232 l 1251 0 m 668 415 l 668 868 l 386 415 l 668 415 z "},"Ç":{"ha":871,"x_min":54,"x_max":817,"o":"m 817 257 l 817 32 q 775 17 813 31 q 679 -9 738 4 q 550 -22 619 -22 l 550 -87 q 564 -84 557 -86 q 582 -82 571 -82 q 654 -105 624 -82 q 684 -180 684 -127 q 637 -279 684 -245 q 521 -313 591 -313 q 451 -306 484 -313 q 418 -298 418 -298 l 418 -244 q 447 -250 418 -244 q 503 -256 477 -256 q 564 -243 536 -256 q 591 -199 591 -231 q 572 -160 591 -174 q 526 -147 553 -147 q 505 -151 516 -147 q 494 -155 494 -155 l 494 -21 q 306 30 388 -13 q 168 140 224 73 q 83 293 112 208 q 54 468 54 377 q 115 721 54 612 q 286 892 176 831 q 541 954 395 954 q 670 940 608 954 q 817 900 732 926 l 817 682 l 733 682 l 713 808 q 704 828 712 818 q 689 840 695 838 l 684 843 q 631 864 666 851 q 547 876 595 876 q 377 831 453 876 q 258 695 302 785 q 214 472 214 606 q 256 249 214 343 q 377 105 298 155 q 566 54 456 54 q 645 66 614 54 q 677 78 675 77 q 704 106 699 86 l 736 257 l 817 257 z "},"È":{"ha":810,"x_min":45,"x_max":765,"o":"m 510 1034 l 431 1034 l 220 1168 q 187 1225 187 1189 q 201 1266 187 1246 q 252 1286 215 1286 q 294 1276 279 1286 q 323 1249 308 1266 l 510 1034 m 765 0 l 45 0 l 45 60 l 117 65 q 139 76 132 66 q 147 96 147 85 l 147 836 q 139 856 147 846 q 117 867 132 866 l 45 872 l 45 932 l 720 932 l 720 725 l 636 725 l 615 839 q 607 857 614 849 q 590 865 600 865 l 289 865 l 289 519 l 497 519 q 514 528 507 519 q 522 543 522 536 l 536 639 l 607 639 l 607 329 l 536 329 l 522 425 q 514 441 522 433 q 497 450 506 450 l 289 450 l 289 68 l 640 68 q 657 78 649 68 q 665 94 665 87 l 690 232 l 765 232 l 765 0 z "},"É":{"ha":810,"x_min":45,"x_max":765,"o":"m 765 0 l 45 0 l 45 60 l 117 65 q 139 76 132 66 q 147 96 147 85 l 147 836 q 139 856 147 846 q 117 867 132 866 l 45 872 l 45 932 l 720 932 l 720 725 l 636 725 l 615 839 q 607 857 614 849 q 590 865 600 865 l 289 865 l 289 519 l 497 519 q 514 528 507 519 q 522 543 522 536 l 536 639 l 607 639 l 607 329 l 536 329 l 522 425 q 514 441 522 433 q 497 450 506 450 l 289 450 l 289 68 l 640 68 q 657 78 649 68 q 665 94 665 87 l 690 232 l 765 232 l 765 0 m 652 1225 q 619 1168 652 1189 l 408 1034 l 329 1034 l 515 1249 q 545 1276 531 1266 q 587 1286 559 1286 q 638 1266 624 1286 q 652 1225 652 1246 z "},"Ê":{"ha":810,"x_min":45,"x_max":765,"o":"m 642 1034 l 558 1034 l 415 1173 l 272 1034 l 191 1034 l 366 1270 l 468 1270 l 642 1034 m 765 0 l 45 0 l 45 60 l 117 65 q 139 76 132 66 q 147 96 147 85 l 147 836 q 139 856 147 846 q 117 867 132 866 l 45 872 l 45 932 l 720 932 l 720 725 l 636 725 l 615 839 q 607 857 614 849 q 590 865 600 865 l 289 865 l 289 519 l 497 519 q 514 528 507 519 q 522 543 522 536 l 536 639 l 607 639 l 607 329 l 536 329 l 522 425 q 514 441 522 433 q 497 450 506 450 l 289 450 l 289 68 l 640 68 q 657 78 649 68 q 665 94 665 87 l 690 232 l 765 232 l 765 0 z "},"Ë":{"ha":810,"x_min":45,"x_max":765,"o":"m 644 1154 q 623 1100 644 1123 q 571 1076 602 1076 q 516 1100 540 1076 q 493 1154 493 1123 q 517 1207 493 1183 q 571 1231 542 1231 q 623 1208 602 1231 q 644 1154 644 1185 m 357 1154 q 335 1100 357 1123 q 282 1076 313 1076 q 229 1099 252 1076 q 205 1153 205 1122 q 229 1207 205 1183 q 282 1231 252 1231 q 335 1208 313 1231 q 357 1154 357 1185 m 765 0 l 45 0 l 45 60 l 117 65 q 139 76 132 66 q 147 96 147 85 l 147 836 q 139 856 147 846 q 117 867 132 866 l 45 872 l 45 932 l 720 932 l 720 725 l 636 725 l 615 839 q 607 857 614 849 q 590 865 600 865 l 289 865 l 289 519 l 497 519 q 514 528 507 519 q 522 543 522 536 l 536 639 l 607 639 l 607 329 l 536 329 l 522 425 q 514 441 522 433 q 497 450 506 450 l 289 450 l 289 68 l 640 68 q 657 78 649 68 q 665 94 665 87 l 690 232 l 765 232 l 765 0 z "},"Ì":{"ha":458,"x_min":-1,"x_max":412,"o":"m 321 1034 l 241 1034 l 31 1168 q -1 1225 -1 1189 q 12 1266 -1 1246 q 62 1286 26 1286 q 105 1276 90 1286 q 135 1249 120 1266 l 321 1034 m 412 0 l 46 0 l 46 60 l 129 65 q 151 76 144 66 q 158 96 158 85 l 158 836 q 151 856 158 846 q 129 865 144 865 l 46 871 l 46 932 l 412 932 l 412 871 l 328 865 q 306 856 313 865 q 298 836 298 846 l 298 96 q 306 76 298 85 q 328 65 313 66 l 412 60 l 412 0 z "},"Í":{"ha":458,"x_min":46,"x_max":449,"o":"m 449 1225 q 416 1168 449 1189 l 205 1034 l 126 1034 l 313 1249 q 342 1276 328 1266 q 385 1286 357 1286 q 435 1266 421 1286 q 449 1225 449 1246 m 412 0 l 46 0 l 46 60 l 129 65 q 151 76 144 66 q 158 96 158 85 l 158 836 q 151 856 158 846 q 129 865 144 865 l 46 871 l 46 932 l 412 932 l 412 871 l 328 865 q 306 856 313 865 q 298 836 298 846 l 298 96 q 306 76 298 85 q 328 65 313 66 l 412 60 l 412 0 z "},"Î":{"ha":458,"x_min":1,"x_max":457,"o":"m 457 1034 l 374 1034 l 231 1173 l 87 1034 l 1 1034 l 176 1270 l 283 1270 l 457 1034 m 412 0 l 46 0 l 46 60 l 129 65 q 151 76 144 66 q 158 96 158 85 l 158 836 q 151 856 158 846 q 129 865 144 865 l 46 871 l 46 932 l 412 932 l 412 871 l 328 865 q 306 856 313 865 q 298 836 298 846 l 298 96 q 306 76 298 85 q 328 65 313 66 l 412 60 l 412 0 z "},"Ï":{"ha":458,"x_min":9,"x_max":449,"o":"m 449 1154 q 427 1100 449 1123 q 374 1076 405 1076 q 320 1100 342 1076 q 297 1154 297 1123 q 320 1207 297 1183 q 372 1231 343 1231 q 426 1208 404 1231 q 449 1154 449 1185 m 161 1154 q 139 1100 161 1123 q 85 1076 116 1076 q 32 1099 55 1076 q 9 1153 9 1122 q 32 1207 9 1183 q 85 1231 55 1231 q 139 1208 116 1231 q 161 1154 161 1185 m 412 0 l 46 0 l 46 60 l 129 65 q 151 76 144 66 q 158 96 158 85 l 158 836 q 151 856 158 846 q 129 865 144 865 l 46 871 l 46 932 l 412 932 l 412 871 l 328 865 q 306 856 313 865 q 298 836 298 846 l 298 96 q 306 76 298 85 q 328 65 313 66 l 412 60 l 412 0 z "},"Ð":{"ha":966,"x_min":21,"x_max":913,"o":"m 913 465 q 859 228 913 334 q 699 61 806 123 q 432 0 592 0 l 45 0 l 45 60 l 118 65 q 139 77 132 66 q 147 96 147 87 l 147 453 l 21 453 l 21 524 l 147 524 l 147 836 q 138 856 147 846 q 118 865 129 865 l 45 872 l 45 932 l 401 932 q 601 906 508 932 q 763 824 693 880 q 873 679 833 768 q 913 465 913 591 m 755 465 q 661 771 755 676 q 395 865 567 865 l 288 865 l 288 524 l 510 524 l 510 453 l 288 453 l 288 66 l 396 66 q 662 164 569 66 q 755 465 755 262 z "},"Ñ":{"ha":1002,"x_min":35,"x_max":961,"o":"m 755 1229 q 702 1122 740 1168 q 596 1076 664 1076 q 533 1093 559 1076 q 477 1126 506 1109 q 403 1143 448 1143 q 354 1122 375 1143 q 330 1076 334 1101 l 275 1076 q 329 1183 291 1138 q 435 1229 367 1229 q 498 1212 472 1229 q 554 1179 525 1196 q 628 1162 583 1162 q 676 1183 656 1162 q 700 1229 697 1204 l 755 1229 m 961 872 l 884 867 q 862 856 869 866 q 854 836 854 846 l 854 0 l 746 0 l 229 778 l 229 96 q 236 76 229 85 q 258 65 243 66 l 338 60 l 338 0 l 37 0 l 37 60 l 117 65 q 139 76 132 66 q 147 96 147 85 l 147 836 q 139 856 147 846 q 117 867 132 866 l 35 872 l 35 932 l 310 932 l 310 897 l 772 199 l 772 836 q 765 856 772 846 q 743 867 758 866 l 664 872 l 664 932 l 961 932 l 961 872 z "},"Ò":{"ha":1015,"x_min":54,"x_max":961,"o":"m 581 1034 l 501 1034 l 290 1168 q 258 1225 258 1189 q 272 1266 258 1246 q 322 1286 286 1286 q 365 1276 350 1286 q 395 1249 380 1266 l 581 1034 m 961 465 q 929 276 961 364 q 837 121 897 188 q 694 16 777 54 q 509 -22 610 -22 q 270 42 372 -22 q 111 216 168 106 q 54 467 54 327 q 86 656 54 568 q 177 812 117 745 q 320 917 237 879 q 507 954 404 954 q 694 916 610 954 q 837 811 777 878 q 929 655 897 743 q 961 465 961 566 m 800 464 q 768 670 800 577 q 670 819 735 764 q 509 875 606 875 q 343 819 408 875 q 245 670 277 763 q 214 467 214 577 q 245 261 214 355 q 342 111 277 168 q 505 54 407 54 q 671 111 606 54 q 768 261 736 168 q 800 464 800 354 z "},"Ó":{"ha":1015,"x_min":54,"x_max":961,"o":"m 750 1225 q 718 1168 750 1187 l 507 1034 l 428 1034 l 614 1249 q 643 1276 629 1266 q 686 1286 658 1286 q 736 1266 722 1286 q 750 1225 750 1246 m 961 465 q 929 276 961 364 q 837 121 897 188 q 694 16 777 54 q 509 -22 610 -22 q 270 42 372 -22 q 111 216 168 106 q 54 467 54 327 q 86 656 54 568 q 177 812 117 745 q 320 917 237 879 q 507 954 404 954 q 694 916 610 954 q 837 811 777 878 q 929 655 897 743 q 961 465 961 566 m 800 464 q 768 670 800 577 q 670 819 735 764 q 509 875 606 875 q 343 819 408 875 q 245 670 277 763 q 214 467 214 577 q 245 261 214 355 q 342 111 277 168 q 505 54 407 54 q 671 111 606 54 q 768 261 736 168 q 800 464 800 354 z "},"Ô":{"ha":1015,"x_min":54,"x_max":961,"o":"m 733 1034 l 650 1034 l 507 1173 l 364 1034 l 281 1034 l 454 1270 l 558 1270 l 733 1034 m 961 465 q 929 276 961 364 q 837 121 897 188 q 694 16 777 54 q 509 -22 610 -22 q 270 42 372 -22 q 111 216 168 106 q 54 467 54 327 q 86 656 54 568 q 177 812 117 745 q 320 917 237 879 q 507 954 404 954 q 694 916 610 954 q 837 811 777 878 q 929 655 897 743 q 961 465 961 566 m 800 464 q 768 670 800 577 q 670 819 735 764 q 509 875 606 875 q 343 819 408 875 q 245 670 277 763 q 214 467 214 577 q 245 261 214 355 q 342 111 277 168 q 505 54 407 54 q 671 111 606 54 q 768 261 736 168 q 800 464 800 354 z "},"Õ":{"ha":1015,"x_min":54,"x_max":961,"o":"m 746 1229 q 691 1122 730 1168 q 585 1076 652 1076 q 522 1093 548 1076 q 466 1126 495 1109 q 392 1143 437 1143 q 343 1122 363 1143 q 319 1076 323 1101 l 264 1076 q 318 1183 279 1138 q 425 1229 357 1229 q 488 1212 462 1229 q 543 1179 514 1196 q 616 1162 572 1162 q 666 1183 645 1162 q 690 1229 688 1204 l 746 1229 m 961 465 q 929 276 961 364 q 837 121 897 188 q 694 16 777 54 q 509 -22 610 -22 q 270 42 372 -22 q 111 216 168 106 q 54 467 54 327 q 86 656 54 568 q 177 812 117 745 q 320 917 237 879 q 507 954 404 954 q 694 916 610 954 q 837 811 777 878 q 929 655 897 743 q 961 465 961 566 m 800 464 q 768 670 800 577 q 670 819 735 764 q 509 875 606 875 q 343 819 408 875 q 245 670 277 763 q 214 467 214 577 q 245 261 214 355 q 342 111 277 168 q 505 54 407 54 q 671 111 606 54 q 768 261 736 168 q 800 464 800 354 z "},"Ö":{"ha":1017,"x_min":54,"x_max":961,"o":"m 725 1154 q 703 1100 725 1123 q 650 1076 682 1076 q 596 1100 618 1076 q 574 1154 574 1123 q 596 1207 574 1183 q 648 1231 619 1231 q 703 1208 680 1231 q 725 1154 725 1185 m 437 1154 q 415 1100 437 1123 q 361 1076 393 1076 q 309 1099 331 1076 q 286 1153 286 1122 q 309 1207 286 1183 q 361 1231 331 1231 q 415 1208 393 1231 q 437 1154 437 1185 m 961 465 q 929 276 961 364 q 837 121 897 188 q 694 16 777 54 q 509 -22 610 -22 q 270 42 372 -22 q 111 216 168 106 q 54 467 54 327 q 86 656 54 568 q 177 812 117 745 q 320 917 237 879 q 507 954 404 954 q 694 916 610 954 q 837 811 777 878 q 929 655 897 743 q 961 465 961 566 m 800 464 q 768 670 800 577 q 670 819 735 764 q 509 875 606 875 q 343 819 408 875 q 245 670 277 763 q 214 467 214 577 q 245 261 214 355 q 342 111 277 168 q 505 54 407 54 q 671 111 606 54 q 768 261 736 168 q 800 464 800 354 z "},"×":{"ha":815,"x_min":104,"x_max":721,"o":"m 721 210 l 618 107 l 412 307 l 208 106 l 104 210 l 309 411 l 106 618 l 208 721 l 411 514 l 614 720 l 718 615 l 515 410 l 721 210 z "},"Ø":{"ha":1015,"x_min":54,"x_max":961,"o":"m 961 465 q 929 276 961 364 q 837 121 897 188 q 694 16 777 54 q 509 -22 610 -22 q 285 33 383 -22 q 242 -39 263 -3 q 199 -110 220 -74 l 135 -71 l 222 77 q 99 244 143 142 q 54 467 54 345 q 86 656 54 568 q 177 812 117 745 q 320 917 237 879 q 507 954 404 954 q 618 941 566 954 q 715 905 671 928 l 794 1039 l 860 1000 q 822 936 842 970 q 779 865 801 902 q 913 694 866 799 q 961 465 961 589 m 800 464 q 781 631 800 553 q 721 765 761 709 q 538 458 637 625 q 336 118 439 292 q 412 71 370 88 q 505 54 454 54 q 671 111 606 54 q 768 261 736 168 q 800 464 800 354 m 665 822 q 509 875 601 875 q 343 819 408 875 q 245 670 277 763 q 214 467 214 577 q 232 311 214 385 q 285 180 250 237 l 665 822 z "},"Ù":{"ha":989,"x_min":43,"x_max":951,"o":"m 587 1034 l 509 1034 l 297 1168 q 274 1192 283 1177 q 265 1225 265 1206 q 279 1266 265 1246 q 329 1286 293 1286 q 372 1276 357 1286 q 401 1249 387 1266 l 587 1034 m 951 872 l 871 867 q 849 856 856 866 q 842 836 842 846 l 842 309 q 750 58 842 138 q 485 -22 659 -22 q 230 61 313 -22 q 146 309 146 145 l 146 836 q 139 856 146 846 q 117 867 132 866 l 43 872 l 43 932 l 396 932 l 396 872 l 317 867 q 295 856 302 866 q 288 836 288 846 l 288 345 q 306 201 288 263 q 375 105 324 140 q 522 71 426 71 q 670 107 618 71 q 740 205 721 143 q 760 345 760 268 l 760 836 q 752 856 760 846 q 729 867 744 866 l 650 872 l 650 932 l 951 932 l 951 872 z "},"Ú":{"ha":989,"x_min":43,"x_max":951,"o":"m 755 1225 q 724 1168 755 1189 l 513 1034 l 433 1034 l 618 1249 q 648 1276 633 1266 q 692 1286 664 1286 q 742 1266 728 1286 q 755 1225 755 1246 m 951 872 l 871 867 q 849 856 856 866 q 842 836 842 846 l 842 309 q 750 58 842 138 q 485 -22 659 -22 q 230 61 313 -22 q 146 309 146 145 l 146 836 q 139 856 146 846 q 117 867 132 866 l 43 872 l 43 932 l 396 932 l 396 872 l 317 867 q 295 856 302 866 q 288 836 288 846 l 288 345 q 306 201 288 263 q 375 105 324 140 q 522 71 426 71 q 670 107 618 71 q 740 205 721 143 q 760 345 760 268 l 760 836 q 752 856 760 846 q 729 867 744 866 l 650 872 l 650 932 l 951 932 l 951 872 z "},"Û":{"ha":989,"x_min":43,"x_max":951,"o":"m 739 1034 l 656 1034 l 511 1173 l 368 1034 l 285 1034 l 460 1270 l 564 1270 l 739 1034 m 951 872 l 871 867 q 849 856 856 866 q 842 836 842 846 l 842 309 q 750 58 842 138 q 485 -22 659 -22 q 230 61 313 -22 q 146 309 146 145 l 146 836 q 139 856 146 846 q 117 867 132 866 l 43 872 l 43 932 l 396 932 l 396 872 l 317 867 q 295 856 302 866 q 288 836 288 846 l 288 345 q 306 201 288 263 q 375 105 324 140 q 522 71 426 71 q 670 107 618 71 q 740 205 721 143 q 760 345 760 268 l 760 836 q 752 856 760 846 q 729 867 744 866 l 650 872 l 650 932 l 951 932 l 951 872 z "},"Ü":{"ha":989,"x_min":43,"x_max":951,"o":"m 736 1154 q 714 1100 736 1123 q 661 1076 692 1076 q 607 1100 630 1076 q 585 1154 585 1123 q 608 1207 585 1183 q 660 1231 631 1231 q 713 1208 691 1231 q 736 1154 736 1185 m 449 1154 q 426 1100 449 1123 q 372 1076 404 1076 q 319 1099 342 1076 q 297 1153 297 1122 q 319 1207 297 1183 q 372 1231 342 1231 q 426 1208 404 1231 q 449 1154 449 1185 m 951 872 l 871 867 q 849 856 856 866 q 842 836 842 846 l 842 309 q 750 58 842 138 q 485 -22 659 -22 q 230 61 313 -22 q 146 309 146 145 l 146 836 q 139 856 146 846 q 117 867 132 866 l 43 872 l 43 932 l 396 932 l 396 872 l 317 867 q 295 856 302 866 q 288 836 288 846 l 288 345 q 306 201 288 263 q 375 105 324 140 q 522 71 426 71 q 670 107 618 71 q 740 205 721 143 q 760 345 760 268 l 760 836 q 752 856 760 846 q 729 867 744 866 l 650 872 l 650 932 l 951 932 l 951 872 z "},"Ý":{"ha":868,"x_min":14,"x_max":856,"o":"m 661 1225 q 629 1168 661 1187 l 418 1034 l 339 1034 l 524 1249 q 554 1276 538 1266 q 597 1286 569 1286 q 647 1266 633 1286 q 661 1225 661 1246 m 856 872 l 781 859 l 501 396 l 501 96 q 509 76 501 85 q 530 65 516 66 l 619 60 l 619 0 l 244 0 l 244 60 l 330 65 q 353 76 345 66 q 361 96 361 85 l 361 375 l 94 856 l 14 872 l 14 932 l 343 932 l 343 872 l 273 865 q 254 849 254 863 q 257 838 254 842 l 453 475 l 668 833 q 671 843 671 838 q 652 863 671 860 l 574 872 l 574 932 l 856 932 l 856 872 z "},"Þ":{"ha":803,"x_min":45,"x_max":749,"o":"m 749 481 q 703 319 749 385 q 576 218 657 252 q 390 183 496 183 l 386 183 q 344 185 367 183 q 304 189 321 187 q 288 191 288 191 l 288 96 q 296 75 288 83 q 318 65 305 66 l 399 60 l 399 0 l 45 0 l 45 60 l 115 65 q 137 75 128 66 q 146 96 146 83 l 146 836 q 137 857 146 848 q 115 867 128 866 l 45 872 l 45 932 l 399 932 l 399 872 l 318 867 q 296 857 305 866 q 288 836 288 848 l 288 757 l 382 757 q 660 691 572 754 q 749 481 749 627 m 590 481 q 543 636 590 581 q 374 692 496 692 q 363 692 369 692 q 353 692 358 692 q 345 692 352 692 q 310 691 332 692 q 288 689 288 689 l 288 260 q 302 258 288 260 q 336 256 317 257 q 368 254 355 254 l 372 254 q 536 309 481 254 q 590 481 590 364 z "},"ß":{"ha":872,"x_min":31,"x_max":825,"o":"m 825 207 q 792 89 825 139 q 705 11 760 38 q 583 -17 650 -17 q 513 -8 551 -17 q 447 9 475 1 q 419 18 419 18 l 419 204 l 494 204 l 507 83 q 540 61 519 73 q 590 49 561 49 q 674 85 642 49 q 707 167 707 121 q 677 244 707 213 q 603 300 647 275 q 514 352 558 326 q 439 414 469 378 q 410 503 410 449 q 458 628 410 578 q 578 693 506 677 q 581 710 578 693 q 587 751 584 728 q 590 793 590 774 q 556 905 590 855 q 450 954 522 954 q 347 920 386 954 q 288 836 308 886 q 261 732 268 785 q 254 643 254 680 l 254 92 q 261 68 254 76 q 275 58 268 60 l 346 53 l 346 0 l 31 0 l 31 53 l 97 60 q 117 72 110 61 q 125 92 125 83 l 125 629 q 145 771 125 701 q 208 898 165 841 q 317 989 251 955 q 475 1023 383 1023 q 656 961 595 1023 q 718 793 718 898 q 712 727 718 759 q 701 674 707 695 q 694 648 695 652 q 686 650 692 648 q 664 652 679 652 q 564 620 593 652 q 534 546 534 588 q 564 477 534 505 q 637 425 593 449 q 723 374 680 401 q 796 307 766 346 q 825 207 825 267 z "},"à":{"ha":707,"x_min":47,"x_max":684,"o":"m 684 0 l 478 0 l 460 82 q 439 67 460 82 q 385 33 418 52 q 310 -2 351 13 q 228 -17 269 -17 q 100 33 153 -17 q 47 171 47 83 q 61 243 47 210 q 117 306 75 276 q 241 365 159 336 q 460 424 323 394 l 460 484 q 330 621 460 621 q 268 614 294 621 q 232 603 242 607 l 232 482 l 131 482 q 96 489 112 482 q 79 522 79 496 q 123 615 79 579 q 233 669 166 652 q 368 686 300 686 q 502 660 454 686 q 568 586 549 633 q 587 478 587 538 l 587 89 q 596 68 587 76 q 616 58 604 60 l 684 54 l 684 0 m 460 131 l 460 371 q 311 325 366 348 q 229 278 256 301 q 193 230 201 254 q 184 180 184 206 q 212 101 184 138 q 289 65 239 65 q 347 75 317 65 q 402 98 376 85 q 444 121 428 111 q 460 131 460 131 m 436 765 l 357 765 l 146 900 q 114 956 114 921 q 127 997 114 977 q 178 1018 141 1018 q 220 1008 205 1018 q 250 981 235 998 l 436 765 z "},"á":{"ha":707,"x_min":47,"x_max":684,"o":"m 684 0 l 478 0 l 460 82 q 439 67 460 82 q 385 33 418 52 q 310 -2 351 13 q 228 -17 269 -17 q 100 33 153 -17 q 47 171 47 83 q 61 243 47 210 q 117 306 75 276 q 241 365 159 336 q 460 424 323 394 l 460 484 q 330 621 460 621 q 268 614 294 621 q 232 603 242 607 l 232 482 l 131 482 q 96 489 112 482 q 79 522 79 496 q 123 615 79 579 q 233 669 166 652 q 368 686 300 686 q 502 660 454 686 q 568 586 549 633 q 587 478 587 538 l 587 89 q 596 68 587 76 q 616 58 604 60 l 684 54 l 684 0 m 460 131 l 460 371 q 311 325 366 348 q 229 278 256 301 q 193 230 201 254 q 184 180 184 206 q 212 101 184 138 q 289 65 239 65 q 347 75 317 65 q 402 98 376 85 q 444 121 428 111 q 460 131 460 131 m 583 956 q 551 900 583 921 l 340 765 l 261 765 l 447 981 q 477 1008 463 998 q 519 1018 492 1018 q 570 997 556 1018 q 583 956 583 977 z "},"â":{"ha":707,"x_min":47,"x_max":684,"o":"m 684 0 l 478 0 l 460 82 q 439 67 460 82 q 385 33 418 52 q 310 -2 351 13 q 228 -17 269 -17 q 100 33 153 -17 q 47 171 47 83 q 61 243 47 210 q 117 306 75 276 q 241 365 159 336 q 460 424 323 394 l 460 484 q 330 621 460 621 q 268 614 294 621 q 232 603 242 607 l 232 482 l 131 482 q 96 489 112 482 q 79 522 79 496 q 123 615 79 579 q 233 669 166 652 q 368 686 300 686 q 502 660 454 686 q 568 586 549 633 q 587 478 587 538 l 587 89 q 596 68 587 76 q 616 58 604 60 l 684 54 l 684 0 m 460 131 l 460 371 q 311 325 366 348 q 229 278 256 301 q 193 230 201 254 q 184 180 184 206 q 212 101 184 138 q 289 65 239 65 q 347 75 317 65 q 402 98 376 85 q 444 121 428 111 q 460 131 460 131 m 561 765 l 478 765 l 335 903 l 192 765 l 107 765 l 282 1000 l 387 1000 l 561 765 z "},"ã":{"ha":707,"x_min":47,"x_max":684,"o":"m 684 0 l 478 0 l 460 82 q 439 67 460 82 q 385 33 418 52 q 310 -2 351 13 q 228 -17 269 -17 q 100 33 153 -17 q 47 171 47 83 q 61 243 47 210 q 117 306 75 276 q 241 365 159 336 q 460 424 323 394 l 460 484 q 330 621 460 621 q 268 614 294 621 q 232 603 242 607 l 232 482 l 131 482 q 96 489 112 482 q 79 522 79 496 q 123 615 79 579 q 233 669 166 652 q 368 686 300 686 q 502 660 454 686 q 568 586 549 633 q 587 478 587 538 l 587 89 q 596 68 587 76 q 616 58 604 60 l 684 54 l 684 0 m 460 131 l 460 371 q 311 325 366 348 q 229 278 256 301 q 193 230 201 254 q 184 180 184 206 q 212 101 184 138 q 289 65 239 65 q 347 75 317 65 q 402 98 376 85 q 444 121 428 111 q 460 131 460 131 m 586 965 q 532 858 571 904 q 425 812 493 812 q 362 829 389 812 q 306 862 335 846 q 232 879 277 879 q 184 858 204 879 q 160 812 163 838 l 104 812 q 159 920 120 874 q 265 965 197 965 q 329 948 302 965 q 384 915 355 932 q 457 899 412 899 q 506 919 485 899 q 530 965 528 940 l 586 965 z "},"ä":{"ha":707,"x_min":47,"x_max":684,"o":"m 684 0 l 478 0 l 460 82 q 439 67 460 82 q 385 33 418 52 q 310 -2 351 13 q 228 -17 269 -17 q 100 33 153 -17 q 47 171 47 83 q 61 243 47 210 q 117 306 75 276 q 241 365 159 336 q 460 424 323 394 l 460 484 q 330 621 460 621 q 268 614 294 621 q 232 603 242 607 l 232 482 l 131 482 q 96 489 112 482 q 79 522 79 496 q 123 615 79 579 q 233 669 166 652 q 368 686 300 686 q 502 660 454 686 q 568 586 549 633 q 587 478 587 538 l 587 89 q 596 68 587 76 q 616 58 604 60 l 684 54 l 684 0 m 460 131 l 460 371 q 311 325 366 348 q 229 278 256 301 q 193 230 201 254 q 184 180 184 206 q 212 101 184 138 q 289 65 239 65 q 347 75 317 65 q 402 98 376 85 q 444 121 428 111 q 460 131 460 131 m 570 890 q 547 836 570 859 q 493 812 524 812 q 440 836 462 812 q 418 890 418 859 q 441 943 418 920 q 493 966 464 966 q 547 944 524 966 q 570 890 570 922 m 281 890 q 258 836 281 859 q 204 812 235 812 q 153 836 174 812 q 131 889 131 859 q 153 943 131 919 q 205 966 176 966 q 259 944 237 966 q 281 890 281 922 z "},"å":{"ha":707,"x_min":47,"x_max":684,"o":"m 684 0 l 478 0 l 460 82 q 439 67 460 82 q 385 33 418 52 q 310 -2 351 13 q 228 -17 269 -17 q 100 33 153 -17 q 47 171 47 83 q 61 243 47 210 q 117 306 75 276 q 241 365 159 336 q 460 424 323 394 l 460 484 q 330 621 460 621 q 268 614 294 621 q 232 603 242 607 l 232 482 l 131 482 q 96 489 112 482 q 79 522 79 496 q 123 615 79 579 q 233 669 166 652 q 368 686 300 686 q 502 660 454 686 q 568 586 549 633 q 587 478 587 538 l 587 89 q 596 68 587 76 q 616 58 604 60 l 684 54 l 684 0 m 519 930 q 497 847 519 885 q 437 787 475 810 q 354 765 400 765 q 271 787 309 765 q 211 847 233 810 q 189 930 189 885 q 211 1014 189 977 q 271 1074 233 1051 q 354 1096 309 1096 q 437 1074 400 1096 q 497 1014 475 1051 q 519 930 519 977 m 460 131 l 460 371 q 311 325 366 348 q 229 278 256 301 q 193 230 201 254 q 184 180 184 206 q 212 101 184 138 q 289 65 239 65 q 347 75 317 65 q 402 98 376 85 q 444 121 428 111 q 460 131 460 131 m 452 930 q 423 1000 452 971 q 354 1028 395 1028 q 285 1000 313 1028 q 257 930 257 971 q 285 862 257 890 q 354 833 313 833 q 423 862 395 833 q 452 930 452 890 z "},"æ":{"ha":1002,"x_min":47,"x_max":954,"o":"m 954 69 q 902 35 935 55 q 824 -1 869 14 q 724 -17 779 -17 q 616 -1 663 -17 q 536 36 569 15 q 487 73 504 57 q 471 89 471 89 q 450 73 471 89 q 394 36 429 57 q 316 -1 359 15 q 227 -17 273 -17 q 93 36 139 -17 q 47 165 47 88 q 86 282 47 239 q 211 357 125 326 q 437 424 296 388 l 437 481 q 412 585 437 549 q 317 621 387 621 q 261 614 283 621 q 229 603 239 607 l 229 482 l 132 482 q 92 490 105 482 q 79 522 79 498 q 121 615 79 579 q 225 669 163 652 q 351 686 288 686 q 453 672 417 686 q 508 639 490 658 q 536 604 526 620 q 571 637 547 618 q 632 671 595 656 q 724 686 670 686 q 857 647 806 686 q 931 543 908 607 q 954 404 954 479 q 953 374 954 393 q 951 355 951 355 l 567 355 l 567 171 q 646 109 597 141 q 768 77 694 77 q 874 99 831 77 q 954 153 917 121 l 954 69 m 437 131 l 437 371 q 279 316 335 343 q 202 258 224 290 q 180 184 180 227 q 206 102 180 138 q 286 66 232 66 q 354 83 319 66 q 413 115 389 99 q 437 131 437 131 m 817 415 l 817 457 q 804 536 817 499 q 766 597 791 574 q 699 621 740 621 q 619 590 648 621 q 578 512 590 559 q 567 415 567 465 l 817 415 z "},"ç":{"ha":647,"x_min":47,"x_max":600,"o":"m 600 136 l 600 57 q 502 10 557 33 q 382 -17 446 -14 l 382 -87 q 396 -84 389 -86 q 414 -82 403 -82 q 486 -105 456 -82 q 515 -180 515 -127 q 470 -279 515 -245 q 354 -313 424 -313 q 284 -306 318 -313 q 250 -298 250 -298 l 250 -244 q 279 -250 250 -244 q 335 -256 309 -256 q 397 -243 368 -256 q 425 -199 425 -231 q 406 -160 425 -174 q 358 -147 386 -147 q 338 -151 348 -147 q 328 -155 328 -155 l 328 -16 q 179 40 241 -7 q 82 162 116 87 q 47 330 47 237 q 94 526 47 447 q 217 646 140 606 q 382 686 293 686 q 535 650 473 686 q 597 546 597 614 q 572 485 597 505 q 515 465 547 465 q 475 472 492 465 q 446 488 458 479 l 446 610 q 387 628 414 628 q 281 592 326 628 q 213 492 237 555 q 189 349 189 429 q 215 209 189 272 q 292 108 241 145 q 419 71 343 71 q 511 89 467 71 q 600 136 555 107 z "},"è":{"ha":681,"x_min":47,"x_max":633,"o":"m 444 765 l 366 765 l 154 900 q 131 923 140 909 q 122 956 122 937 q 136 997 122 977 q 186 1018 150 1018 q 229 1008 214 1018 q 258 981 243 998 l 444 765 m 633 69 q 508 8 575 33 q 370 -17 440 -17 q 212 21 286 -17 q 93 135 138 58 q 47 328 47 212 q 90 517 47 436 q 205 642 132 597 q 374 686 279 686 q 568 606 503 686 q 633 401 633 526 q 633 384 633 395 q 632 363 633 372 l 182 363 q 193 257 182 310 q 231 162 204 205 q 302 94 257 119 q 414 68 347 68 q 530 95 473 68 q 633 154 587 123 l 633 69 m 494 425 l 494 456 q 461 571 494 524 q 359 618 429 618 q 243 566 291 618 q 189 425 195 515 l 494 425 z "},"é":{"ha":681,"x_min":47,"x_max":633,"o":"m 604 956 q 595 923 604 937 q 572 900 587 909 l 361 765 l 282 765 l 467 981 q 497 1008 481 998 q 541 1018 512 1018 q 590 997 576 1018 q 604 956 604 977 m 633 69 q 508 8 575 33 q 370 -17 440 -17 q 212 21 286 -17 q 93 135 138 58 q 47 328 47 212 q 90 517 47 436 q 205 642 132 597 q 374 686 279 686 q 568 606 503 686 q 633 401 633 526 q 633 384 633 395 q 632 363 633 372 l 182 363 q 193 257 182 310 q 231 162 204 205 q 302 94 257 119 q 414 68 347 68 q 530 95 473 68 q 633 154 587 123 l 633 69 m 494 425 l 494 456 q 461 571 494 524 q 359 618 429 618 q 243 566 291 618 q 189 425 195 515 l 494 425 z "},"ê":{"ha":681,"x_min":47,"x_max":633,"o":"m 576 765 l 493 765 l 350 903 l 207 765 l 123 765 l 297 1000 l 401 1000 l 576 765 m 633 69 q 508 8 575 33 q 370 -17 440 -17 q 212 21 286 -17 q 93 135 138 58 q 47 328 47 212 q 90 517 47 436 q 205 642 132 597 q 374 686 279 686 q 568 606 503 686 q 633 401 633 526 q 633 384 633 395 q 632 363 633 372 l 182 363 q 193 257 182 310 q 231 162 204 205 q 302 94 257 119 q 414 68 347 68 q 530 95 473 68 q 633 154 587 123 l 633 69 m 494 425 l 494 456 q 461 571 494 524 q 359 618 429 618 q 243 566 291 618 q 189 425 195 515 l 494 425 z "},"ë":{"ha":681,"x_min":47,"x_max":633,"o":"m 574 890 q 551 836 574 859 q 497 812 529 812 q 444 836 466 812 q 421 890 421 859 q 444 943 421 920 q 496 966 467 966 q 551 944 528 966 q 574 890 574 922 m 285 890 q 262 836 285 859 q 208 812 240 812 q 156 836 178 812 q 134 889 134 859 q 156 943 134 919 q 208 966 178 966 q 262 944 240 966 q 285 890 285 922 m 633 69 q 508 8 575 33 q 370 -17 440 -17 q 212 21 286 -17 q 93 135 138 58 q 47 328 47 212 q 90 517 47 436 q 205 642 132 597 q 374 686 279 686 q 568 606 503 686 q 633 401 633 526 q 633 384 633 395 q 632 363 633 372 l 182 363 q 193 257 182 310 q 231 162 204 205 q 302 94 257 119 q 414 68 347 68 q 530 95 473 68 q 633 154 587 123 l 633 69 m 494 425 l 494 456 q 461 571 494 524 q 359 618 429 618 q 243 566 291 618 q 189 425 195 515 l 494 425 z "},"ì":{"ha":421,"x_min":-20,"x_max":374,"o":"m 302 765 l 225 765 l 14 900 q -10 923 -1 909 q -20 956 -20 937 q -5 997 -20 977 q 46 1018 9 1018 q 89 1008 74 1018 q 118 981 103 998 l 302 765 m 374 0 l 47 0 l 47 54 l 115 58 q 144 89 144 60 l 144 585 l 49 585 l 49 632 l 218 685 l 273 685 l 273 89 q 282 68 273 76 q 302 58 290 60 l 374 54 l 374 0 z "},"í":{"ha":421,"x_min":47,"x_max":375,"o":"m 375 956 q 343 900 375 921 l 132 765 l 53 765 l 237 981 q 268 1008 252 998 q 311 1018 283 1018 q 361 997 347 1018 q 375 956 375 977 m 374 0 l 47 0 l 47 54 l 115 58 q 144 89 144 60 l 144 585 l 49 585 l 49 632 l 218 685 l 273 685 l 273 89 q 282 68 273 76 q 302 58 290 60 l 374 54 l 374 0 z "},"î":{"ha":421,"x_min":-17,"x_max":437,"o":"m 437 765 l 354 765 l 210 903 l 66 765 l -17 765 l 158 1000 l 262 1000 l 437 765 m 375 0 l 49 0 l 49 54 l 115 58 q 144 89 144 60 l 144 585 l 50 585 l 50 632 l 220 685 l 273 685 l 273 89 q 282 68 273 76 q 302 58 290 60 l 375 54 l 375 0 z "},"ï":{"ha":421,"x_min":-9,"x_max":429,"o":"m 429 890 q 407 836 429 859 q 353 812 385 812 q 300 836 321 812 q 278 890 278 859 q 301 943 278 920 q 353 966 323 966 q 407 944 385 966 q 429 890 429 922 m 142 890 q 119 836 142 859 q 65 812 97 812 q 13 836 35 812 q -9 889 -9 859 q 13 943 -9 919 q 65 966 35 966 q 119 944 97 966 q 142 890 142 922 m 374 0 l 47 0 l 47 54 l 115 58 q 144 89 144 60 l 144 585 l 49 585 l 49 632 l 218 685 l 273 685 l 273 89 q 282 68 273 76 q 302 58 290 60 l 374 54 l 374 0 z "},"ð":{"ha":749,"x_min":47,"x_max":701,"o":"m 701 376 q 660 169 701 257 q 544 32 618 80 q 375 -17 471 -17 q 203 29 277 -17 q 88 155 129 75 q 47 339 47 236 q 92 520 47 442 q 212 642 136 598 q 383 686 288 686 q 444 676 413 686 q 476 667 475 667 q 449 710 466 685 q 414 758 432 734 q 384 799 397 782 q 370 817 371 815 l 193 711 l 163 766 l 322 863 l 273 918 l 157 933 l 157 972 l 328 1023 l 428 921 l 579 1011 l 611 956 l 469 869 q 525 802 488 848 q 604 689 563 755 q 673 543 644 623 q 701 376 701 463 m 567 349 q 553 493 567 432 q 513 597 538 555 q 495 605 513 597 q 453 618 478 612 q 407 625 429 625 q 286 587 333 625 q 215 484 238 549 q 192 338 192 418 q 211 198 192 264 q 271 89 229 131 q 379 46 312 46 q 489 91 448 46 q 548 206 530 136 q 567 349 567 275 z "},"ñ":{"ha":802,"x_min":28,"x_max":760,"o":"m 637 965 q 583 858 622 904 q 476 812 545 812 q 413 829 439 812 q 359 862 387 846 q 285 879 330 879 q 236 858 257 879 q 211 812 214 838 l 155 812 q 210 920 171 874 q 317 965 249 965 q 380 948 353 965 q 435 915 406 932 q 510 899 465 899 q 558 919 538 899 q 582 965 579 940 l 637 965 m 760 0 l 453 0 l 453 54 l 511 58 q 532 68 524 60 q 541 89 541 76 l 541 450 q 510 550 541 516 q 407 585 479 585 q 329 573 368 585 q 254 545 290 562 l 254 89 q 283 58 254 60 l 342 54 l 342 0 l 28 0 l 28 54 l 96 58 q 125 89 125 60 l 125 571 l 28 571 l 28 616 l 197 669 l 254 669 l 254 600 q 374 660 313 633 q 484 686 435 686 q 622 630 574 686 q 669 472 669 573 l 669 89 q 678 68 669 76 q 699 58 686 60 l 760 54 l 760 0 z "},"ò":{"ha":755,"x_min":47,"x_max":708,"o":"m 458 765 l 379 765 l 168 900 q 136 956 136 921 q 150 997 136 977 q 200 1018 163 1018 q 242 1008 228 1018 q 272 981 257 998 l 458 765 m 708 334 q 667 156 708 235 q 552 30 627 76 q 376 -17 478 -17 q 201 29 275 -17 q 87 155 127 75 q 47 334 47 234 q 88 513 47 433 q 203 640 128 593 q 380 686 278 686 q 557 639 484 686 q 669 511 631 591 q 708 334 708 431 m 564 335 q 544 477 564 411 q 483 583 524 543 q 379 624 441 624 q 274 583 315 624 q 213 477 233 543 q 193 335 193 411 q 213 194 193 260 q 274 87 233 127 q 378 46 315 46 q 483 87 441 46 q 544 193 524 127 q 564 335 564 259 z "},"ó":{"ha":755,"x_min":47,"x_max":708,"o":"m 628 956 q 596 900 628 920 l 385 765 l 306 765 l 490 981 q 520 1008 505 998 q 564 1018 536 1018 q 614 997 600 1018 q 628 956 628 977 m 708 334 q 667 156 708 235 q 552 30 627 76 q 376 -17 478 -17 q 201 29 275 -17 q 87 155 127 75 q 47 334 47 234 q 88 513 47 433 q 203 640 128 593 q 380 686 278 686 q 557 639 484 686 q 669 511 631 591 q 708 334 708 431 m 564 335 q 544 477 564 411 q 483 583 524 543 q 379 624 441 624 q 274 583 315 624 q 213 477 233 543 q 193 335 193 411 q 213 194 193 260 q 274 87 233 127 q 378 46 315 46 q 483 87 441 46 q 544 193 524 127 q 564 335 564 259 z "},"ô":{"ha":755,"x_min":47,"x_max":708,"o":"m 606 765 l 522 765 l 379 903 l 235 765 l 151 765 l 326 1000 l 431 1000 l 606 765 m 708 334 q 667 156 708 235 q 552 30 627 76 q 376 -17 478 -17 q 201 29 275 -17 q 87 155 127 75 q 47 334 47 234 q 88 513 47 433 q 203 640 128 593 q 380 686 278 686 q 557 639 484 686 q 669 511 631 591 q 708 334 708 431 m 564 335 q 544 477 564 411 q 483 583 524 543 q 379 624 441 624 q 274 583 315 624 q 213 477 233 543 q 193 335 193 411 q 213 194 193 260 q 274 87 233 127 q 378 46 315 46 q 483 87 441 46 q 544 193 524 127 q 564 335 564 259 z "},"õ":{"ha":755,"x_min":47,"x_max":708,"o":"m 627 965 q 572 858 611 904 q 465 812 533 812 q 402 829 429 812 q 348 862 376 846 q 273 879 319 879 q 224 858 245 879 q 200 812 203 838 l 144 812 q 199 920 160 874 q 306 965 238 965 q 369 948 342 965 q 425 915 395 932 q 498 899 454 899 q 548 919 527 899 q 571 965 568 940 l 627 965 m 708 334 q 667 156 708 235 q 552 30 627 76 q 376 -17 478 -17 q 201 29 275 -17 q 87 155 127 75 q 47 334 47 234 q 88 513 47 433 q 203 640 128 593 q 380 686 278 686 q 557 639 484 686 q 669 511 631 591 q 708 334 708 431 m 564 335 q 544 477 564 411 q 483 583 524 543 q 379 624 441 624 q 274 583 315 624 q 213 477 233 543 q 193 335 193 411 q 213 194 193 260 q 274 87 233 127 q 378 46 315 46 q 483 87 441 46 q 544 193 524 127 q 564 335 564 259 z "},"ö":{"ha":755,"x_min":47,"x_max":708,"o":"m 602 890 q 579 836 602 859 q 525 812 557 812 q 472 836 494 812 q 450 890 450 859 q 473 943 450 920 q 525 966 496 966 q 579 944 557 966 q 602 890 602 922 m 314 890 q 292 836 314 859 q 237 812 269 812 q 185 836 208 812 q 163 889 163 859 q 185 943 163 919 q 237 966 208 966 q 292 944 269 966 q 314 890 314 922 m 708 334 q 667 156 708 235 q 552 30 627 76 q 376 -17 478 -17 q 201 29 275 -17 q 87 155 127 75 q 47 334 47 234 q 88 513 47 433 q 203 640 128 593 q 380 686 278 686 q 557 639 484 686 q 669 511 631 591 q 708 334 708 431 m 564 335 q 544 477 564 411 q 483 583 524 543 q 379 624 441 624 q 274 583 315 624 q 213 477 233 543 q 193 335 193 411 q 213 194 193 260 q 274 87 233 127 q 378 46 315 46 q 483 87 441 46 q 544 193 524 127 q 564 335 564 259 z "},"÷":{"ha":1157,"x_min":172,"x_max":985,"o":"m 663 656 q 638 596 663 621 q 579 572 614 572 q 519 596 545 572 q 494 656 494 621 q 519 714 494 690 q 579 739 545 739 q 638 714 614 739 q 663 656 663 690 m 985 375 l 172 375 l 172 454 l 985 454 l 985 375 m 663 174 q 638 115 663 139 q 579 92 614 92 q 519 115 545 92 q 494 174 494 139 q 519 234 494 210 q 579 258 545 258 q 638 234 614 258 q 663 174 663 210 z "},"ø":{"ha":755,"x_min":47,"x_max":708,"o":"m 708 334 q 667 156 708 235 q 552 30 627 76 q 376 -17 478 -17 q 292 -7 332 -17 q 218 21 252 3 l 142 -114 l 93 -85 l 171 52 q 79 172 111 98 q 47 334 47 245 q 88 513 47 433 q 203 640 128 593 q 380 686 278 686 q 454 679 419 686 q 518 659 488 672 l 587 779 l 637 751 l 568 631 q 672 506 636 584 q 708 334 708 429 m 478 587 q 433 614 458 604 q 379 624 408 624 q 274 583 315 624 q 213 477 233 543 q 193 335 193 411 q 229 153 193 231 l 478 587 m 564 335 q 552 447 564 393 q 517 541 541 500 l 264 98 q 314 60 286 75 q 378 46 342 46 q 483 87 441 46 q 544 193 524 127 q 564 335 564 259 z "},"ù":{"ha":790,"x_min":29,"x_max":761,"o":"m 494 765 l 415 765 l 204 900 q 172 956 172 921 q 186 997 172 977 q 236 1018 199 1018 q 279 1008 264 1018 q 310 981 295 998 l 494 765 m 761 0 l 542 0 l 542 79 q 481 39 518 61 q 402 0 444 16 q 318 -17 359 -17 q 177 37 229 -17 q 126 208 126 91 l 126 585 l 29 585 l 29 632 l 200 686 l 257 686 l 257 235 q 287 119 257 161 q 390 78 316 78 q 475 93 433 78 q 542 119 517 107 l 542 585 l 444 585 l 444 632 l 614 686 l 669 686 l 669 89 q 679 68 669 76 q 700 58 688 60 l 761 54 l 761 0 z "},"ú":{"ha":790,"x_min":29,"x_max":761,"o":"m 639 956 q 608 900 639 920 l 397 765 l 318 765 l 503 981 q 533 1008 517 998 q 576 1018 549 1018 q 626 997 613 1018 q 639 956 639 977 m 761 0 l 542 0 l 542 79 q 481 39 518 61 q 402 0 444 16 q 318 -17 359 -17 q 177 37 229 -17 q 126 208 126 91 l 126 585 l 29 585 l 29 632 l 200 686 l 257 686 l 257 235 q 287 119 257 161 q 390 78 316 78 q 475 93 433 78 q 542 119 517 107 l 542 585 l 444 585 l 444 632 l 614 686 l 669 686 l 669 89 q 679 68 669 76 q 700 58 688 60 l 761 54 l 761 0 z "},"û":{"ha":790,"x_min":29,"x_max":761,"o":"m 624 765 l 541 765 l 397 903 l 253 765 l 170 765 l 345 1000 l 449 1000 l 624 765 m 761 0 l 542 0 l 542 79 q 481 39 518 61 q 402 0 444 16 q 318 -17 359 -17 q 177 37 229 -17 q 126 208 126 91 l 126 585 l 29 585 l 29 632 l 200 686 l 257 686 l 257 235 q 287 119 257 161 q 390 78 316 78 q 475 93 433 78 q 542 119 517 107 l 542 585 l 444 585 l 444 632 l 614 686 l 669 686 l 669 89 q 679 68 669 76 q 700 58 688 60 l 761 54 l 761 0 z "},"ü":{"ha":790,"x_min":29,"x_max":761,"o":"m 614 890 q 591 836 614 859 q 538 812 569 812 q 485 836 507 812 q 463 890 463 859 q 486 943 463 920 q 538 966 509 966 q 591 944 569 966 q 614 890 614 922 m 326 890 q 303 836 326 859 q 249 812 280 812 q 197 836 218 812 q 175 889 175 859 q 197 943 175 919 q 250 966 220 966 q 304 944 281 966 q 326 890 326 922 m 761 0 l 542 0 l 542 79 q 481 39 518 61 q 402 0 444 16 q 318 -17 359 -17 q 177 37 229 -17 q 126 208 126 91 l 126 585 l 29 585 l 29 632 l 200 686 l 257 686 l 257 235 q 287 119 257 161 q 390 78 316 78 q 475 93 433 78 q 542 119 517 107 l 542 585 l 444 585 l 444 632 l 614 686 l 669 686 l 669 89 q 679 68 669 76 q 700 58 688 60 l 761 54 l 761 0 z "},"ý":{"ha":736,"x_min":14,"x_max":722,"o":"m 612 956 q 603 923 612 937 q 579 900 594 909 l 370 765 l 290 765 l 475 981 q 505 1008 490 998 q 549 1018 521 1018 q 599 997 585 1018 q 612 956 612 977 m 722 615 l 650 607 l 383 -43 q 356 -107 374 -65 q 312 -192 337 -149 q 257 -265 286 -236 q 202 -304 232 -290 q 136 -318 172 -318 q 61 -294 87 -318 q 35 -239 35 -270 q 79 -155 35 -193 l 210 -215 q 256 -153 233 -192 q 297 -71 279 -113 q 326 1 316 -29 l 90 607 l 14 615 l 14 669 l 321 669 l 321 615 l 254 611 q 232 589 232 609 q 233 581 232 583 l 395 171 l 559 581 q 562 589 562 585 q 541 611 562 610 l 475 615 l 475 669 l 722 669 l 722 615 z "},"þ":{"ha":777,"x_min":29,"x_max":729,"o":"m 729 345 q 687 154 729 235 q 566 28 645 73 q 378 -17 488 -17 q 324 -14 353 -17 q 275 -7 295 -10 q 254 -4 254 -4 l 254 -211 q 263 -231 254 -224 q 285 -240 272 -239 l 367 -249 l 367 -302 l 29 -302 l 29 -249 l 96 -240 q 125 -211 125 -238 l 125 925 l 29 925 l 29 971 l 200 1023 l 254 1023 l 254 600 q 272 613 254 600 q 318 643 289 626 q 386 673 348 661 q 464 686 423 686 q 596 644 536 686 q 692 525 656 602 q 729 345 729 448 m 590 325 q 568 456 590 397 q 503 552 546 516 q 396 589 460 589 q 329 578 361 589 q 275 558 296 568 q 254 547 254 547 l 254 69 q 289 58 254 69 q 367 47 324 47 q 493 87 444 47 q 566 190 542 126 q 590 325 590 253 z "},"ÿ":{"ha":736,"x_min":14,"x_max":722,"o":"m 610 890 q 588 836 610 859 q 534 812 566 812 q 481 836 503 812 q 458 890 458 859 q 482 943 458 920 q 534 966 505 966 q 588 944 566 966 q 610 890 610 922 m 322 890 q 300 836 322 859 q 245 812 277 812 q 193 836 216 812 q 171 889 171 859 q 193 943 171 919 q 245 966 216 966 q 300 944 277 966 q 322 890 322 922 m 722 615 l 650 607 l 383 -43 q 356 -107 374 -65 q 312 -192 337 -149 q 257 -265 286 -236 q 202 -304 232 -290 q 136 -318 172 -318 q 61 -294 87 -318 q 35 -239 35 -270 q 79 -155 35 -193 l 210 -215 q 256 -153 233 -192 q 297 -71 279 -113 q 326 1 316 -29 l 90 607 l 14 615 l 14 669 l 321 669 l 321 615 l 254 611 q 232 589 232 609 q 233 581 232 583 l 395 171 l 559 581 q 562 589 562 585 q 541 611 562 610 l 475 615 l 475 669 l 722 669 l 722 615 z "},"ı":{"ha":421,"x_min":47,"x_max":374,"o":"m 374 0 l 47 0 l 47 54 l 115 58 q 144 89 144 60 l 144 585 l 49 585 l 49 633 l 218 686 l 273 686 l 273 89 q 282 68 273 76 q 302 58 290 60 l 374 54 l 374 0 z "},"Œ":{"ha":1388,"x_min":54,"x_max":1343,"o":"m 1343 0 l 725 0 l 725 77 q 611 3 677 29 q 461 -22 545 -22 q 235 42 326 -22 q 99 216 144 106 q 54 467 54 327 q 98 713 54 602 q 232 889 142 823 q 460 954 321 954 q 611 928 545 954 q 725 856 677 903 l 725 932 l 1297 932 l 1297 725 l 1214 725 l 1193 839 q 1185 857 1192 849 q 1168 865 1177 865 l 867 865 l 867 519 l 1075 519 q 1092 528 1084 519 q 1100 543 1100 536 l 1114 639 l 1185 639 l 1185 329 l 1114 329 l 1100 425 q 1092 441 1100 433 q 1075 450 1084 450 l 867 450 l 867 68 l 1218 68 q 1234 78 1226 68 q 1244 94 1242 87 l 1268 232 l 1343 232 l 1343 0 m 705 464 q 685 670 705 577 q 612 819 665 764 q 461 875 559 875 q 337 843 386 875 q 262 754 289 810 q 224 623 235 697 q 214 467 214 549 q 224 309 214 383 q 262 177 235 234 q 337 87 289 120 q 458 54 385 54 q 582 87 534 54 q 657 177 630 119 q 694 308 684 234 q 705 464 705 382 z "},"œ":{"ha":1139,"x_min":47,"x_max":1092,"o":"m 1092 401 q 1092 384 1092 395 q 1090 363 1092 372 l 672 363 q 693 228 672 294 q 764 119 715 162 q 899 77 814 77 q 1005 102 956 77 q 1090 154 1054 127 l 1090 69 q 987 11 1047 38 q 852 -17 928 -17 q 744 4 790 -17 q 664 56 697 24 q 607 121 630 87 q 548 55 581 87 q 469 3 514 24 q 363 -17 423 -17 q 193 31 263 -17 q 85 160 122 79 q 47 335 47 240 q 85 511 47 431 q 194 638 123 591 q 366 686 265 686 q 526 644 463 686 q 615 554 589 602 q 714 650 652 614 q 847 686 777 686 q 1030 607 968 686 q 1092 401 1092 527 m 951 425 l 951 456 q 922 571 951 524 q 833 619 892 619 q 727 563 767 619 q 679 425 686 506 l 951 425 m 541 332 q 522 476 541 411 q 465 581 503 542 q 367 619 427 619 q 268 580 307 619 q 210 477 229 541 q 192 339 192 413 q 211 195 192 262 q 270 88 231 129 q 367 47 309 47 q 465 87 426 47 q 522 193 503 127 q 541 332 541 258 z "},"Š":{"ha":724,"x_min":54,"x_max":669,"o":"m 603 1270 l 428 1034 l 323 1034 l 149 1270 l 232 1270 l 376 1131 l 519 1270 l 603 1270 m 669 261 q 632 126 669 191 q 513 19 594 61 q 301 -22 432 -22 q 171 -9 227 -22 q 85 16 115 3 q 54 29 54 29 l 54 275 l 142 275 l 160 118 q 169 100 161 110 q 183 87 176 91 q 223 71 186 87 q 323 56 259 56 q 470 99 412 56 q 528 220 528 142 q 504 293 528 262 q 444 349 481 325 q 364 394 406 374 q 283 432 321 414 q 178 490 227 459 q 99 566 129 521 q 69 682 69 612 q 111 826 69 765 q 226 921 153 887 q 390 954 298 954 q 522 940 465 954 q 623 911 578 925 l 635 907 l 635 690 l 555 690 l 534 823 q 526 837 533 833 q 513 848 519 842 q 479 865 507 852 q 392 879 451 879 q 260 832 309 879 q 212 715 212 786 q 262 610 212 652 q 406 532 312 568 q 601 425 532 484 q 669 261 669 366 z "},"š":{"ha":553,"x_min":47,"x_max":505,"o":"m 503 1000 l 328 765 l 225 765 l 52 1000 l 134 1000 l 277 863 l 419 1000 l 503 1000 m 505 201 q 435 41 505 99 q 240 -17 364 -17 q 122 -4 176 -17 q 47 18 68 9 l 47 203 l 118 203 l 135 85 q 187 59 156 71 q 258 46 218 46 q 351 79 318 46 q 383 154 383 113 q 344 237 383 209 q 232 300 304 265 l 214 309 q 97 384 138 345 q 57 485 57 422 q 122 632 57 578 q 307 686 187 686 q 416 675 368 686 q 485 654 464 664 l 485 490 l 412 490 l 401 587 q 357 609 387 599 q 296 619 328 619 q 211 593 239 619 q 183 526 183 567 q 217 452 183 479 q 338 385 250 425 q 458 310 411 351 q 505 201 505 269 z "},"Ÿ":{"ha":868,"x_min":14,"x_max":854,"o":"m 672 1154 q 650 1100 672 1123 q 596 1076 627 1076 q 543 1100 565 1076 q 521 1154 521 1123 q 544 1207 521 1183 q 596 1231 567 1231 q 650 1208 627 1231 q 672 1154 672 1185 m 383 1154 q 361 1100 383 1123 q 307 1076 338 1076 q 254 1099 277 1076 q 232 1153 232 1122 q 255 1207 232 1183 q 309 1231 278 1231 q 361 1208 340 1231 q 383 1154 383 1185 m 854 873 l 779 860 l 500 396 l 500 96 q 507 76 500 85 q 529 65 515 66 l 618 60 l 618 0 l 244 0 l 244 60 l 330 65 q 353 76 345 66 q 361 96 361 85 l 361 375 l 94 857 l 14 873 l 14 932 l 343 932 l 343 873 l 276 867 q 254 850 254 863 q 257 839 254 844 l 452 475 l 667 835 q 669 844 669 840 q 650 864 669 861 l 572 873 l 572 932 l 854 932 l 854 873 z "},"Ž":{"ha":799,"x_min":54,"x_max":745,"o":"m 745 0 l 54 0 l 54 61 l 571 863 l 210 863 q 186 839 192 863 l 165 710 l 83 710 l 83 932 l 737 932 l 737 868 l 220 71 l 615 71 q 631 78 625 71 q 639 96 637 85 l 663 257 l 745 257 l 745 0 m 641 1272 l 466 1036 l 361 1036 l 186 1272 l 270 1272 l 414 1134 l 557 1272 l 641 1272 z "},"ž":{"ha":642,"x_min":47,"x_max":595,"o":"m 595 0 l 47 0 l 47 74 l 415 604 l 174 604 q 156 594 163 604 q 146 575 148 585 l 132 472 l 61 472 l 61 669 l 575 669 l 575 612 l 195 66 l 475 66 q 494 78 484 66 q 505 100 505 90 l 519 210 l 595 210 l 595 0 m 555 1000 l 380 765 l 275 765 l 100 1000 l 184 1000 l 328 863 l 471 1000 l 555 1000 z "},"ƒ":{"ha":595,"x_min":-87,"x_max":684,"o":"m 684 868 q 659 817 684 836 q 596 793 634 798 l 488 880 q 440 812 458 857 q 412 719 422 768 q 397 635 402 671 l 554 635 l 554 566 l 387 566 q 373 462 381 522 q 354 338 364 403 q 335 213 345 273 q 316 104 325 152 q 302 31 308 56 q 258 -86 288 -28 q 188 -194 229 -145 q 100 -273 148 -243 q 0 -302 52 -302 q -54 -288 -35 -302 q -80 -256 -73 -273 q -87 -232 -87 -239 q -77 -191 -87 -206 q -52 -165 -66 -176 l 90 -201 q 151 -84 127 -157 q 191 86 174 -10 q 213 222 201 142 q 237 391 224 302 q 262 566 250 481 l 142 566 l 142 635 l 272 635 q 314 789 284 715 q 401 908 343 862 q 555 954 459 954 q 631 939 603 954 q 671 904 659 924 q 684 868 684 884 z "},"ˆ":{"ha":454,"x_min":0,"x_max":454,"o":"m 454 765 l 371 765 l 228 903 l 83 765 l 0 765 l 175 1000 l 279 1000 l 454 765 z "},"ˇ":{"ha":454,"x_min":0,"x_max":454,"o":"m 454 1000 l 279 765 l 175 765 l 0 1000 l 83 1000 l 228 863 l 371 1000 l 454 1000 z "},"ˉ":{"ha":465,"x_min":0,"x_max":465,"o":"m 465 814 l 0 814 l 0 902 l 465 902 l 465 814 z "},"ː":{"ha":354,"x_min":60,"x_max":294,"o":"m 294 668 l 225 447 l 129 447 l 60 668 l 294 668 m 294 0 l 60 0 l 129 221 l 225 221 l 294 0 z "},"˘":{"ha":414,"x_min":0,"x_max":414,"o":"m 358 971 l 414 971 q 391 875 414 922 q 322 796 368 827 q 207 765 276 765 q 92 796 138 765 q 23 875 45 827 q 0 971 0 922 l 54 971 q 111 885 66 911 q 207 859 156 859 q 302 885 258 859 q 358 971 346 911 z "},"˙":{"ha":155,"x_min":0,"x_max":155,"o":"m 155 890 q 133 835 155 858 q 78 812 110 812 q 23 835 45 812 q 0 890 0 858 q 23 947 0 924 q 78 970 45 970 q 133 947 110 970 q 155 890 155 924 z "},"˚":{"ha":330,"x_min":0,"x_max":330,"o":"m 330 929 q 308 847 330 884 q 249 787 286 810 q 165 765 212 765 q 82 787 120 765 q 22 847 45 810 q 0 929 0 884 q 22 1013 0 975 q 82 1073 45 1050 q 165 1096 120 1096 q 249 1073 212 1096 q 308 1013 286 1050 q 330 929 330 975 m 262 929 q 234 999 262 970 q 165 1028 206 1028 q 96 999 125 1028 q 68 929 68 970 q 96 861 68 890 q 165 832 125 832 q 234 861 206 832 q 262 929 262 890 z "},"˛":{"ha":258,"x_min":0,"x_max":258,"o":"m 225 -171 l 258 -227 q 237 -236 258 -227 q 188 -255 216 -245 q 139 -265 160 -265 q 37 -239 75 -265 q 0 -164 0 -214 q 16 -92 0 -125 q 55 -36 33 -60 q 97 1 78 -12 l 163 1 q 113 -50 139 -16 q 87 -127 87 -83 q 109 -179 87 -162 q 168 -196 131 -196 q 204 -183 184 -196 q 225 -171 225 -171 z "},"˜":{"ha":482,"x_min":0,"x_max":482,"o":"m 427 965 l 482 965 q 428 858 467 904 q 321 812 389 812 q 258 829 284 812 q 202 862 231 846 q 127 879 173 879 q 79 858 100 879 q 56 812 59 838 l 0 812 q 55 920 16 874 q 161 965 94 965 q 224 948 198 965 q 279 915 250 932 q 353 899 308 899 q 402 919 380 899 q 427 965 424 940 z "},"˝":{"ha":593,"x_min":0,"x_max":593,"o":"m 593 956 q 584 923 593 937 q 561 900 575 909 l 350 765 l 271 765 l 457 981 q 486 1008 471 998 q 529 1018 501 1018 q 579 998 566 1018 q 593 956 593 977 m 322 956 q 313 923 322 937 q 289 900 304 909 l 79 765 l 0 765 l 184 981 q 215 1008 200 998 q 258 1018 229 1018 q 308 998 294 1018 q 322 956 322 977 z "},"̀":{"ha":0,"x_min":-814,"x_max":-492,"o":"m -492 1057 l -571 1057 l -782 1192 q -814 1247 -814 1213 q -800 1289 -814 1269 q -750 1310 -785 1310 q -706 1300 -720 1310 q -677 1272 -692 1290 l -492 1057 z "},"́":{"ha":0,"x_min":-711,"x_max":-389,"o":"m -389 1247 q -398 1215 -389 1228 q -420 1192 -407 1201 l -632 1057 l -711 1057 l -526 1272 q -496 1300 -511 1290 q -452 1310 -481 1310 q -402 1289 -416 1310 q -389 1247 -389 1269 z "},"̂":{"ha":0,"x_min":-817,"x_max":-363,"o":"m -363 1078 l -446 1078 l -589 1215 l -734 1078 l -817 1078 l -642 1313 l -538 1313 l -363 1078 z "},"̃":{"ha":0,"x_min":-834,"x_max":-352,"o":"m -408 1229 l -352 1229 q -407 1122 -368 1168 q -513 1076 -446 1076 q -576 1093 -550 1076 q -632 1126 -603 1109 q -707 1143 -661 1143 q -755 1122 -734 1143 q -779 1076 -775 1101 l -834 1076 q -780 1183 -819 1138 q -673 1229 -741 1229 q -610 1212 -636 1229 q -555 1179 -584 1196 q -481 1162 -526 1162 q -432 1183 -454 1162 q -408 1229 -410 1204 z "},"̄":{"ha":0,"x_min":-821,"x_max":-355,"o":"m -355 1092 l -821 1092 l -821 1180 l -355 1180 l -355 1092 z "},"̇":{"ha":0,"x_min":-668,"x_max":-516,"o":"m -589 1219 q -536 1198 -556 1219 q -516 1144 -516 1177 q -536 1089 -516 1111 q -589 1068 -556 1068 q -645 1089 -623 1068 q -668 1144 -668 1111 q -643 1198 -668 1177 q -589 1219 -618 1219 z "},"̈":{"ha":0,"x_min":-754,"x_max":-385,"o":"m -675 1204 q -622 1184 -642 1204 q -602 1129 -602 1163 q -622 1075 -602 1096 q -675 1054 -642 1054 q -731 1075 -709 1054 q -754 1129 -754 1096 q -729 1184 -754 1163 q -675 1204 -705 1204 m -458 1219 q -405 1198 -425 1219 q -385 1144 -385 1177 q -405 1089 -385 1111 q -458 1068 -425 1068 q -514 1089 -492 1068 q -537 1144 -537 1111 q -512 1198 -537 1177 q -458 1219 -488 1219 z "},"̋":{"ha":0,"x_min":-814,"x_max":-221,"o":"m -221 1247 q -230 1215 -221 1228 q -253 1192 -239 1201 l -464 1057 l -543 1057 l -357 1272 q -328 1300 -342 1290 q -285 1310 -313 1310 q -235 1289 -248 1310 q -221 1247 -221 1269 m -492 1247 q -501 1215 -492 1228 q -525 1192 -510 1201 l -734 1057 l -814 1057 l -629 1272 q -599 1300 -614 1290 q -555 1310 -585 1310 q -506 1289 -519 1310 q -492 1247 -492 1269 z "},"̌":{"ha":0,"x_min":-817,"x_max":-362,"o":"m -362 1305 l -537 1070 l -642 1070 l -817 1305 l -733 1305 l -589 1168 l -446 1305 l -362 1305 z "},"̏":{"ha":0,"x_min":-971,"x_max":-378,"o":"m -378 1057 l -456 1057 l -667 1192 q -691 1215 -682 1201 q -701 1247 -701 1228 q -686 1289 -701 1269 q -635 1310 -671 1310 q -592 1300 -607 1310 q -563 1272 -578 1290 l -378 1057 m -649 1057 l -728 1057 l -939 1192 q -962 1215 -953 1201 q -971 1247 -971 1228 q -957 1289 -971 1269 q -907 1310 -943 1310 q -863 1300 -878 1310 q -833 1272 -848 1291 l -649 1057 z "},"͏":{"ha":0,"x_min":0,"x_max":0,"o":""},"π":{"ha":825,"x_min":28,"x_max":798,"o":"m 745 211 l 798 211 q 751 40 798 98 q 640 -17 705 -17 q 541 12 573 -17 q 500 83 509 41 q 490 164 490 125 l 490 557 l 301 557 l 301 239 q 281 109 301 167 q 221 17 260 51 q 126 -17 182 -17 q 65 12 86 -17 q 36 85 43 41 q 28 178 28 130 l 74 178 q 89 112 74 137 q 126 86 103 86 q 161 96 142 86 q 198 137 180 106 q 227 225 216 167 q 239 382 239 284 l 239 557 l 180 557 q 113 542 134 557 q 86 509 92 528 q 75 478 79 490 l 35 478 q 51 549 35 509 q 102 617 66 588 q 196 646 138 646 l 696 646 q 739 656 719 646 q 762 682 758 667 l 798 682 q 774 594 798 631 q 693 557 751 557 l 608 557 l 608 187 q 608 159 608 172 q 608 133 608 145 q 616 63 608 88 q 660 39 625 39 q 718 81 691 39 q 745 211 745 123 z "},"ሀ":{"ha":741,"x_min":65,"x_max":701,"o":"m 701 648 q 693 505 701 576 q 665 365 685 434 q 586 186 639 269 q 453 52 533 103 q 265 0 373 0 q 121 54 178 0 q 65 196 65 108 q 73 263 65 218 q 91 366 80 309 q 113 477 102 422 q 132 576 124 533 q 139 636 139 619 q 133 665 139 648 q 111 685 127 682 l 111 701 q 171 716 134 707 q 242 732 208 725 q 292 739 277 739 q 326 720 319 739 q 332 679 332 701 q 323 621 332 665 q 302 517 315 577 q 278 395 290 458 q 257 279 266 332 q 249 196 249 226 q 253 137 249 168 q 272 85 256 106 q 325 64 288 64 q 392 90 368 64 q 431 160 416 117 q 457 256 445 204 q 476 344 465 292 q 496 454 486 397 q 512 560 506 511 q 518 637 518 609 q 510 707 518 673 q 481 762 501 741 l 481 785 q 539 796 505 789 q 606 808 574 803 q 654 814 638 814 q 688 788 678 814 q 699 725 697 763 q 701 648 701 687 z "},"ሁ":{"ha":1083,"x_min":65,"x_max":1047,"o":"m 1047 376 q 998 356 1027 361 q 945 352 968 352 q 842 383 876 352 q 808 485 809 414 l 693 465 q 669 366 686 422 q 629 255 652 309 q 579 167 606 201 q 440 47 522 95 q 265 0 359 0 q 166 19 212 0 q 93 76 121 38 q 65 172 65 115 q 73 239 65 191 q 92 350 80 288 q 114 473 103 412 q 133 580 125 534 q 140 641 140 626 q 135 671 140 661 q 113 685 129 681 l 113 702 q 171 714 136 707 q 240 727 206 721 q 293 732 275 732 q 327 715 321 732 q 334 675 334 699 q 325 616 334 661 q 304 510 317 571 q 279 386 292 450 q 257 270 266 323 q 249 189 249 217 q 253 131 249 161 q 272 78 256 100 q 325 57 288 57 q 387 91 359 57 q 436 181 415 125 q 473 304 458 237 q 499 435 489 370 q 513 552 509 500 q 518 631 518 604 q 510 709 518 669 q 484 756 502 749 l 484 779 q 541 790 506 783 q 608 802 575 797 q 657 808 640 808 q 686 789 675 808 q 701 743 696 770 q 707 691 706 715 q 709 654 709 666 q 707 588 709 621 q 701 520 705 554 l 1014 578 q 1007 526 1010 553 q 1004 473 1004 499 q 1011 416 1004 444 q 1047 376 1018 389 z "},"ሂ":{"ha":843,"x_min":56,"x_max":787,"o":"m 787 -32 q 723 -65 766 -56 q 650 -74 680 -74 q 563 -52 598 -74 q 528 28 528 -29 l 321 4 q 299 2 310 3 q 278 0 288 0 q 207 19 237 0 q 176 85 176 39 q 182 118 176 99 q 193 150 188 137 l 357 536 l 196 496 q 174 491 185 494 q 153 489 163 489 q 104 509 124 489 q 83 557 83 528 q 83 645 83 602 q 83 732 83 689 q 78 765 83 749 q 56 788 73 781 l 56 812 q 112 828 74 817 q 186 848 149 839 q 236 857 222 857 q 277 839 266 857 q 288 794 288 822 q 286 706 288 768 q 283 574 283 644 l 380 595 q 445 740 426 694 q 464 808 464 786 q 460 830 464 819 q 444 845 456 840 l 444 861 q 479 871 454 863 q 532 886 503 878 q 585 900 561 895 q 621 906 610 906 q 666 887 652 906 q 681 840 681 869 q 671 793 681 821 q 653 748 661 766 l 395 150 q 389 133 391 142 q 386 114 386 123 q 394 83 386 101 q 418 65 403 65 q 470 69 435 65 q 533 77 505 73 q 603 142 566 127 q 700 157 641 157 q 760 151 728 157 q 746 110 749 136 q 742 65 742 83 q 752 11 742 41 q 787 -32 763 -20 z "},"ሃ":{"ha":694,"x_min":56,"x_max":657,"o":"m 657 785 q 651 723 657 756 q 632 665 645 690 l 371 140 q 364 117 367 132 q 361 93 361 102 q 389 43 361 60 l 389 21 l 245 4 q 224 1 235 3 q 203 0 214 0 q 156 11 171 0 q 140 57 140 22 q 147 83 140 65 q 157 109 153 101 l 351 503 l 203 466 q 182 461 193 463 q 160 458 171 458 q 105 483 123 458 q 87 542 87 507 q 95 610 87 576 q 102 678 102 644 q 92 724 102 703 q 56 752 83 745 l 56 776 q 111 792 74 781 q 185 811 149 802 q 236 820 221 820 q 282 799 268 820 q 296 748 296 777 q 280 642 296 692 q 264 532 264 591 l 378 559 q 407 618 389 580 q 440 696 425 656 q 454 759 454 735 q 428 816 454 795 l 428 831 q 482 846 450 838 q 546 862 514 855 q 595 869 577 869 q 644 843 631 869 q 657 785 657 817 z "},"ሄ":{"ha":786,"x_min":37,"x_max":737,"o":"m 737 245 q 711 170 737 198 q 644 122 684 142 q 554 91 601 100 q 461 65 507 81 q 394 40 432 56 q 317 12 355 24 q 249 0 279 0 q 177 19 208 0 q 147 85 147 39 q 164 160 147 123 l 336 517 l 179 475 q 158 471 169 473 q 136 469 147 469 q 88 487 103 469 q 72 536 73 505 l 65 723 q 60 756 64 741 q 37 779 55 772 l 37 802 q 93 818 56 808 q 166 838 130 829 q 218 846 203 846 q 266 794 266 846 q 266 673 266 734 q 265 552 265 612 l 357 574 l 425 724 q 439 761 432 739 q 446 798 446 783 q 442 820 446 810 q 427 836 438 831 l 427 850 q 479 866 443 855 q 552 887 516 878 q 603 897 588 897 q 648 878 633 897 q 663 830 663 859 q 654 783 663 808 q 635 738 645 758 l 427 325 q 518 347 471 336 q 611 357 566 357 q 702 331 667 357 q 737 245 737 306 m 546 227 q 536 269 546 255 q 494 283 526 283 q 444 275 472 283 q 395 257 416 266 q 363 192 379 225 q 347 139 347 159 q 361 110 347 119 q 393 102 375 102 q 464 117 429 102 q 523 159 499 132 q 546 227 546 187 z "},"ህ":{"ha":768,"x_min":50,"x_max":729,"o":"m 729 559 q 720 400 729 484 q 683 240 711 317 q 595 109 654 163 q 449 25 532 51 q 281 0 365 0 q 152 42 191 0 q 113 171 113 85 q 119 237 113 192 q 134 331 125 281 q 149 416 142 381 l 50 399 q 66 481 57 433 q 84 574 76 530 q 92 635 92 618 q 85 664 92 646 q 64 684 79 681 l 64 700 q 122 714 85 705 q 194 730 159 723 q 244 737 229 737 q 278 719 272 737 q 285 677 285 701 q 278 622 285 659 q 263 548 271 585 q 252 490 256 511 l 355 511 q 334 399 345 456 q 313 287 323 343 q 301 219 308 258 q 294 165 294 180 q 312 95 294 124 q 376 65 330 65 q 437 95 412 65 q 481 175 463 125 q 510 283 499 224 q 527 400 522 342 q 535 505 533 458 q 538 578 538 553 q 530 694 538 646 q 501 753 522 741 l 501 775 q 555 790 520 781 q 626 807 591 800 q 676 815 661 815 q 707 791 696 815 q 722 727 718 766 q 728 644 727 688 q 729 559 729 600 z "},"ሆ":{"ha":962,"x_min":64,"x_max":961,"o":"m 961 730 q 920 627 961 668 q 818 567 879 587 q 695 547 756 547 q 670 548 682 547 q 644 550 657 549 l 624 326 q 568 154 615 227 q 443 40 520 80 q 265 0 366 0 q 149 32 193 0 q 86 117 105 64 q 66 236 66 171 q 70 294 66 255 q 79 383 74 334 q 90 480 85 432 q 99 567 96 529 q 103 621 103 605 q 94 661 103 641 q 64 688 85 682 l 64 704 q 120 720 83 709 q 194 739 158 730 q 244 747 231 747 q 279 727 272 747 q 286 685 286 707 q 282 618 286 666 q 271 509 277 571 q 259 380 265 446 q 249 256 253 314 q 244 163 244 199 q 263 88 244 120 q 330 56 283 56 q 391 84 370 56 q 421 152 412 113 q 433 220 431 191 q 443 309 437 256 q 453 418 448 361 q 462 528 458 475 q 469 617 467 580 q 472 665 472 654 q 462 726 472 694 q 428 762 452 757 l 428 785 q 604 823 516 804 q 781 860 692 842 q 813 866 796 863 q 844 869 831 869 q 934 829 907 869 q 961 730 961 788 m 768 718 q 755 766 768 745 q 711 787 741 787 q 669 761 678 787 q 656 686 661 735 l 647 591 q 736 627 703 591 q 768 718 768 663 z "},"ሇ":{"ha":1227,"x_min":37,"x_max":1226,"o":"m 1226 730 q 1201 646 1226 681 q 1136 589 1176 611 q 1049 557 1095 568 q 960 547 1002 547 q 935 548 947 547 q 909 550 922 549 l 889 326 q 833 154 880 227 q 708 40 785 80 q 530 0 631 0 q 414 32 458 0 q 351 117 370 64 q 332 236 332 171 q 335 292 332 254 q 344 376 339 331 q 353 456 349 421 l 277 445 q 228 305 272 364 q 96 246 183 246 q 65 249 82 246 q 37 259 49 251 q 67 307 60 276 q 74 364 74 338 q 68 416 74 388 q 52 465 63 444 l 358 507 q 365 564 361 534 q 368 621 368 593 q 359 661 368 641 q 329 688 351 682 l 329 704 q 369 715 343 708 q 423 730 395 722 q 475 742 452 737 q 509 747 499 747 q 544 727 537 747 q 551 685 551 707 q 547 618 551 669 q 536 500 543 568 q 524 363 530 432 q 514 240 518 294 q 509 163 509 185 q 529 88 509 120 q 595 56 548 56 q 656 84 635 56 q 686 152 677 113 q 699 220 696 191 q 708 311 703 258 q 718 423 713 365 q 727 533 723 481 q 734 621 732 585 q 737 665 737 657 q 733 701 737 680 q 720 740 730 722 q 693 762 711 758 l 693 785 q 877 825 781 804 q 1046 860 973 845 q 1079 866 1061 863 q 1109 869 1097 869 q 1199 829 1172 869 q 1226 730 1226 788 m 1034 718 q 1020 766 1034 745 q 977 787 1006 787 q 939 770 950 787 q 926 730 928 753 q 921 686 923 707 l 912 591 q 1001 627 968 591 q 1034 718 1034 663 z "},"ለ":{"ha":786,"x_min":65,"x_max":729,"o":"m 729 28 l 585 4 q 568 3 574 3 q 501 53 519 3 q 477 171 483 103 q 471 289 473 230 q 462 407 469 349 q 445 499 456 452 q 406 585 433 547 q 303 465 337 531 q 259 324 270 399 q 249 165 249 248 q 250 121 249 145 q 261 78 252 97 q 296 50 271 58 l 296 29 l 155 3 q 132 1 144 1 q 77 33 89 1 q 65 100 65 64 q 83 335 65 227 q 153 538 100 444 q 307 717 205 632 l 250 821 l 421 879 l 485 734 q 581 642 548 702 q 629 508 614 582 q 649 359 644 435 q 660 217 654 283 q 680 107 665 151 q 729 53 694 62 l 729 28 z "},"ሉ":{"ha":1074,"x_min":72,"x_max":1039,"o":"m 1039 412 q 986 374 1014 387 q 921 361 958 361 q 820 396 849 361 q 783 497 791 431 l 646 452 q 654 379 651 416 q 660 307 657 343 q 664 246 661 285 q 673 166 666 208 q 694 92 680 124 q 736 53 709 60 l 736 28 l 591 4 q 575 3 581 3 q 502 69 521 3 q 479 245 483 135 q 476 321 479 283 q 470 396 474 359 q 453 494 465 443 q 412 585 441 545 q 310 465 344 531 q 266 324 277 399 q 256 165 256 248 q 257 121 256 144 q 268 78 258 97 q 302 50 278 58 l 302 29 l 163 3 q 140 1 152 1 q 84 32 96 1 q 72 100 72 64 q 90 335 72 227 q 160 537 108 443 q 314 717 212 631 l 257 821 l 428 879 l 492 734 q 590 637 558 701 q 637 504 623 573 l 981 611 q 970 579 973 600 q 968 547 968 559 q 1039 412 968 460 z "},"ሊ":{"ha":1111,"x_min":65,"x_max":1051,"o":"m 1051 -46 q 922 -81 991 -81 q 841 -58 867 -81 q 804 20 814 -35 l 602 1 q 587 0 595 1 q 573 -1 578 -1 q 509 30 529 -1 q 481 113 488 60 q 470 237 475 167 q 466 313 467 275 q 461 388 465 351 q 445 490 456 437 q 406 585 433 543 q 303 465 337 531 q 259 324 270 399 q 249 165 249 248 q 250 121 249 144 q 261 78 252 97 q 296 50 271 58 l 296 29 l 155 3 q 132 1 144 1 q 77 33 89 1 q 65 100 65 64 q 83 335 65 227 q 153 538 100 444 q 307 717 205 632 l 250 821 l 421 879 l 485 734 q 581 640 548 702 q 629 503 614 578 q 649 350 644 427 q 660 208 654 273 q 679 103 665 143 q 728 64 694 64 q 765 66 744 64 q 807 72 787 69 q 887 127 839 106 q 982 149 935 149 q 1008 147 994 149 q 1035 142 1023 145 q 1020 100 1026 121 q 1014 56 1014 78 q 1023 1 1014 24 q 1051 -46 1031 -21 z "},"ላ":{"ha":722,"x_min":64,"x_max":665,"o":"m 665 24 l 530 1 q 516 0 521 0 q 454 65 465 0 q 441 246 444 130 q 439 322 440 284 q 433 399 437 361 q 411 503 427 451 q 359 595 395 555 q 278 470 297 538 q 258 321 258 403 q 261 293 258 308 q 279 273 264 279 l 279 256 l 154 233 q 131 231 143 231 q 76 263 87 231 q 64 330 64 295 q 90 480 64 405 q 165 617 117 555 q 279 717 214 680 l 222 821 l 393 879 l 457 734 q 553 626 520 690 q 599 486 586 561 q 614 338 612 412 q 617 201 616 264 q 628 96 618 138 q 665 45 637 54 l 665 24 z "},"ሌ":{"ha":1000,"x_min":65,"x_max":943,"o":"m 943 227 q 920 136 943 165 q 859 94 897 106 q 779 75 822 81 q 694 53 735 68 q 626 20 661 41 q 554 0 590 0 q 485 30 506 0 q 459 106 464 59 q 454 208 454 154 l 454 282 q 445 441 454 359 q 392 589 436 523 q 309 478 340 547 q 264 333 277 409 q 250 192 250 256 q 258 129 250 157 q 304 87 267 100 l 304 66 q 196 21 247 42 q 127 -1 144 -1 q 85 22 98 -1 q 68 75 72 45 q 65 125 65 104 q 72 249 65 180 q 95 387 79 317 q 140 522 112 458 q 210 636 168 587 q 311 710 252 686 l 244 815 l 408 879 l 485 734 q 564 657 534 705 q 611 551 594 609 q 634 434 627 493 q 644 323 642 374 q 735 357 688 335 q 827 379 783 379 q 892 355 866 379 q 930 296 918 331 q 943 227 943 260 m 762 189 q 749 256 762 231 q 688 281 735 281 q 647 273 666 281 q 647 204 649 239 q 646 134 646 169 q 662 109 646 118 q 692 100 678 100 q 745 129 727 100 q 762 189 762 159 z "},"ል":{"ha":1028,"x_min":65,"x_max":966,"o":"m 966 49 q 904 29 941 41 q 838 8 868 17 q 797 -1 807 -1 q 736 34 760 -1 q 693 128 711 70 q 656 255 674 186 q 615 391 638 324 q 559 512 593 458 q 476 591 526 565 q 335 470 388 552 q 268 294 282 387 q 379 338 334 324 q 467 351 423 351 q 530 319 514 351 q 546 248 546 288 q 524 174 546 208 q 468 119 502 139 q 417 103 449 109 q 353 93 385 98 q 304 80 322 89 q 258 54 286 71 q 199 23 231 37 q 139 9 168 9 q 80 34 95 9 q 65 100 65 58 q 142 441 65 294 q 367 711 218 589 l 292 796 l 443 879 l 547 745 q 676 643 626 707 q 758 502 726 578 q 811 350 790 426 q 852 211 833 275 q 898 110 871 148 q 966 72 924 72 l 966 49 m 371 203 q 310 267 371 267 q 284 265 299 267 q 260 260 270 264 q 253 215 256 238 q 250 171 250 193 q 263 135 250 150 q 297 119 275 119 q 349 148 326 119 q 371 203 371 176 z "},"ሎ":{"ha":1194,"x_min":65,"x_max":1158,"o":"m 1158 518 q 1135 446 1158 474 q 1072 403 1112 418 q 1017 392 1046 393 q 960 385 987 390 q 903 371 932 379 q 846 363 875 363 q 743 405 772 363 q 713 515 713 448 q 713 532 713 524 q 714 549 713 541 l 625 525 q 640 447 635 486 q 649 367 646 407 q 653 310 652 338 q 658 252 655 281 q 662 202 659 233 q 671 140 665 172 q 692 84 678 108 q 729 53 706 60 l 729 28 l 585 4 q 568 3 574 3 q 508 38 528 3 q 482 129 488 73 q 473 245 475 184 q 469 321 471 283 q 463 396 467 359 q 446 494 458 443 q 406 585 434 545 q 303 465 337 531 q 259 324 270 399 q 249 165 249 248 q 250 121 249 144 q 261 78 252 97 q 296 50 271 58 l 296 29 l 155 3 q 132 1 144 1 q 77 33 89 1 q 65 100 65 64 q 83 335 65 227 q 153 538 100 444 q 307 717 205 632 l 250 821 l 421 879 l 485 734 q 565 666 534 709 q 612 571 595 623 q 665 584 638 578 q 717 597 691 591 q 760 611 739 603 q 803 624 781 620 q 860 632 831 629 q 917 640 889 634 q 971 654 945 646 q 1026 663 997 663 q 1125 622 1093 663 q 1158 518 1158 581 m 974 463 q 970 510 974 479 q 954 567 966 541 q 917 593 941 593 q 896 582 903 593 q 889 558 889 570 q 893 512 889 543 q 910 455 898 481 q 943 429 922 429 q 966 439 958 429 q 974 463 974 448 z "},"ሏ":{"ha":981,"x_min":65,"x_max":930,"o":"m 930 -52 q 898 -66 920 -62 q 863 -71 877 -71 q 750 -35 796 -71 q 701 71 705 1 l 349 49 q 351 29 351 39 q 323 -46 351 -15 q 254 -95 295 -78 q 174 -111 213 -111 q 146 -110 160 -111 q 118 -109 132 -109 q 143 -35 136 -81 q 150 43 150 12 q 142 86 150 64 l 439 104 q 422 166 427 129 q 417 240 418 203 q 416 305 416 278 q 415 427 416 359 q 402 562 414 496 q 357 672 390 627 q 270 547 294 615 q 245 396 245 479 q 248 369 245 385 q 260 346 251 353 l 260 328 q 192 315 233 323 q 125 307 151 307 q 75 338 84 307 q 65 403 65 370 q 116 630 65 533 q 283 793 167 727 l 227 889 l 393 946 l 467 798 q 550 697 522 758 q 589 564 578 635 q 602 419 600 492 q 603 282 603 346 q 612 175 604 219 q 644 115 620 130 l 913 132 q 904 64 904 101 q 906 27 904 50 q 915 -18 909 4 q 930 -52 920 -40 z "},"ሐ":{"ha":1101,"x_min":65,"x_max":1054,"o":"m 1054 20 q 994 12 1029 16 q 929 4 959 7 q 887 1 899 1 q 838 15 854 1 q 819 62 821 28 l 804 332 q 763 417 801 392 q 669 443 726 443 l 629 154 q 625 98 625 127 q 638 57 625 75 q 676 37 652 39 l 676 16 q 571 4 623 9 q 498 0 519 0 q 449 8 473 0 q 425 47 425 16 q 430 100 425 64 q 437 154 434 136 l 475 410 q 379 380 417 407 q 318 312 340 354 q 287 220 296 270 q 278 121 278 170 q 282 70 278 94 q 306 43 286 46 l 306 21 l 170 3 q 138 1 155 1 q 82 21 98 1 q 65 81 65 41 q 118 296 65 211 q 264 422 170 380 q 484 464 359 464 q 500 577 492 517 q 514 684 508 637 q 519 742 519 731 q 482 793 519 782 l 482 817 l 631 838 q 676 842 653 842 q 707 835 695 842 q 720 807 720 828 q 715 761 720 795 q 707 704 711 728 l 676 490 q 791 511 741 504 q 865 518 842 518 q 961 473 933 518 q 994 367 989 427 l 1014 109 q 1023 66 1016 83 q 1054 36 1031 49 l 1054 20 z "},"ሑ":{"ha":1352,"x_min":65,"x_max":1318,"o":"m 1318 201 q 1260 168 1294 177 q 1193 158 1226 158 q 1107 183 1138 158 q 1076 265 1076 208 q 1079 301 1076 285 l 1000 285 l 1014 109 q 1023 66 1016 83 q 1054 36 1031 49 l 1054 20 q 995 11 1029 16 q 930 4 960 7 q 887 1 901 1 q 838 15 854 1 q 819 62 821 28 l 804 332 q 763 417 801 392 q 669 443 726 443 l 629 154 q 625 98 625 127 q 638 57 625 75 q 676 37 652 39 l 676 16 q 571 4 623 9 q 498 0 519 0 q 449 8 473 0 q 425 47 425 16 q 429 96 425 61 q 435 149 433 130 l 475 410 q 379 380 417 407 q 318 312 340 354 q 287 220 296 270 q 278 121 278 170 q 282 68 278 90 q 306 43 287 46 l 306 21 l 170 3 q 138 1 155 1 q 82 21 98 1 q 65 81 65 41 q 118 296 65 211 q 264 422 170 380 q 484 464 359 464 q 510 652 500 579 q 519 742 519 726 q 482 793 519 782 l 482 817 l 632 838 q 676 842 654 842 q 707 835 695 842 q 720 807 720 828 q 715 762 720 796 q 707 704 710 728 l 676 490 q 791 511 741 504 q 865 518 842 518 q 946 491 919 518 q 983 422 972 464 q 997 338 994 381 l 1283 400 q 1271 365 1274 386 q 1267 329 1267 345 q 1274 257 1267 288 q 1318 201 1281 227 z "},"ሒ":{"ha":1425,"x_min":65,"x_max":1373,"o":"m 1373 -22 q 1303 -53 1341 -41 q 1227 -65 1265 -65 q 1144 -40 1176 -65 q 1112 40 1112 -16 l 930 4 q 908 0 920 2 q 885 -1 897 -1 q 819 62 822 -1 l 804 332 q 763 417 801 392 q 669 443 726 443 l 629 154 q 625 98 625 127 q 638 57 625 75 q 676 37 652 39 l 676 16 q 571 4 623 9 q 498 0 519 0 q 449 8 473 0 q 425 47 425 16 q 429 95 425 65 q 435 145 433 125 l 475 410 q 379 380 417 407 q 318 312 340 354 q 287 220 296 270 q 278 121 278 170 q 283 68 278 88 q 306 43 288 49 l 306 21 l 170 3 q 138 1 155 1 q 82 21 98 1 q 65 81 65 41 q 118 296 65 211 q 264 422 170 380 q 484 464 359 464 q 495 544 489 500 q 507 629 501 587 q 516 701 513 671 q 519 742 519 732 q 510 782 519 764 q 482 806 500 800 l 482 823 q 545 834 508 828 q 617 845 583 840 q 666 849 651 849 q 704 841 688 849 q 720 807 720 832 q 715 761 720 794 q 707 704 711 728 l 676 490 q 791 511 741 504 q 865 518 842 518 q 962 473 934 518 q 994 367 989 427 l 1013 136 q 1021 100 1014 121 q 1048 79 1028 79 q 1079 82 1060 79 q 1114 89 1098 85 q 1185 161 1135 139 q 1286 183 1235 183 q 1314 182 1299 183 q 1341 179 1328 182 q 1321 87 1321 136 q 1336 27 1321 56 q 1373 -22 1350 -1 z "},"ሓ":{"ha":1074,"x_min":65,"x_max":1018,"o":"m 1018 22 q 913 6 947 12 q 866 0 879 1 q 846 -1 854 -1 q 779 61 783 -1 l 764 330 q 738 412 761 380 q 661 444 715 444 q 631 441 644 444 q 617 346 623 393 q 611 265 611 298 q 622 231 611 241 q 656 218 633 220 l 656 196 q 551 177 585 183 q 505 169 517 170 q 484 167 492 167 q 436 174 456 167 q 415 214 415 182 q 418 254 415 233 q 424 295 421 276 l 441 408 q 356 384 393 407 q 299 328 319 361 q 278 264 278 296 q 283 219 278 237 q 302 199 288 201 l 302 176 q 196 158 230 163 q 150 150 161 152 q 132 149 138 149 q 78 172 92 149 q 65 231 65 195 q 103 330 65 287 q 194 400 140 372 q 294 442 247 429 q 371 458 332 453 q 449 463 410 463 l 478 692 q 481 716 479 704 q 482 741 482 729 q 444 791 482 780 l 444 815 l 596 837 q 637 840 618 840 q 668 833 656 840 q 681 806 681 826 q 676 761 681 795 q 668 703 671 727 l 637 489 q 745 510 702 503 q 825 517 789 517 q 922 471 894 517 q 954 366 949 426 l 975 122 q 986 76 977 99 q 1018 41 995 53 l 1018 22 z "},"ሔ":{"ha":1333,"x_min":65,"x_max":1281,"o":"m 1281 163 q 1252 84 1281 116 q 1181 35 1223 52 q 1097 18 1139 18 l 1031 18 q 961 9 996 18 q 890 0 926 0 q 840 15 859 0 q 819 62 821 29 l 804 332 q 763 417 801 392 q 669 443 726 443 l 629 154 q 625 98 625 127 q 638 57 625 74 q 676 37 652 39 l 676 16 q 571 4 623 9 q 498 0 519 0 q 449 8 473 0 q 425 47 425 16 q 428 89 425 61 q 434 135 431 117 l 475 410 q 379 380 417 407 q 318 312 340 354 q 287 220 296 270 q 278 121 278 170 q 306 43 278 46 l 306 21 l 170 3 q 138 1 155 1 q 82 21 98 1 q 65 81 65 41 q 118 296 65 211 q 264 422 170 380 q 484 464 359 464 q 510 652 500 579 q 519 742 519 726 q 482 793 519 782 l 482 817 l 625 838 q 648 840 632 839 q 670 842 663 842 q 720 807 720 842 q 715 761 720 794 q 707 704 711 728 l 676 490 q 777 509 722 499 q 865 518 833 518 q 937 496 910 518 q 976 440 963 475 q 993 367 989 406 l 1003 258 q 1078 269 1041 260 q 1153 278 1114 278 q 1248 254 1215 278 q 1281 163 1281 230 m 1122 141 q 1106 197 1122 175 q 1054 218 1091 218 q 1030 216 1045 218 q 1006 212 1015 214 q 1008 162 1007 186 q 1010 123 1010 138 q 1016 78 1010 98 q 1052 59 1022 59 q 1105 83 1088 59 q 1122 141 1122 108 z "},"ሕ":{"ha":1111,"x_min":65,"x_max":1054,"o":"m 1054 20 q 996 11 1029 16 q 933 4 963 7 q 887 1 904 1 q 838 15 854 1 q 819 62 821 28 l 804 332 q 763 417 801 392 q 669 443 726 443 l 629 154 q 625 98 625 127 q 638 57 625 75 q 676 37 652 39 l 676 16 q 571 4 623 9 q 498 0 519 0 q 449 8 473 0 q 425 47 425 16 q 428 94 425 66 q 433 139 431 121 l 475 410 q 379 380 417 407 q 318 311 340 353 q 287 219 296 269 q 278 121 278 170 q 306 43 278 50 l 306 21 l 170 3 q 138 1 155 1 q 82 21 98 1 q 65 81 65 41 q 118 296 65 211 q 264 422 170 380 q 484 464 359 464 q 496 548 489 499 q 509 637 503 597 q 514 689 514 678 q 513 700 514 696 q 503 704 511 704 q 483 702 494 704 q 463 698 471 700 q 398 680 438 684 q 330 676 357 676 q 295 679 315 676 q 261 689 275 682 q 287 733 277 710 q 297 783 297 757 q 285 836 297 809 q 257 882 273 862 q 316 895 286 892 q 376 899 346 899 q 441 888 406 899 q 502 856 476 878 q 528 798 528 834 q 522 758 528 775 q 573 766 544 762 q 628 773 602 770 q 667 777 654 777 q 697 769 685 777 q 710 742 710 762 q 706 696 710 730 q 698 639 701 663 l 676 490 q 791 511 741 504 q 865 518 842 518 q 961 473 933 518 q 994 367 989 427 l 1014 109 q 1023 66 1016 83 q 1054 36 1031 49 l 1054 20 z "},"ሖ":{"ha":1101,"x_min":65,"x_max":1044,"o":"m 1044 184 q 940 172 991 178 q 875 166 890 166 q 826 180 842 166 q 808 228 810 195 q 807 280 808 254 q 804 332 806 306 q 765 417 802 399 q 668 436 728 436 q 655 347 663 396 q 647 256 647 297 q 659 214 647 233 q 694 192 670 194 l 694 170 q 591 160 641 163 q 521 157 541 157 q 471 165 496 157 q 447 204 447 173 q 450 240 447 218 q 455 281 452 262 l 475 410 q 379 380 417 407 q 318 312 340 354 q 287 220 296 270 q 278 121 278 170 q 283 68 278 91 q 306 43 288 46 l 306 21 l 170 3 q 138 1 155 1 q 82 21 98 1 q 65 81 65 41 q 118 296 65 211 q 264 422 170 380 q 484 464 359 464 q 494 541 488 498 q 506 626 500 584 q 516 700 512 668 q 519 742 519 732 q 482 793 519 782 l 482 817 l 635 838 q 655 840 645 839 q 676 842 665 842 q 707 835 695 842 q 720 807 720 828 q 715 762 720 796 q 707 704 710 728 l 676 490 q 791 511 741 504 q 865 518 842 518 q 949 483 921 518 q 986 391 977 447 q 999 273 996 335 q 1044 201 1001 224 l 1044 184 z "},"ሗ":{"ha":1354,"x_min":65,"x_max":1296,"o":"m 1296 -20 q 1263 -35 1285 -31 q 1227 -39 1242 -39 q 1116 -3 1161 -39 q 1067 103 1070 33 l 714 81 q 696 -4 724 33 q 625 -60 669 -40 q 539 -79 581 -79 q 511 -78 526 -79 q 484 -77 497 -77 q 509 -2 502 -49 q 515 75 515 44 q 507 118 515 96 l 778 135 q 779 163 779 143 q 778 205 779 182 l 764 436 q 738 518 761 486 q 660 549 715 549 q 631 547 645 549 q 618 459 625 504 q 611 371 611 415 q 656 323 611 328 l 656 301 l 530 277 q 507 274 519 275 q 484 272 496 272 q 436 280 456 272 q 415 319 415 288 q 419 358 415 338 q 425 396 422 377 l 441 514 q 357 490 393 513 q 300 436 321 468 q 278 376 279 405 q 302 304 276 310 l 302 282 l 170 258 q 151 256 160 257 q 132 254 141 254 q 79 278 92 254 q 65 336 65 301 q 103 435 65 393 q 194 507 140 478 q 294 548 247 535 q 449 568 369 568 l 479 798 q 481 822 480 810 q 482 846 482 833 q 444 897 482 886 l 444 921 l 589 942 q 613 945 600 943 q 637 946 627 946 q 669 939 656 946 q 681 911 681 931 q 676 866 681 901 q 668 808 671 832 l 637 595 l 764 616 q 794 621 779 619 q 825 623 810 623 q 921 576 893 623 q 954 471 949 530 l 975 228 q 980 172 979 193 q 986 147 982 151 l 1278 164 q 1270 96 1270 132 q 1275 36 1270 74 q 1296 -20 1280 -2 z "},"መ":{"ha":1296,"x_min":65,"x_max":1258,"o":"m 1258 590 q 1233 464 1258 520 q 1157 375 1207 408 q 1034 342 1107 342 q 998 343 1016 342 q 962 345 980 345 q 930 338 949 345 q 897 328 911 332 q 812 315 853 315 q 754 325 773 315 q 736 378 736 335 q 739 421 736 399 q 747 464 743 443 l 800 713 l 730 704 l 602 358 q 543 272 578 296 q 440 249 507 249 q 400 250 420 249 q 359 252 380 252 q 308 240 332 252 q 257 216 284 228 q 193 204 230 204 q 99 244 134 204 q 65 342 65 284 q 87 446 65 393 q 144 545 110 498 q 214 626 178 592 q 312 691 261 671 q 417 719 362 712 q 534 729 473 726 q 639 741 587 732 q 743 757 690 750 q 855 767 799 764 q 968 770 911 769 l 981 750 q 1042 773 1008 761 q 1105 786 1076 786 q 1193 757 1160 786 q 1242 683 1227 728 q 1258 590 1258 637 m 1055 585 q 1053 633 1055 608 q 1037 677 1050 659 q 994 696 1025 696 q 983 695 989 696 q 971 693 977 694 l 933 478 q 930 460 932 469 q 929 443 929 452 q 972 397 929 397 q 1016 419 999 397 q 1041 472 1032 441 q 1052 535 1049 504 q 1055 585 1055 566 m 530 668 q 498 676 514 676 q 398 639 439 676 q 331 549 357 602 q 292 447 306 496 q 283 406 288 427 q 278 363 278 384 q 292 319 278 340 q 332 297 307 297 q 370 313 353 297 q 399 351 387 330 q 418 390 411 373 l 530 668 z "},"ሙ":{"ha":1611,"x_min":61,"x_max":1581,"o":"m 1581 473 q 1528 451 1564 458 q 1470 444 1492 444 q 1378 470 1422 444 q 1322 546 1334 496 l 1251 546 q 1182 398 1240 454 q 1029 342 1124 342 q 994 343 1012 342 q 958 345 976 345 q 932 340 947 345 q 905 332 916 335 q 858 320 882 325 q 808 315 833 315 q 750 325 769 315 q 732 378 732 335 q 735 421 732 399 q 743 464 739 443 l 796 713 l 726 704 l 597 358 q 538 272 574 296 q 436 249 503 249 q 396 250 416 249 q 355 252 376 252 q 304 240 328 252 q 253 216 280 228 q 189 204 226 204 q 95 244 130 204 q 61 342 61 284 q 83 446 61 393 q 139 546 105 498 q 210 627 174 593 q 307 691 256 671 q 414 719 358 712 q 530 729 469 726 q 640 741 585 732 q 748 756 694 749 q 856 767 802 764 q 964 770 909 770 l 977 750 q 1038 774 1004 762 q 1101 786 1072 786 q 1189 757 1156 786 q 1238 684 1223 728 q 1254 591 1254 639 l 1324 591 q 1372 645 1348 629 q 1425 664 1395 661 q 1496 667 1455 667 q 1533 665 1512 667 q 1569 659 1555 664 q 1550 616 1556 644 q 1543 570 1543 589 q 1545 535 1543 556 q 1556 495 1548 513 q 1581 473 1564 477 m 1051 585 q 1048 633 1051 608 q 1033 677 1046 659 q 990 696 1021 696 q 978 695 984 696 q 966 693 972 694 l 929 478 q 926 460 928 469 q 925 443 925 452 q 968 397 925 397 q 1011 419 995 397 q 1037 472 1028 441 q 1048 535 1045 504 q 1051 585 1051 566 m 526 668 q 494 676 510 676 q 394 639 435 676 q 327 549 353 602 q 288 447 301 496 q 278 406 283 427 q 273 363 273 384 q 288 319 273 340 q 328 297 302 297 q 366 313 349 297 q 395 352 382 330 q 414 390 407 374 l 526 668 z "},"ሚ":{"ha":1369,"x_min":56,"x_max":1324,"o":"m 1324 -46 q 1271 -68 1307 -61 q 1213 -75 1235 -75 q 1060 18 1109 -75 q 901 5 964 10 q 822 0 838 0 q 758 18 777 0 q 739 82 739 37 q 749 149 739 114 q 768 215 758 184 l 861 501 q 871 539 868 521 q 793 525 837 532 q 722 518 750 518 q 644 539 675 518 q 612 611 612 559 q 618 673 612 632 q 640 793 623 714 l 547 782 l 517 549 q 471 456 509 486 q 371 427 433 427 q 350 430 360 427 q 328 433 339 433 q 269 420 296 433 q 214 393 241 406 q 155 379 186 379 q 78 416 100 379 q 56 503 56 452 q 76 627 56 568 q 144 733 96 687 q 245 797 189 777 q 361 823 300 817 q 481 833 422 830 l 673 844 q 728 847 701 846 q 782 848 755 848 q 829 833 810 848 q 892 867 859 855 q 962 879 926 879 q 1067 837 1033 879 q 1101 728 1101 795 q 1093 648 1101 692 q 1072 561 1084 604 q 1050 484 1060 517 l 960 178 q 949 139 954 159 q 945 98 945 119 q 952 75 945 87 q 972 62 959 62 q 1016 64 994 62 q 1060 68 1038 66 q 1138 131 1105 114 q 1225 147 1171 147 q 1273 144 1251 147 q 1308 132 1295 140 q 1291 93 1295 117 q 1286 50 1286 69 q 1288 15 1286 37 q 1299 -24 1291 -6 q 1324 -46 1307 -42 m 908 728 q 895 770 908 752 q 856 787 882 787 q 830 781 845 787 q 808 764 814 774 q 795 722 801 751 q 789 677 789 693 q 807 614 789 646 q 861 582 825 582 q 872 583 867 582 q 882 585 877 584 q 899 656 889 614 q 908 728 908 698 m 378 772 q 368 773 374 773 q 314 746 338 773 q 274 679 291 719 q 249 601 258 640 q 240 538 240 562 q 248 498 240 517 q 281 479 256 479 q 327 502 316 479 q 343 554 338 524 l 378 772 z "},"ማ":{"ha":1139,"x_min":56,"x_max":1101,"o":"m 1101 728 q 1093 648 1101 692 q 1072 561 1084 604 q 1050 484 1060 517 l 960 178 q 949 133 953 155 q 945 87 945 111 q 948 62 945 77 q 962 43 952 48 l 962 20 q 892 7 931 14 q 822 0 854 0 q 763 30 774 0 q 751 98 751 59 q 758 157 751 125 q 772 215 764 189 l 861 501 q 871 539 868 521 q 797 525 837 532 q 722 518 757 518 q 644 539 675 518 q 612 611 612 559 q 618 672 612 635 q 640 793 623 709 l 547 782 q 532 665 540 724 q 517 549 524 607 q 471 456 509 486 q 371 427 433 427 q 350 430 360 427 q 328 433 339 433 q 269 420 296 433 q 214 393 241 406 q 155 379 186 379 q 78 416 100 379 q 56 503 56 452 q 76 627 56 568 q 144 733 96 687 q 245 797 190 777 q 361 824 301 817 q 481 833 422 831 l 676 844 q 729 847 703 845 q 782 848 755 848 q 829 833 810 848 q 892 867 859 855 q 962 879 926 879 q 1067 837 1033 879 q 1101 728 1101 795 m 908 728 q 895 770 908 752 q 856 787 882 787 q 830 781 845 787 q 808 764 814 774 q 795 722 801 751 q 789 677 789 693 q 807 614 789 646 q 861 582 825 582 q 872 583 867 582 q 882 585 877 584 q 899 656 889 614 q 908 728 908 698 m 378 772 q 368 773 374 773 q 314 746 338 773 q 274 679 291 719 q 249 601 258 640 q 240 538 240 562 q 248 498 240 517 q 281 479 256 479 q 327 502 316 479 q 343 554 338 524 l 378 772 z "},"ሜ":{"ha":1296,"x_min":56,"x_max":1240,"o":"m 1240 158 q 1219 60 1240 89 q 1157 24 1198 31 q 1059 18 1116 18 q 969 9 1011 18 q 861 0 926 0 q 774 25 799 0 q 750 97 750 51 q 766 193 750 144 l 861 501 q 871 539 868 521 q 797 525 837 532 q 722 518 757 518 q 644 539 675 518 q 612 611 612 559 q 616 663 612 626 q 640 793 620 700 l 547 782 q 532 665 540 724 q 517 549 524 607 q 471 456 509 486 q 371 427 433 427 q 350 430 360 427 q 328 433 339 433 q 269 420 296 433 q 214 393 241 406 q 155 379 186 379 q 78 416 100 379 q 56 503 56 452 q 76 628 56 568 q 144 733 96 687 q 245 797 190 777 q 361 823 301 817 q 481 833 422 830 l 674 844 q 728 847 701 846 q 782 848 755 848 q 829 833 810 848 q 892 867 859 855 q 962 879 926 879 q 1067 837 1033 879 q 1101 728 1101 795 q 1084 604 1101 671 q 1050 484 1067 536 l 978 268 q 1018 271 998 269 q 1058 275 1038 273 q 1098 280 1078 277 q 1139 283 1118 283 q 1216 244 1191 283 q 1240 158 1240 204 m 911 728 q 896 770 911 753 q 856 787 882 787 q 830 781 845 787 q 808 764 814 774 q 795 722 801 751 q 789 677 789 693 q 807 614 789 646 q 861 582 825 582 q 872 583 867 582 q 884 585 878 584 q 901 656 891 612 q 911 728 911 701 m 1047 142 q 1029 193 1047 174 q 979 212 1012 212 l 958 212 q 939 157 949 189 q 928 105 928 125 q 942 68 928 82 q 978 54 955 54 q 1030 82 1013 54 q 1047 142 1047 111 m 378 772 q 368 773 374 773 q 314 746 338 773 q 274 679 291 719 q 249 601 258 640 q 240 538 240 562 q 248 498 240 517 q 281 479 256 479 q 327 502 316 479 q 343 554 338 524 l 378 772 z "},"ም":{"ha":1185,"x_min":56,"x_max":1131,"o":"m 1131 685 q 1095 576 1131 620 q 991 529 1059 532 q 955 528 973 528 q 918 526 937 528 q 889 520 903 526 q 860 511 874 515 q 785 501 823 501 q 743 505 765 501 q 706 519 722 509 q 679 557 690 531 q 660 643 667 584 q 650 811 653 702 l 578 808 l 566 482 q 563 453 565 468 q 554 425 562 438 q 507 358 543 407 q 427 253 471 309 q 371 177 397 214 q 329 114 345 140 q 313 78 313 87 q 316 58 313 66 q 334 46 320 49 l 334 28 q 228 9 283 19 q 144 0 172 0 q 105 12 117 0 q 93 52 93 24 q 97 79 93 65 q 108 104 102 92 q 151 170 120 130 q 208 244 181 211 q 354 419 280 333 q 286 405 320 410 q 215 399 251 399 q 123 409 158 399 q 72 449 88 418 q 56 539 56 479 q 64 593 56 563 q 81 644 73 623 q 209 789 125 745 q 397 842 292 833 q 504 849 450 846 q 610 854 557 851 q 697 860 651 857 q 777 863 743 863 q 811 853 793 863 q 835 844 829 844 q 859 851 841 844 q 884 859 878 857 q 936 873 910 867 q 989 879 962 879 q 1075 850 1044 879 q 1118 777 1106 821 q 1131 685 1131 732 m 942 643 q 934 709 942 671 q 906 774 926 746 q 848 802 886 802 q 834 800 842 802 q 821 798 827 799 q 827 675 823 718 q 839 615 831 633 q 857 586 846 596 q 876 576 865 578 q 897 574 886 574 q 935 595 928 574 q 942 643 942 617 m 403 799 q 391 800 399 800 q 319 775 347 800 q 276 714 292 751 q 255 637 260 677 q 249 562 249 596 q 267 484 249 509 q 342 460 284 460 q 365 460 353 460 q 387 463 376 461 l 403 799 z "},"ሞ":{"ha":1157,"x_min":56,"x_max":1118,"o":"m 1118 660 q 1095 561 1118 606 q 1023 488 1071 515 q 1001 478 1015 484 q 977 472 987 472 q 947 472 962 472 q 917 472 932 472 q 862 456 892 472 q 804 423 833 439 q 750 407 774 407 q 685 439 701 407 q 667 513 670 471 q 658 654 661 583 q 652 796 654 726 l 602 796 l 489 149 q 484 113 486 133 q 481 83 481 92 q 510 49 481 52 l 510 26 q 452 16 486 22 q 388 5 418 9 q 345 0 357 0 q 301 22 314 0 q 289 71 289 43 q 293 117 289 94 l 351 425 q 258 406 307 414 q 163 399 209 399 q 79 428 102 399 q 56 517 56 457 q 62 572 56 543 q 78 626 69 602 q 198 776 117 730 q 386 831 279 822 q 502 839 444 836 q 618 846 560 842 q 699 851 658 848 q 779 854 739 854 q 810 851 795 854 q 840 847 825 847 q 864 855 847 847 q 888 865 881 863 q 965 879 926 879 q 1054 843 1021 879 q 1103 757 1088 808 q 1118 660 1118 706 m 945 604 q 942 666 945 632 q 930 732 940 701 q 899 785 920 764 q 840 806 878 806 q 812 802 826 806 q 821 686 815 744 q 833 570 826 627 q 846 527 837 545 q 885 509 856 509 q 922 525 909 509 q 940 563 935 541 q 945 604 945 585 m 412 782 q 395 784 404 784 q 336 761 363 784 q 290 706 309 738 q 262 646 271 673 q 249 561 249 604 q 271 500 249 525 q 330 475 292 475 q 363 481 347 475 l 412 782 z "},"ሟ":{"ha":1295,"x_min":54,"x_max":1246,"o":"m 1246 -81 q 1211 -95 1232 -91 q 1173 -100 1189 -100 q 1059 -67 1107 -100 q 1003 36 1010 -34 l 640 4 q 622 -82 650 -44 q 548 -142 593 -121 q 460 -164 502 -164 q 434 -163 447 -164 q 407 -161 420 -163 q 441 -89 431 -135 q 452 -9 452 -43 q 449 12 452 1 q 443 33 446 24 l 734 60 q 731 118 729 83 q 740 186 733 152 q 753 241 746 220 l 847 536 q 853 555 850 546 q 857 574 856 564 q 783 560 823 567 q 708 553 743 553 q 620 583 642 553 q 597 674 597 612 q 599 690 597 682 q 602 705 600 698 l 623 819 l 529 808 l 501 603 q 484 534 496 566 q 446 480 471 501 q 378 460 420 460 q 344 463 361 460 q 310 465 328 465 q 251 452 278 465 q 199 426 224 439 q 142 412 173 412 q 70 448 86 412 q 54 532 54 484 l 54 536 q 68 657 54 602 q 132 760 83 712 q 232 823 178 803 q 345 850 286 843 q 463 860 404 857 q 559 865 511 863 q 655 870 607 867 q 709 873 682 871 q 764 875 736 875 q 815 857 792 875 q 876 885 841 872 q 940 897 910 897 q 1042 856 1001 897 q 1083 754 1083 815 q 1068 658 1083 713 q 1041 564 1053 604 l 936 204 q 921 140 929 180 q 918 77 913 100 l 1214 104 q 1210 70 1211 87 q 1208 36 1208 53 q 1217 -26 1208 11 q 1246 -81 1225 -63 m 367 804 q 304 778 330 804 q 260 712 277 751 q 235 633 243 673 q 227 564 227 593 q 234 527 227 548 q 262 505 242 505 q 309 528 297 505 q 326 581 321 551 q 347 693 336 637 q 367 804 357 749 m 890 754 q 877 796 890 779 q 838 814 863 814 q 793 793 812 814 q 780 749 785 772 q 774 704 774 726 q 792 644 774 671 q 847 616 810 616 q 858 617 852 616 q 868 619 863 618 q 882 687 873 648 q 890 754 890 725 z "},"ሠ":{"ha":1064,"x_min":65,"x_max":1028,"o":"m 1028 606 q 930 408 1028 482 q 884 385 909 393 q 832 372 858 376 q 814 371 824 372 q 798 367 805 370 q 780 358 789 363 q 763 347 772 352 q 672 325 718 325 q 642 331 658 325 q 615 349 625 338 q 533 239 581 285 q 406 194 484 194 q 385 195 395 194 q 364 196 375 196 q 338 193 349 196 q 315 185 327 191 q 292 176 303 180 q 183 158 240 158 q 95 190 124 158 q 65 279 65 222 q 68 313 65 296 q 75 345 71 329 l 121 514 q 134 581 134 562 q 129 605 134 594 q 111 623 124 616 l 111 653 l 236 688 q 260 692 248 691 q 285 693 273 693 q 321 683 311 693 q 332 647 332 673 q 328 605 332 626 q 318 564 323 584 l 268 359 q 261 306 261 331 q 279 260 261 271 q 329 249 297 249 q 390 271 367 249 q 421 328 412 292 l 478 545 q 486 579 482 560 q 490 610 490 598 q 454 669 490 652 l 454 692 l 583 724 q 601 728 592 726 q 619 730 610 730 q 669 709 653 730 q 685 656 685 688 q 676 577 685 627 q 660 492 667 528 q 689 430 669 452 q 753 407 709 407 q 813 439 793 407 q 833 507 833 472 l 833 631 q 825 666 833 650 q 796 686 817 682 l 796 708 l 922 743 q 958 749 941 749 q 1003 721 988 749 q 1023 660 1018 694 q 1028 606 1028 626 z "},"ሡ":{"ha":1389,"x_min":65,"x_max":1353,"o":"m 1353 431 q 1291 406 1322 414 q 1225 399 1261 399 q 1140 418 1171 399 q 1089 490 1109 437 l 1002 490 q 971 445 989 466 q 930 408 952 425 q 884 385 909 393 q 832 372 858 376 q 814 371 824 372 q 798 367 805 370 q 780 358 789 363 q 763 347 772 352 q 672 325 718 325 q 642 331 658 325 q 615 349 625 338 q 533 239 581 285 q 406 194 484 194 q 385 195 395 194 q 364 196 375 196 q 338 193 349 196 q 315 185 327 191 q 292 176 303 180 q 183 158 240 158 q 95 190 124 158 q 65 279 65 222 q 68 313 65 296 q 75 345 71 329 l 121 514 q 129 549 125 530 q 134 581 134 568 q 129 605 134 594 q 111 623 124 616 l 111 653 l 236 688 q 260 692 248 691 q 285 693 273 693 q 321 683 311 693 q 332 647 332 673 q 328 605 332 626 q 318 564 323 584 l 268 359 q 261 306 261 331 q 279 260 261 271 q 329 249 297 249 q 390 271 367 249 q 421 328 412 292 l 478 545 q 486 579 482 560 q 490 610 490 599 q 454 669 490 652 l 454 692 l 583 724 q 601 728 592 726 q 619 730 610 730 q 669 709 653 730 q 685 656 685 688 q 676 575 685 623 q 660 492 667 528 q 689 430 669 452 q 753 407 709 407 q 813 439 793 407 q 833 507 833 472 l 833 631 q 825 666 833 650 q 796 686 817 682 l 796 708 l 922 743 q 958 749 941 749 q 1003 721 988 749 q 1023 660 1018 694 q 1028 606 1028 626 q 1026 571 1028 589 q 1019 536 1025 553 l 1090 536 q 1155 602 1110 584 q 1247 619 1200 619 q 1289 616 1265 619 q 1328 603 1313 612 q 1310 566 1320 587 q 1300 526 1300 545 q 1316 473 1300 500 q 1353 431 1333 446 z "},"ሢ":{"ha":1278,"x_min":64,"x_max":1223,"o":"m 1223 -52 q 1158 -70 1192 -64 q 1090 -75 1125 -75 q 1003 -60 1038 -75 q 958 14 969 -44 l 782 3 q 752 1 767 2 q 722 0 737 0 q 645 25 660 0 q 631 102 631 51 q 639 171 631 137 l 715 492 q 636 499 668 492 q 564 534 604 507 q 516 481 547 507 q 450 439 486 455 q 380 422 414 422 q 351 424 366 422 q 320 426 336 426 q 266 412 296 426 q 206 385 237 399 q 146 371 175 371 q 85 394 106 371 q 64 456 64 417 q 73 522 64 487 q 92 589 82 557 q 103 644 102 622 q 101 675 104 658 q 82 700 97 693 l 82 717 l 204 745 q 253 750 230 750 q 289 734 275 750 q 302 697 302 718 q 291 634 302 667 q 269 572 280 602 q 257 522 257 543 q 266 484 257 498 q 301 469 275 469 q 375 499 345 469 q 421 572 406 530 q 436 653 436 615 q 424 695 436 674 q 390 722 412 717 l 390 741 l 521 765 q 542 768 532 767 q 564 770 553 770 q 605 755 589 770 q 621 714 621 740 q 617 675 621 695 q 608 637 613 656 q 648 566 618 589 q 726 538 679 543 q 742 609 734 574 q 750 681 750 644 q 744 724 750 703 q 714 751 739 745 l 713 775 l 832 798 q 860 802 845 800 q 885 804 876 804 q 933 775 922 804 q 943 715 943 745 q 938 664 943 695 q 926 607 932 633 l 831 183 q 823 114 823 148 q 833 76 823 89 q 869 62 843 62 q 917 64 893 62 q 964 66 941 66 q 1005 116 977 99 q 1067 140 1033 134 q 1132 146 1101 146 q 1171 143 1149 146 q 1208 132 1192 140 q 1184 93 1194 120 q 1175 47 1175 66 q 1223 -52 1175 -11 z "},"ሣ":{"ha":981,"x_min":64,"x_max":943,"o":"m 943 715 q 938 665 943 697 q 926 607 932 633 l 835 211 q 828 174 831 193 q 825 137 825 155 q 836 78 825 104 q 879 37 848 52 l 879 20 q 814 11 850 16 q 746 3 778 7 q 697 0 713 0 q 648 23 659 0 q 637 95 637 45 q 642 157 637 123 q 653 218 647 191 l 715 492 q 636 499 668 492 q 564 534 604 507 q 474 451 533 483 q 355 418 415 418 q 318 419 337 418 q 281 416 299 420 q 265 411 273 415 q 249 404 256 407 q 198 383 229 395 q 146 371 168 371 q 85 394 106 371 q 64 456 64 417 q 74 519 64 487 q 93 583 83 551 q 103 644 103 615 q 100 675 103 658 q 82 700 97 693 l 82 717 l 204 745 q 253 750 230 750 q 289 734 275 750 q 302 697 302 718 q 291 636 302 667 q 269 576 280 605 q 257 522 257 547 q 266 484 257 498 q 301 469 275 469 q 375 499 345 469 q 421 572 406 530 q 436 653 436 615 q 424 695 436 674 q 390 722 412 717 l 390 741 l 521 765 q 542 768 532 767 q 564 770 553 770 q 605 755 589 770 q 621 714 621 740 q 617 675 621 695 q 608 637 613 656 q 648 566 618 589 q 726 538 679 543 q 746 629 742 594 q 750 681 750 664 q 744 724 750 703 q 714 751 739 745 l 713 775 l 832 798 q 861 802 845 800 q 885 804 876 804 q 933 775 923 804 q 943 715 943 745 z "},"ሤ":{"ha":1185,"x_min":64,"x_max":1128,"o":"m 1128 179 q 1091 62 1128 104 q 977 20 1055 20 q 931 23 954 20 q 885 25 908 25 q 833 19 866 25 q 764 6 800 13 q 699 0 728 0 q 644 22 660 0 q 628 81 628 45 q 631 134 628 110 q 640 177 635 159 l 715 492 q 636 499 668 492 q 564 534 604 507 q 486 456 535 487 q 380 426 437 426 q 340 427 361 426 q 300 424 319 428 q 285 419 293 422 q 271 412 277 415 q 233 396 256 406 q 185 379 209 387 q 146 371 161 371 q 85 394 106 371 q 64 456 64 417 q 74 519 64 487 q 93 583 83 551 q 103 644 103 615 q 100 675 103 658 q 82 700 97 693 l 82 717 l 204 745 q 253 750 230 750 q 289 734 275 750 q 302 697 302 718 q 291 634 302 667 q 269 572 280 602 q 257 522 257 543 q 266 484 257 498 q 301 469 275 469 q 375 499 345 469 q 421 572 406 530 q 436 653 436 615 q 424 695 436 674 q 390 722 412 716 l 390 741 l 521 765 q 542 768 532 767 q 564 770 553 770 q 605 755 589 770 q 621 714 621 740 q 617 675 621 695 q 608 637 613 656 q 648 566 618 589 q 726 538 679 543 q 744 621 739 584 q 750 681 750 657 q 744 724 750 703 q 714 751 739 745 l 713 775 l 832 798 q 859 802 845 800 q 885 804 872 804 q 933 775 922 804 q 943 715 943 745 q 938 664 943 695 q 926 607 932 633 l 850 267 q 937 285 892 274 q 1025 296 981 296 q 1104 263 1080 296 q 1128 179 1128 231 m 945 163 q 942 195 945 176 q 930 228 939 214 q 903 241 922 241 q 843 231 873 241 q 832 184 839 212 q 821 132 826 157 q 817 98 817 108 q 827 64 817 73 q 861 54 838 54 q 905 72 886 54 q 934 116 924 90 q 945 163 945 141 z "},"ሥ":{"ha":1333,"x_min":65,"x_max":1296,"o":"m 1296 705 q 1270 602 1296 652 q 1152 488 1230 524 q 990 453 1075 453 q 922 457 958 453 q 865 490 887 462 q 836 461 856 477 q 795 430 817 444 q 758 410 774 416 q 719 400 739 402 q 679 394 699 399 q 628 384 654 388 q 576 379 602 379 q 524 387 551 379 q 475 406 496 395 l 289 117 q 278 95 284 109 q 272 72 272 81 q 282 48 272 56 q 304 37 292 41 l 304 16 q 209 5 261 11 q 127 0 156 0 q 80 11 96 0 q 65 57 65 22 q 72 93 65 75 q 89 125 79 110 l 403 602 q 418 628 410 613 q 425 657 425 642 q 407 697 425 681 l 407 715 l 535 743 q 558 748 545 745 q 582 750 572 750 q 607 736 599 750 q 617 706 614 723 q 619 676 619 688 q 603 607 619 639 q 551 524 587 574 q 570 460 555 482 q 629 439 585 439 q 697 460 667 439 q 749 516 727 482 q 782 588 770 550 q 793 659 793 626 q 777 698 793 682 q 741 720 762 714 l 741 737 q 818 751 774 743 q 885 758 863 759 q 935 741 909 758 q 961 699 960 725 q 954 651 962 682 q 933 583 946 619 q 965 528 945 548 q 1023 509 984 509 q 1087 534 1064 509 q 1121 595 1111 559 q 1131 664 1131 631 q 1119 719 1131 699 q 1074 751 1107 740 l 1074 770 l 1203 793 q 1242 796 1225 796 q 1278 781 1266 796 q 1293 745 1289 766 q 1296 705 1296 724 z "},"ሦ":{"ha":1008,"x_min":65,"x_max":966,"o":"m 966 713 q 923 570 966 625 q 809 488 879 514 q 660 461 739 461 q 608 463 635 461 q 557 473 581 465 l 330 117 q 322 95 325 108 q 319 72 319 83 q 329 49 319 56 q 351 37 338 42 l 351 16 q 263 6 308 12 q 175 0 218 0 q 128 11 143 0 q 113 57 113 22 q 120 93 113 76 q 136 125 127 109 l 317 411 q 307 409 312 410 q 296 408 301 408 q 278 409 287 408 q 261 410 270 409 q 210 384 236 395 q 154 372 184 372 q 91 397 117 372 q 65 460 65 422 q 77 529 65 490 q 100 603 88 568 q 111 653 111 637 q 103 675 111 665 q 83 688 95 684 l 83 704 l 118 712 q 171 726 139 718 q 234 742 202 734 q 288 749 267 749 q 317 731 311 749 q 323 694 323 713 q 312 625 323 661 q 288 558 300 589 q 275 504 275 526 q 281 468 275 481 q 313 454 287 454 q 332 457 321 454 q 350 463 342 460 l 444 611 q 459 637 452 623 q 467 667 467 652 q 449 707 467 692 l 449 725 l 572 752 q 597 757 582 754 q 624 760 613 760 q 649 746 641 760 q 660 716 657 733 q 663 686 663 699 q 654 642 663 669 q 636 600 646 615 q 643 538 635 566 q 682 510 651 510 q 746 535 723 510 q 779 596 770 560 q 789 665 789 632 q 777 721 789 699 q 732 753 766 742 l 732 771 l 864 798 q 889 802 873 800 q 913 803 904 803 q 948 788 937 803 q 963 752 960 773 q 966 713 966 732 z "},"ሧ":{"ha":1222,"x_min":64,"x_max":1129,"o":"m 1129 -8 q 1097 -20 1118 -17 q 1061 -24 1075 -24 q 987 -8 1025 -24 q 921 36 948 7 q 890 104 893 64 l 501 87 q 479 4 507 42 q 407 -57 451 -34 q 322 -79 363 -79 q 294 -75 309 -79 q 268 -64 279 -70 q 297 -6 286 -40 q 309 58 309 28 q 307 92 309 75 q 304 125 306 109 l 611 138 q 664 370 637 254 q 715 603 690 486 q 636 611 668 603 q 564 646 604 618 q 474 562 533 594 q 355 530 415 530 q 318 530 337 530 q 281 528 299 531 q 267 524 274 527 q 254 517 260 520 q 201 495 233 509 q 146 482 168 482 q 85 505 106 482 q 64 567 64 528 q 74 633 64 598 q 93 700 83 667 q 103 755 103 732 q 100 787 103 769 q 82 811 97 804 l 82 828 l 204 856 q 253 861 230 861 q 289 845 275 861 q 302 808 302 829 q 291 745 302 778 q 269 682 280 711 q 257 633 257 652 q 266 595 257 610 q 301 581 275 581 q 375 610 345 581 q 420 683 405 640 q 436 764 436 726 q 424 806 436 785 q 390 833 412 827 l 390 851 l 521 876 q 564 880 543 880 q 605 866 589 880 q 621 825 621 851 q 617 787 621 806 q 608 749 613 767 q 648 677 618 700 q 726 648 679 654 q 742 719 734 684 q 750 791 750 754 q 745 834 750 813 q 714 863 739 856 l 713 886 l 832 909 q 859 913 845 911 q 885 916 872 916 q 933 886 922 916 q 943 827 943 857 q 938 772 943 801 q 926 718 932 744 q 796 144 861 431 l 1103 164 q 1098 98 1098 134 q 1129 -8 1098 39 z "},"ረ":{"ha":806,"x_min":64,"x_max":753,"o":"m 753 32 q 701 -5 734 7 q 639 -18 669 -18 q 558 -2 597 -18 q 505 58 520 15 q 385 18 452 35 q 260 0 317 0 q 122 40 180 0 q 64 167 64 79 q 94 283 64 229 q 173 388 125 338 q 276 484 222 437 q 378 574 330 530 q 457 661 427 618 q 488 749 488 705 q 479 768 488 759 q 463 781 471 777 l 463 810 l 610 831 q 647 833 626 833 q 679 815 669 833 q 689 778 689 798 q 659 683 689 730 q 583 588 629 635 q 483 491 536 540 q 383 390 430 441 q 307 285 336 339 q 277 174 277 231 q 295 98 277 123 q 367 74 313 74 q 433 83 397 74 q 496 106 469 92 q 567 190 513 168 q 679 212 621 212 q 699 211 687 212 q 718 205 711 210 q 707 172 711 191 q 703 136 703 152 q 714 77 703 109 q 753 32 726 45 z "},"ሩ":{"ha":953,"x_min":64,"x_max":900,"o":"m 900 236 q 864 220 889 226 q 810 212 838 214 q 764 210 782 210 q 664 246 704 210 q 623 344 623 282 q 623 353 623 349 q 624 363 623 358 q 577 354 601 358 q 530 347 554 351 l 501 155 q 498 132 500 144 q 497 109 497 120 q 505 66 497 83 q 536 37 512 48 l 536 16 l 404 -11 q 381 -15 393 -14 q 357 -17 369 -17 q 314 5 323 -17 q 304 56 304 27 q 306 79 304 67 q 309 102 307 91 l 342 321 q 281 317 311 319 q 220 315 250 315 q 136 323 171 315 q 82 357 101 331 q 64 436 64 382 q 93 533 64 496 q 165 594 122 570 q 250 637 208 618 q 322 680 293 656 q 351 742 351 704 q 344 776 351 758 q 322 803 337 795 q 387 818 347 809 q 464 834 427 827 q 515 842 500 842 q 547 825 541 842 q 554 787 554 808 q 525 712 554 746 q 453 649 496 679 q 368 589 410 619 q 296 523 325 558 q 267 444 267 488 q 288 386 267 401 q 350 370 309 370 q 386 372 368 370 q 421 376 404 374 l 846 440 q 841 388 842 414 q 840 335 840 361 q 856 277 840 306 q 900 236 872 248 z "},"ሪ":{"ha":796,"x_min":64,"x_max":741,"o":"m 741 262 q 702 150 741 184 q 595 90 663 115 q 534 70 565 79 q 472 50 503 60 q 360 18 423 35 q 245 0 296 0 q 117 44 170 0 q 64 167 64 87 q 95 288 64 231 q 175 395 126 345 q 280 493 224 446 q 384 582 335 539 q 465 664 433 624 q 496 742 496 704 q 485 770 496 758 q 458 786 474 783 l 458 807 l 602 836 q 627 840 615 839 q 653 842 639 842 q 685 823 675 842 q 694 786 694 805 q 664 678 694 727 q 587 584 634 629 q 486 495 539 539 q 385 403 432 451 q 307 299 337 355 q 277 174 277 243 q 307 100 277 119 q 386 82 336 82 q 497 125 452 82 q 543 235 543 168 q 535 263 543 250 q 510 278 528 277 l 510 296 q 604 335 558 318 q 671 351 650 351 q 727 325 713 351 q 741 262 741 299 z "},"ራ":{"ha":1046,"x_min":64,"x_max":994,"o":"m 994 221 q 953 208 979 212 q 909 204 926 204 q 806 236 844 204 q 770 336 769 267 q 671 306 701 331 q 633 210 640 281 q 630 157 630 184 q 629 104 629 131 l 370 20 q 245 0 311 0 q 117 43 170 0 q 64 167 64 87 q 94 290 64 233 q 172 397 124 347 q 274 494 220 448 q 375 583 328 540 q 453 669 423 627 q 484 755 484 712 q 480 776 484 766 q 463 787 476 787 l 463 812 l 614 839 q 652 842 630 842 q 687 820 682 842 q 693 774 693 798 q 664 672 693 720 q 588 582 635 625 q 490 494 542 538 q 392 403 439 450 q 317 302 346 356 q 288 182 288 248 q 325 104 288 118 q 424 90 361 90 q 469 247 429 189 q 576 336 509 304 q 731 384 644 367 q 842 401 786 395 q 954 414 899 408 q 961 314 954 364 q 994 221 967 264 z "},"ሬ":{"ha":962,"x_min":64,"x_max":907,"o":"m 907 228 q 875 138 907 176 q 797 77 844 99 q 703 56 749 56 q 680 56 692 56 q 657 57 669 57 q 630 50 648 57 q 603 41 612 43 q 562 29 583 34 q 519 24 541 24 q 450 46 480 24 q 349 15 409 31 q 245 0 290 0 q 117 43 170 0 q 64 167 64 87 q 94 290 64 233 q 172 397 124 347 q 274 494 220 448 q 375 583 328 540 q 453 669 423 627 q 484 755 484 712 q 480 776 484 766 q 463 787 476 787 l 463 812 l 610 839 q 628 841 618 840 q 647 842 638 842 q 683 820 677 842 q 689 774 689 798 q 659 680 689 726 q 580 590 628 635 q 478 499 532 545 q 377 402 425 453 q 298 296 329 352 q 268 174 268 239 q 295 105 268 129 q 366 82 323 82 q 412 87 389 82 q 389 176 389 131 q 422 268 389 240 q 514 309 456 296 q 567 314 540 314 q 619 319 593 315 q 700 338 661 327 q 782 350 739 350 q 872 317 838 350 q 907 228 907 285 m 713 187 q 702 247 713 216 q 654 278 690 278 q 601 258 619 278 q 583 203 583 237 q 587 155 583 179 q 606 115 591 131 q 650 100 620 100 q 702 126 692 100 q 713 187 713 152 z "},"ር":{"ha":814,"x_min":65,"x_max":777,"o":"m 777 648 q 724 630 755 635 q 668 624 692 624 q 588 632 625 624 q 528 667 551 641 q 505 745 505 692 q 505 761 505 755 q 379 726 426 761 q 309 633 332 691 q 273 505 285 575 q 261 389 264 448 q 258 272 258 330 q 260 212 258 250 q 270 140 261 174 q 304 93 279 106 q 334 85 317 86 q 366 83 351 83 q 428 92 393 83 q 486 118 463 100 q 521 180 492 160 q 590 206 551 200 q 663 212 629 212 q 683 211 671 212 q 704 205 695 209 q 697 189 699 203 q 694 162 694 175 q 693 146 693 149 q 703 87 693 121 q 734 37 712 54 q 681 4 718 14 q 616 -5 644 -5 q 545 9 580 -5 q 494 60 510 23 q 404 34 456 48 q 298 10 351 20 q 207 0 245 0 q 126 23 155 0 q 84 82 98 45 q 68 161 71 119 q 65 244 65 204 q 66 337 65 290 q 72 430 68 384 q 89 537 77 484 q 126 636 100 591 q 200 711 153 681 q 379 793 286 767 q 561 826 472 819 q 721 832 650 833 q 735 736 724 777 q 777 648 746 694 z "},"ሮ":{"ha":945,"x_min":65,"x_max":905,"o":"m 905 714 q 871 616 905 656 q 781 564 837 575 q 732 559 757 559 q 682 556 707 559 q 625 538 650 552 q 587 517 601 526 q 543 509 573 509 q 480 531 507 509 q 439 586 454 553 q 425 652 425 619 q 426 683 425 667 q 427 713 426 698 q 415 714 422 714 q 384 705 398 714 q 358 684 369 695 q 306 598 326 650 q 276 488 286 547 q 262 372 266 429 q 258 272 258 315 q 260 208 258 248 q 271 133 261 169 q 307 83 281 98 q 335 74 320 76 q 366 72 351 72 q 402 78 378 72 q 451 92 426 84 q 489 103 476 99 q 528 173 503 152 q 590 199 553 194 q 672 204 627 204 q 693 202 682 204 q 714 197 705 201 q 706 181 709 195 q 703 154 704 168 q 703 138 703 140 q 711 83 703 116 q 741 37 719 50 q 686 4 723 14 q 623 -5 650 -5 q 551 9 586 -5 q 500 60 515 23 q 355 17 435 35 q 207 0 276 0 q 127 26 156 0 q 85 92 98 52 q 68 178 72 133 q 65 260 65 222 q 70 394 65 326 q 93 527 75 463 q 215 712 129 662 q 435 762 302 762 q 523 821 469 802 q 634 845 576 840 q 741 851 692 851 q 834 842 798 851 q 888 804 870 833 q 905 714 905 774 m 732 701 q 727 743 732 720 q 710 781 723 765 q 673 798 698 798 q 621 768 631 798 q 611 704 611 738 q 615 660 611 684 q 631 618 618 635 q 671 602 644 602 q 713 617 701 602 q 729 655 726 632 q 732 701 732 678 z "},"ሯ":{"ha":1054,"x_min":64,"x_max":999,"o":"m 999 897 q 951 807 958 853 q 945 704 945 762 l 665 704 q 627 607 659 652 q 549 520 595 562 q 452 437 503 479 q 358 352 402 396 q 286 260 314 309 q 258 154 258 211 q 281 91 258 109 q 347 73 303 73 q 375 75 361 73 q 404 78 390 76 q 453 215 416 164 q 549 293 490 266 q 688 333 608 319 q 803 347 745 342 q 918 357 861 352 l 951 359 q 953 260 951 312 q 981 165 955 208 q 951 159 968 161 q 921 157 933 157 q 814 188 858 157 q 764 286 770 219 q 754 287 760 286 q 743 288 749 288 q 668 267 696 288 q 626 213 640 246 q 607 140 612 180 q 603 64 603 101 q 478 46 541 56 q 355 25 416 37 q 275 9 315 18 q 195 0 235 0 q 92 42 121 0 q 64 153 64 85 q 93 277 64 222 q 169 377 123 332 q 267 461 215 422 q 366 534 319 499 q 441 606 412 570 q 471 682 471 642 l 471 704 l 211 704 q 201 809 215 755 q 144 897 188 864 q 168 899 156 899 q 191 899 179 899 q 292 887 246 899 q 369 843 338 875 q 407 750 399 811 l 742 750 q 780 841 750 808 q 855 886 810 873 q 954 899 901 899 q 999 897 977 899 z "},"ሰ":{"ha":768,"x_min":65,"x_max":718,"o":"m 718 24 l 574 3 q 548 1 561 1 q 501 22 511 1 q 492 75 492 43 q 498 254 492 165 q 504 433 504 344 q 500 505 504 464 q 485 585 496 546 q 448 650 473 625 q 380 676 423 676 q 344 671 361 676 q 312 653 326 667 q 273 579 287 629 q 255 468 260 528 q 250 353 250 408 q 249 268 249 299 q 249 225 249 253 q 249 164 248 197 q 254 105 250 132 q 264 64 257 77 q 278 50 269 56 q 296 41 286 45 l 296 24 l 155 3 q 141 1 149 2 q 125 -1 133 -1 q 96 9 107 -1 q 77 49 83 21 q 68 111 71 77 q 65 174 66 144 q 65 220 65 204 q 67 341 65 275 q 81 473 68 408 q 125 585 93 537 q 204 662 156 632 q 306 708 252 692 l 306 840 q 300 865 306 850 q 281 879 295 880 l 278 896 l 435 922 q 456 924 446 924 q 487 913 480 924 q 494 882 494 903 l 494 729 q 615 689 575 724 q 669 598 655 654 q 682 472 682 543 q 677 302 682 387 q 672 132 672 217 q 677 79 672 100 q 718 46 682 58 l 718 24 z "},"ሱ":{"ha":1046,"x_min":65,"x_max":1010,"o":"m 1010 319 q 958 294 981 300 q 901 288 935 288 q 816 311 847 288 q 766 386 785 334 l 681 386 q 675 259 678 322 q 672 132 672 196 q 677 79 672 100 q 718 46 682 58 l 718 24 l 574 3 q 548 1 561 1 q 501 22 511 1 q 492 75 492 43 q 498 254 492 165 q 504 433 504 344 q 500 505 504 464 q 485 585 496 546 q 448 650 473 625 q 380 676 423 676 q 344 671 361 676 q 312 653 326 667 q 273 579 287 629 q 255 468 260 528 q 250 353 250 408 q 249 268 249 299 q 249 224 249 254 q 249 161 248 195 q 254 100 250 127 q 267 60 258 72 q 280 49 273 53 q 296 41 288 45 l 296 24 l 155 3 q 141 1 149 2 q 125 -1 133 -1 q 96 10 106 -1 q 77 50 83 22 q 68 111 71 78 q 65 174 66 144 q 65 220 65 204 q 67 341 65 275 q 81 472 68 408 q 125 585 93 536 q 204 662 156 632 q 306 708 252 692 l 306 840 q 300 865 306 850 q 281 879 295 880 l 278 896 l 435 922 q 456 924 446 924 q 487 913 480 924 q 494 882 494 903 l 494 729 q 601 699 563 724 q 657 634 640 674 q 678 543 674 593 q 682 436 682 492 l 777 436 q 838 489 807 473 q 916 505 868 505 q 957 501 939 505 q 996 489 974 497 q 979 452 986 470 q 972 412 972 433 q 980 361 972 385 q 1010 319 987 337 z "},"ሲ":{"ha":1092,"x_min":79,"x_max":1034,"o":"m 1034 -43 q 969 -67 1002 -56 q 901 -78 937 -78 q 825 -48 858 -78 q 789 25 792 -18 l 574 1 q 562 0 568 1 q 550 0 556 0 q 502 20 513 0 q 492 74 492 41 q 495 200 492 134 q 501 327 498 266 q 504 433 504 388 q 504 487 504 460 q 501 541 503 514 q 492 608 499 572 q 465 669 485 644 q 404 694 446 694 q 337 670 362 694 q 298 608 311 646 q 278 530 284 570 q 269 458 273 490 q 264 363 265 411 q 262 268 262 316 q 262 224 262 253 q 263 163 262 196 q 267 103 264 131 q 279 63 271 75 q 293 50 284 54 q 310 41 301 45 l 310 24 l 170 3 q 155 1 163 2 q 140 -1 147 -1 q 107 13 118 -1 q 90 54 96 26 q 82 113 84 81 q 80 175 80 146 q 79 220 79 203 q 83 377 79 301 q 108 519 87 454 q 178 634 129 585 q 319 711 228 684 l 319 836 q 310 865 319 852 q 283 879 300 878 l 281 896 l 447 930 q 458 932 452 932 q 470 933 464 933 q 499 922 492 933 q 507 890 507 910 l 507 732 q 624 684 587 718 q 671 597 661 650 q 682 472 682 544 q 678 285 682 378 q 674 98 674 191 q 679 73 674 81 q 703 65 684 65 q 746 69 725 65 q 789 75 768 73 q 865 136 819 120 q 962 153 911 153 q 1018 146 993 153 q 1002 104 1010 127 q 994 60 994 80 q 1004 5 994 28 q 1034 -43 1015 -18 z "},"ሳ":{"ha":768,"x_min":65,"x_max":711,"o":"m 711 24 l 567 3 q 541 1 554 1 q 494 22 504 1 q 485 75 485 43 q 491 254 485 165 q 497 433 497 344 q 493 505 497 464 q 478 585 490 546 q 441 650 466 625 q 374 676 416 676 q 305 651 330 676 q 268 588 280 626 q 252 509 256 549 q 249 436 249 468 q 249 393 249 421 q 252 337 249 364 q 266 297 256 309 q 281 287 272 290 q 298 279 290 283 l 298 261 l 157 236 q 143 234 150 235 q 129 233 136 233 q 89 250 102 233 q 71 293 75 267 q 65 344 66 318 q 65 387 65 370 q 74 492 65 448 q 118 585 82 536 q 198 661 152 630 q 298 708 245 692 l 298 840 q 293 865 298 850 q 273 879 288 880 l 271 896 l 428 922 q 450 924 439 924 q 480 913 473 924 q 488 882 488 903 l 488 729 q 608 689 568 724 q 662 598 648 654 q 675 472 675 543 q 670 302 675 387 q 665 132 665 217 q 670 79 665 100 q 711 46 675 58 l 711 24 z "},"ሴ":{"ha":972,"x_min":64,"x_max":916,"o":"m 916 171 q 886 94 916 129 q 813 39 856 59 q 732 18 770 18 l 631 18 q 597 14 614 18 q 563 7 580 10 q 498 0 533 0 q 449 20 465 0 q 433 71 433 39 q 437 140 433 104 q 445 209 441 175 q 457 332 451 265 q 469 459 464 399 q 473 557 473 520 q 467 613 473 586 q 443 659 461 641 q 389 676 425 676 q 351 671 369 676 q 317 653 332 667 q 276 579 290 629 q 256 469 262 529 q 250 355 250 409 q 249 268 249 300 q 254 134 249 187 q 273 62 258 80 q 306 41 284 48 l 306 24 l 165 3 q 150 1 158 2 q 135 -1 142 -1 q 100 12 115 -1 q 73 87 82 28 q 65 220 64 146 q 67 341 66 275 q 81 472 69 408 q 125 585 93 536 q 200 658 156 631 q 297 701 244 685 l 297 833 q 292 858 297 843 q 272 872 286 873 l 269 889 l 427 916 q 448 918 438 918 q 479 907 472 918 q 486 875 486 896 l 486 722 q 586 697 551 724 q 635 625 621 671 q 648 521 648 578 q 646 448 648 484 q 640 375 644 411 q 633 324 637 350 q 629 272 629 298 q 708 279 669 272 q 786 286 747 286 q 881 261 846 286 q 916 171 916 235 m 732 140 q 703 208 732 193 q 627 222 675 222 q 622 168 624 198 q 619 122 619 138 q 629 66 619 78 q 661 54 638 54 q 714 81 697 54 q 732 140 732 109 z "},"ስ":{"ha":768,"x_min":64,"x_max":718,"o":"m 718 24 l 574 3 q 548 1 561 1 q 501 22 511 1 q 492 75 492 43 q 495 203 492 135 q 501 332 498 271 q 504 433 504 393 q 500 505 504 464 q 485 585 496 546 q 448 650 473 625 q 380 676 423 676 q 344 671 361 676 q 312 653 326 667 q 273 579 287 629 q 255 468 260 528 q 250 353 250 408 q 249 268 249 299 q 250 182 249 226 q 255 105 251 138 q 265 62 258 72 q 296 41 277 47 l 296 24 l 155 3 q 141 1 149 2 q 125 -1 133 -1 q 93 13 106 -1 q 73 78 78 30 q 65 220 67 126 q 66 341 64 274 q 81 473 68 408 q 125 585 94 538 q 201 655 153 627 q 294 704 249 684 l 220 817 q 198 854 203 842 q 193 879 193 867 q 211 908 193 899 q 245 920 229 918 l 422 937 l 428 920 q 415 897 418 907 q 412 871 412 886 q 417 844 412 859 q 429 819 422 829 l 492 729 q 613 689 572 724 q 668 599 654 655 q 682 472 682 543 q 677 302 682 387 q 672 132 672 217 q 677 79 672 100 q 718 46 682 58 l 718 24 z "},"ሶ":{"ha":786,"x_min":65,"x_max":729,"o":"m 729 261 l 582 233 q 548 230 564 230 q 508 250 515 230 q 500 297 500 269 q 502 371 500 334 q 504 446 504 408 q 500 517 504 477 q 485 592 497 556 q 448 652 473 629 q 380 676 423 676 q 344 671 361 676 q 312 653 326 667 q 273 579 287 629 q 255 468 260 528 q 250 353 250 408 q 249 268 249 299 q 251 149 249 191 q 257 89 253 107 q 265 63 260 71 q 296 41 277 47 l 296 24 l 155 3 q 141 1 149 2 q 125 -1 133 -1 q 94 12 106 -1 q 73 70 81 24 q 65 220 65 115 q 67 341 65 275 q 81 472 68 408 q 125 585 93 536 q 205 661 155 631 q 306 708 254 692 l 306 840 q 300 865 306 852 q 281 879 294 878 l 278 896 l 435 922 q 456 924 446 924 q 492 892 492 924 q 492 811 492 852 q 492 729 492 770 q 609 693 568 724 q 666 611 650 663 q 682 490 682 559 q 682 426 682 458 q 681 361 681 393 q 689 311 681 330 q 729 283 698 293 l 729 261 z "},"ሷ":{"ha":972,"x_min":58,"x_max":921,"o":"m 921 -103 q 890 -116 911 -113 q 856 -119 869 -119 q 757 -85 800 -119 q 710 7 714 -52 l 292 -12 q 263 -89 294 -56 q 190 -139 232 -121 q 114 -157 147 -157 q 86 -156 100 -157 q 58 -154 72 -155 q 84 -116 75 -141 q 96 -65 93 -92 q 100 -20 100 -38 q 93 25 100 1 l 411 41 q 426 222 418 132 q 441 403 434 313 q 447 466 444 431 q 452 530 450 500 q 454 575 454 560 q 452 634 454 606 q 435 680 450 662 q 380 697 420 697 q 341 693 360 697 q 306 673 321 688 q 271 605 283 652 q 254 501 259 557 q 249 394 250 444 q 249 314 249 343 q 252 260 249 292 q 277 214 256 227 l 277 199 l 138 176 q 130 175 134 176 q 122 175 126 175 q 83 199 93 175 q 74 253 74 222 q 74 302 74 283 q 78 449 74 379 q 102 575 83 518 q 166 671 122 632 q 289 725 210 710 l 285 847 q 260 886 283 880 l 257 903 l 378 925 q 409 930 391 928 q 441 932 427 932 q 474 894 474 932 l 474 734 q 577 700 547 730 q 614 626 608 671 q 621 531 621 582 q 618 484 621 517 q 614 414 616 451 q 609 350 611 376 q 597 201 604 275 q 586 52 591 126 l 889 66 q 884 46 886 58 q 883 25 883 35 q 896 -40 883 -6 q 921 -103 908 -75 z "},"ሸ":{"ha":889,"x_min":16,"x_max":868,"o":"m 868 864 q 803 834 837 847 q 733 822 770 822 q 666 842 701 822 q 621 893 632 861 l 518 880 l 518 711 q 624 647 599 692 q 648 525 648 602 q 643 333 648 429 q 637 140 637 237 q 642 89 637 115 q 676 54 647 62 l 676 32 l 546 11 q 536 10 541 10 q 526 9 532 9 q 470 41 482 9 q 458 109 458 73 q 465 362 458 235 q 472 615 472 488 q 462 657 472 640 q 424 675 452 675 q 285 285 285 675 q 286 149 285 197 q 289 80 287 100 q 295 52 292 59 q 309 40 300 44 l 309 22 q 266 14 292 20 q 216 4 241 9 q 179 0 192 0 q 120 49 134 0 q 103 194 105 98 q 102 270 102 232 q 102 345 102 307 q 106 433 102 395 q 124 508 110 472 q 168 583 138 543 q 247 658 202 629 q 345 704 291 688 l 345 860 q 307 856 326 858 q 268 851 288 854 q 230 784 260 808 q 160 751 200 760 q 82 742 119 742 q 48 744 69 742 q 16 751 28 746 q 57 846 57 789 q 47 897 57 878 q 16 939 38 916 q 77 962 39 955 q 143 970 116 970 q 212 952 181 970 q 261 900 243 934 q 436 922 349 911 q 611 942 524 932 q 650 1012 619 988 q 723 1044 682 1036 q 804 1053 765 1053 q 843 1043 824 1053 q 827 1001 836 1025 q 819 957 819 977 q 833 905 819 924 q 868 864 846 886 z "},"ሹ":{"ha":1064,"x_min":18,"x_max":1029,"o":"m 1029 393 q 998 374 1021 382 q 948 363 974 366 q 909 359 923 359 q 826 377 868 359 q 775 443 783 395 l 677 436 q 670 352 674 399 q 663 260 667 305 q 658 179 660 214 q 656 131 656 144 q 661 86 656 104 q 694 60 665 68 l 694 37 q 628 33 665 35 q 559 28 591 30 q 513 26 528 26 q 472 40 479 26 q 464 85 464 54 q 468 166 464 114 q 477 281 471 218 q 488 406 483 344 q 497 519 494 468 q 501 597 501 570 q 496 638 501 615 q 478 677 491 661 q 443 694 465 694 q 363 652 395 694 q 313 539 332 610 q 286 378 294 467 q 278 193 278 288 q 283 110 278 138 q 300 68 289 82 q 329 43 311 55 l 329 25 q 274 15 307 20 q 214 4 241 9 q 177 0 186 0 q 152 3 164 0 q 130 16 140 6 q 114 43 122 25 q 100 105 106 62 q 94 229 94 148 q 112 417 94 320 q 185 591 130 515 q 267 674 216 632 q 367 730 317 717 l 373 889 q 330 884 351 887 q 286 879 308 882 q 242 813 274 838 q 169 780 210 789 q 89 770 127 770 q 54 770 72 770 q 18 774 36 771 q 48 819 39 793 q 58 872 58 845 q 52 924 58 904 q 22 966 45 943 q 84 989 45 982 q 150 997 123 997 q 229 985 198 997 q 283 929 259 973 q 461 951 372 941 q 637 971 549 962 q 683 1025 653 1007 q 750 1049 713 1043 q 821 1055 786 1055 q 851 1053 836 1055 q 882 1047 867 1050 q 871 1015 873 1032 q 868 981 868 997 q 872 929 868 950 q 899 885 876 908 q 832 862 869 872 q 764 851 795 851 q 690 865 720 851 q 642 921 659 878 q 603 916 623 918 q 564 911 583 913 l 554 742 q 654 674 623 722 q 685 557 685 627 q 684 521 685 539 q 681 485 682 503 l 770 492 q 847 554 795 541 q 947 567 898 567 q 979 564 961 567 q 1008 555 996 562 q 991 522 999 538 q 983 485 983 505 q 994 433 983 451 q 1029 393 1004 415 z "},"ሺ":{"ha":1064,"x_min":18,"x_max":1010,"o":"m 1010 -37 q 946 -58 974 -52 q 880 -64 919 -64 q 799 -46 826 -64 q 762 28 772 -28 l 578 11 q 549 8 564 9 q 521 7 535 7 q 477 20 490 7 q 464 64 464 32 q 467 122 464 81 q 473 197 470 163 q 481 304 477 246 q 491 418 486 361 q 498 522 496 475 q 501 597 501 569 q 496 638 501 615 q 478 677 491 661 q 443 694 465 694 q 366 655 397 694 q 315 546 334 616 q 287 386 296 477 q 278 193 278 296 q 283 109 278 137 q 299 68 288 81 q 329 43 311 55 l 329 25 q 253 9 295 18 q 177 0 212 0 q 154 3 165 0 q 133 14 142 6 q 115 40 124 21 q 100 104 106 60 q 94 229 94 148 q 112 418 94 320 q 185 591 130 515 q 267 674 216 632 q 367 730 317 717 l 373 889 q 330 884 351 887 q 286 879 308 882 q 242 813 274 838 q 169 780 210 789 q 89 770 127 770 q 54 770 72 770 q 18 774 36 771 q 48 819 39 793 q 58 872 58 845 q 52 924 58 904 q 22 966 45 943 q 84 989 45 982 q 150 997 123 997 q 229 985 198 997 q 283 929 260 973 q 461 951 372 941 q 637 971 549 962 q 683 1025 653 1007 q 750 1049 713 1043 q 821 1055 786 1055 q 851 1053 836 1055 q 882 1047 867 1050 q 871 1015 873 1032 q 868 981 868 997 q 872 929 868 950 q 899 885 876 908 q 833 862 869 872 q 764 851 796 851 q 690 865 720 851 q 642 921 659 878 q 603 916 623 918 q 564 911 583 913 l 554 742 q 651 672 618 723 q 685 557 685 621 q 681 470 685 522 q 672 362 677 419 q 660 254 666 306 q 651 162 654 201 q 647 109 647 123 q 653 79 647 85 q 686 72 660 72 q 726 74 706 72 q 766 79 747 77 q 810 125 779 108 q 877 149 841 142 q 940 157 912 157 q 996 150 970 157 q 980 108 987 131 q 972 64 972 85 q 982 10 972 33 q 1010 -37 991 -13 z "},"ሻ":{"ha":899,"x_min":18,"x_max":882,"o":"m 882 885 q 819 862 857 872 q 753 851 781 851 q 679 865 709 851 q 631 921 648 878 q 592 916 612 918 q 553 911 572 913 l 543 742 q 643 674 616 720 q 669 555 669 628 q 665 450 669 513 q 654 320 660 387 q 644 197 648 253 q 639 111 639 140 q 648 62 639 83 q 686 33 656 41 l 686 11 q 592 5 644 8 q 515 1 541 1 q 469 12 477 1 q 460 58 460 23 q 463 145 460 91 q 472 265 467 200 q 481 394 477 330 q 490 511 486 458 q 493 593 493 564 q 489 638 493 612 q 472 684 485 665 q 432 704 459 704 q 369 674 396 704 q 324 598 342 645 q 297 500 306 552 q 288 401 288 448 q 299 309 288 340 q 330 272 311 279 l 330 254 q 263 240 302 250 q 195 231 223 231 q 133 261 155 231 q 110 374 110 292 q 129 484 110 427 q 181 593 147 541 q 260 681 214 644 q 361 730 306 718 l 371 889 q 329 884 350 887 q 286 879 308 882 q 242 813 274 838 q 169 780 210 789 q 89 770 127 770 q 54 770 72 770 q 18 774 36 771 q 48 819 39 793 q 58 872 58 845 q 52 924 58 904 q 22 966 45 943 q 84 989 45 982 q 150 997 122 997 q 229 985 198 997 q 283 929 260 973 q 455 951 369 941 q 627 971 541 962 q 672 1025 642 1007 q 739 1049 703 1043 q 810 1055 776 1055 q 837 1052 821 1055 q 864 1044 852 1048 q 853 1011 855 1029 q 851 977 851 994 q 856 927 851 952 q 882 885 861 901 z "},"ሼ":{"ha":1008,"x_min":18,"x_max":953,"o":"m 953 168 q 925 84 953 115 q 854 40 897 53 q 765 26 811 26 l 694 26 q 663 24 679 26 q 631 18 646 21 q 582 11 606 14 q 532 8 557 8 q 476 19 488 8 q 465 54 465 29 q 469 139 465 83 q 478 262 473 194 q 489 397 484 330 q 497 517 494 464 q 501 597 501 571 q 496 639 501 614 q 478 684 490 664 q 443 704 465 704 q 364 662 395 704 q 313 546 332 619 q 286 382 294 473 q 278 193 278 291 q 283 111 278 139 q 300 68 288 82 q 329 43 311 54 l 329 25 q 274 15 306 20 q 215 4 243 9 q 177 0 188 0 q 152 3 164 0 q 130 16 140 6 q 114 45 122 24 q 100 109 105 66 q 94 229 94 153 q 112 418 94 320 q 185 591 130 515 q 267 674 216 632 q 367 730 317 717 l 367 889 q 327 884 347 887 q 286 879 307 882 q 242 813 274 838 q 169 780 210 789 q 89 770 127 770 q 54 770 72 770 q 18 774 36 771 q 48 819 39 793 q 58 872 58 845 q 52 924 58 904 q 22 966 45 944 q 84 989 46 982 q 150 997 122 997 q 229 985 198 997 q 283 929 260 973 q 461 951 372 941 q 637 971 549 962 q 683 1025 653 1007 q 750 1049 713 1043 q 821 1055 786 1055 q 851 1053 836 1055 q 882 1047 867 1050 q 871 1015 873 1032 q 868 981 868 998 q 872 929 868 950 q 899 885 876 908 q 833 862 869 872 q 764 851 796 851 q 690 865 720 851 q 642 921 659 878 q 598 916 620 919 q 554 911 576 913 l 554 742 q 657 676 629 720 q 685 557 685 633 q 677 422 685 503 q 664 269 669 341 q 741 279 698 273 q 825 286 784 286 q 919 259 886 286 q 953 168 953 232 m 768 149 q 759 204 768 177 q 714 231 750 231 q 689 228 701 231 q 664 222 677 226 q 659 169 661 196 q 657 114 657 141 q 661 74 657 85 q 697 62 665 62 q 750 90 732 62 q 768 149 768 117 z "},"ሽ":{"ha":889,"x_min":16,"x_max":857,"o":"m 857 859 q 794 831 824 840 q 725 823 764 823 q 677 831 705 823 q 628 854 650 839 q 599 890 606 869 q 560 887 580 889 q 521 882 541 884 l 643 720 q 772 661 735 707 q 808 525 808 614 q 803 333 808 429 q 798 140 798 237 q 802 89 798 115 q 836 54 807 62 l 836 32 l 705 11 q 696 10 701 10 q 686 9 691 9 q 630 41 642 9 q 618 109 618 73 q 620 185 618 136 q 624 296 621 235 q 630 419 627 357 q 634 534 633 481 q 636 619 636 587 q 583 675 636 675 q 498 623 528 675 q 456 483 468 571 q 444 285 444 395 q 446 128 444 179 q 452 61 447 77 q 468 40 457 45 l 468 22 q 400 8 440 18 q 333 -1 361 -1 q 289 20 305 -1 q 275 58 281 31 q 265 152 269 85 q 261 345 261 218 q 272 466 261 404 q 318 576 283 527 q 379 642 346 615 q 458 684 413 669 l 325 852 q 293 847 309 851 q 261 842 277 844 q 194 761 244 789 q 92 733 144 733 q 53 738 75 733 q 16 751 31 743 q 35 792 29 766 q 40 838 40 819 q 16 939 40 890 q 68 958 44 951 q 123 964 92 964 q 202 948 172 964 q 254 889 231 933 q 424 914 339 902 q 595 935 509 926 q 632 1003 603 981 q 701 1033 661 1026 q 781 1040 741 1040 q 806 1040 793 1040 q 832 1038 819 1039 q 818 994 823 1017 q 812 947 812 971 q 821 896 812 918 q 857 859 830 874 z "},"ሾ":{"ha":917,"x_min":18,"x_max":899,"o":"m 899 885 q 832 862 869 872 q 764 851 795 851 q 690 865 720 851 q 642 921 659 878 q 603 916 623 918 q 564 911 583 913 l 554 742 q 682 567 682 703 q 673 470 682 519 q 664 374 664 422 q 669 329 664 348 q 703 302 674 311 l 703 281 q 611 274 661 278 q 535 269 561 269 q 494 283 502 269 q 486 328 486 296 q 494 462 486 395 q 501 597 501 530 q 495 639 501 614 q 477 683 490 664 q 441 703 464 703 q 365 662 396 703 q 315 550 334 621 q 287 387 296 479 q 278 193 278 295 q 284 109 278 138 q 301 67 290 81 q 329 43 312 54 l 329 25 q 276 15 307 20 q 218 4 245 9 q 177 0 191 0 q 154 3 165 0 q 133 14 142 6 q 115 40 124 21 q 100 103 106 59 q 94 229 94 148 q 112 417 94 320 q 185 591 130 515 q 267 674 216 632 q 367 730 317 717 l 374 889 q 330 884 353 887 q 286 879 308 882 q 242 813 274 838 q 169 780 210 789 q 89 770 127 770 q 54 770 72 770 q 18 774 36 771 q 48 819 39 793 q 58 872 58 845 q 52 924 58 904 q 22 966 45 943 q 84 989 45 982 q 150 997 123 997 q 229 985 198 997 q 283 929 259 973 q 461 951 372 941 q 637 971 549 962 q 683 1025 653 1007 q 750 1049 713 1043 q 821 1055 786 1055 q 851 1053 836 1055 q 882 1047 867 1050 q 871 1015 873 1032 q 868 981 868 997 q 872 929 868 950 q 899 885 876 908 z "},"ሿ":{"ha":1026,"x_min":16,"x_max":979,"o":"m 979 -87 q 946 -100 968 -96 q 911 -103 924 -103 q 836 -88 875 -103 q 770 -44 798 -73 q 741 25 743 -15 l 351 8 q 329 -75 357 -37 q 257 -135 301 -113 q 172 -158 213 -158 q 144 -153 159 -158 q 118 -143 130 -149 q 147 -85 136 -119 q 158 -21 158 -51 q 157 13 158 -4 q 154 46 155 29 l 456 61 q 468 232 462 146 q 481 402 475 317 q 488 499 484 446 q 492 578 492 551 q 480 672 492 650 q 424 694 469 694 q 385 690 404 694 q 351 671 366 686 q 334 645 342 662 q 318 590 325 627 q 307 487 311 553 q 302 311 302 420 q 309 240 302 261 q 328 211 315 218 l 328 196 l 189 174 q 174 172 180 172 q 133 206 139 172 q 127 324 127 240 q 141 539 127 452 q 198 672 155 625 q 332 729 242 720 l 336 838 l 222 831 q 191 782 215 799 q 136 758 167 764 q 77 751 106 751 q 18 755 46 751 q 41 804 32 776 q 51 856 51 831 q 39 910 51 880 q 16 962 27 941 q 81 974 48 974 q 169 950 125 974 q 222 879 213 926 l 611 908 q 639 969 615 945 q 696 1006 663 994 q 762 1019 730 1019 q 817 1010 791 1019 q 797 960 803 990 q 791 905 791 929 q 804 849 791 878 q 841 804 818 820 q 801 784 823 790 q 756 777 779 777 q 699 785 730 777 q 642 810 667 792 q 611 857 617 827 l 511 847 l 505 733 q 513 733 509 733 q 521 734 517 734 q 634 696 590 734 q 679 587 679 659 q 676 523 679 567 q 670 433 673 479 q 665 355 667 386 q 658 257 661 301 q 652 168 655 212 q 644 69 648 124 l 953 85 q 948 19 948 54 q 979 -87 948 -40 z "},"ቀ":{"ha":917,"x_min":45,"x_max":879,"o":"m 879 558 q 849 462 879 500 q 770 401 820 424 q 658 366 720 378 q 530 347 595 353 l 498 158 q 494 130 495 144 q 493 103 493 115 q 501 59 493 72 q 528 41 509 45 l 528 21 l 404 5 q 381 2 393 3 q 358 0 370 0 q 309 17 320 0 q 297 71 297 34 q 300 104 297 86 q 305 137 302 122 l 340 330 q 263 322 305 326 q 196 318 221 318 q 121 328 156 318 q 66 363 87 338 q 45 436 45 389 q 78 552 45 507 q 166 620 112 596 q 281 655 220 644 q 399 668 343 665 q 412 748 406 704 q 418 814 418 791 q 408 857 418 839 q 372 882 397 875 l 372 897 l 490 911 q 520 915 505 913 q 547 917 536 917 q 597 900 583 917 q 611 848 611 882 q 604 772 611 821 q 589 685 596 724 q 728 694 661 694 q 836 662 793 694 q 879 558 879 629 m 389 614 q 279 582 318 613 q 240 476 240 551 q 256 408 240 435 q 318 380 273 380 q 349 383 335 380 l 389 614 m 677 538 q 663 601 677 570 q 608 632 648 632 l 581 632 l 541 399 q 554 397 550 397 q 618 418 591 397 q 662 472 646 439 q 677 538 677 504 z "},"ቁ":{"ha":945,"x_min":53,"x_max":888,"o":"m 888 558 q 799 412 888 460 q 539 347 711 364 l 521 236 l 624 243 q 702 301 652 285 q 800 318 753 318 q 831 316 814 318 q 861 310 848 315 q 844 275 850 296 q 839 236 839 254 q 847 182 839 203 q 880 138 854 161 q 849 119 873 126 q 801 108 826 111 q 762 104 776 104 q 703 113 734 104 q 650 141 672 121 q 625 195 629 161 l 511 184 q 505 140 509 164 q 501 103 501 116 q 506 64 501 81 q 536 41 511 48 l 536 21 l 416 5 q 392 2 406 3 q 367 0 378 0 q 317 17 328 0 q 306 71 306 34 q 309 100 306 81 q 314 134 311 119 l 349 330 q 272 322 313 326 q 204 318 231 318 q 129 328 163 318 q 74 363 95 338 q 53 436 53 389 q 86 552 53 507 q 174 620 120 596 q 290 655 228 644 q 407 668 351 665 q 420 749 414 704 q 427 814 427 795 q 416 857 427 839 q 380 882 406 875 l 380 897 l 495 912 q 525 916 509 914 q 555 917 541 917 q 605 900 591 917 q 619 848 619 882 q 614 781 619 825 q 597 685 609 738 q 736 694 668 694 q 845 662 802 694 q 888 558 888 629 m 397 614 q 288 582 326 613 q 249 476 249 551 q 266 408 249 436 q 327 380 282 380 q 357 383 343 380 l 397 614 m 686 538 q 671 601 686 570 q 616 632 656 632 l 589 632 l 549 399 q 562 397 558 397 q 626 418 598 397 q 670 472 654 439 q 686 538 686 504 z "},"ቂ":{"ha":916,"x_min":45,"x_max":879,"o":"m 879 558 q 837 446 879 488 q 717 381 795 404 q 530 347 639 358 l 498 158 q 496 133 496 147 q 507 87 496 109 q 545 65 517 65 q 579 66 562 65 q 614 69 597 68 q 657 120 627 102 q 722 145 686 138 q 789 153 758 153 q 815 151 801 153 q 842 144 830 149 q 819 111 827 132 q 811 71 811 90 q 823 9 811 42 q 861 -40 836 -24 q 801 -70 830 -60 q 733 -79 771 -79 q 652 -53 684 -79 q 615 24 619 -26 l 412 4 q 385 1 399 3 q 358 0 372 0 q 309 17 320 0 q 297 71 297 34 q 299 100 297 81 q 304 134 302 119 l 340 330 q 269 322 305 326 q 196 318 232 318 q 121 328 156 318 q 66 363 87 338 q 45 436 45 389 q 78 552 45 507 q 166 620 112 596 q 281 655 220 644 q 399 668 343 665 q 412 749 406 704 q 418 814 418 794 q 408 857 418 839 q 372 882 397 875 l 372 897 l 488 912 q 517 916 502 914 q 547 917 532 917 q 597 900 583 917 q 611 848 611 882 q 604 779 611 825 q 589 685 597 733 q 728 694 661 694 q 836 662 793 694 q 879 558 879 629 m 389 614 q 279 582 318 613 q 240 476 240 551 q 256 408 240 435 q 318 380 273 380 q 349 383 335 380 l 389 614 m 677 538 q 663 601 677 570 q 608 632 648 632 l 581 632 l 541 399 q 554 397 545 397 q 618 418 591 397 q 662 472 646 439 q 677 538 677 504 z "},"ቃ":{"ha":1101,"x_min":58,"x_max":1064,"o":"m 1064 570 q 1033 476 1064 513 q 954 420 1002 440 q 853 392 906 400 q 757 380 801 383 q 723 260 753 304 q 642 192 693 216 q 522 151 591 168 q 414 129 469 138 q 304 111 359 119 q 282 24 303 65 q 225 -41 261 -16 q 139 -66 189 -66 q 98 -60 120 -66 q 58 -43 75 -53 q 85 -15 77 -39 q 97 36 94 9 q 100 75 100 63 q 90 136 100 108 q 202 147 146 142 q 313 161 258 153 q 377 173 345 166 q 441 189 410 179 q 543 252 513 212 q 574 367 573 292 q 481 357 532 362 q 404 351 430 351 q 297 380 345 351 q 250 476 250 410 q 284 568 250 533 q 370 622 318 603 q 477 649 422 641 q 574 663 532 658 l 574 768 q 569 827 574 812 q 546 846 564 843 l 546 868 q 590 878 568 873 q 631 888 612 883 q 661 894 646 891 q 690 897 677 897 q 748 867 736 897 q 760 799 760 837 q 760 741 760 770 q 760 684 760 713 q 835 694 796 691 q 911 697 873 697 q 1017 666 969 697 q 1064 570 1064 634 m 879 555 q 856 614 879 589 q 799 639 833 639 q 779 639 789 639 q 758 637 768 639 l 758 432 q 770 431 766 431 q 853 467 827 431 q 879 555 879 504 m 574 415 l 574 611 q 475 584 515 608 q 435 493 435 559 q 455 429 435 452 q 517 406 475 406 q 574 415 544 406 z "},"ቄ":{"ha":916,"x_min":45,"x_max":880,"o":"m 880 558 q 792 411 880 458 q 534 347 705 365 l 519 267 q 563 268 541 267 q 606 270 585 269 q 646 274 627 271 q 686 277 665 277 q 768 252 739 277 q 798 172 798 227 q 778 96 798 129 q 729 46 759 64 q 667 28 699 28 q 610 25 638 28 q 553 22 581 22 q 491 17 526 22 q 422 5 456 11 q 370 0 389 0 q 317 11 334 0 q 299 62 299 21 q 303 97 299 74 q 309 139 307 121 l 342 332 q 262 322 307 327 q 196 318 217 318 q 121 328 156 318 q 66 363 87 338 q 45 436 45 389 q 78 552 45 507 q 166 620 112 596 q 281 655 220 644 q 399 668 343 665 q 412 747 406 704 q 418 814 418 790 q 408 857 418 839 q 372 882 397 875 l 372 897 l 490 912 q 518 916 504 914 q 547 917 532 917 q 597 900 583 917 q 611 848 611 882 q 604 774 611 823 q 589 685 596 724 q 728 694 660 694 q 837 662 793 694 q 880 558 880 629 m 389 614 q 279 582 318 614 q 241 476 241 551 q 257 408 241 435 q 319 380 274 380 q 351 383 337 380 l 389 614 m 678 538 q 663 601 678 570 q 608 632 648 632 l 581 632 l 542 399 q 555 397 550 397 q 618 418 591 397 q 662 472 646 439 q 678 538 678 505 m 612 149 q 598 202 612 182 q 549 222 585 222 q 530 222 540 222 q 511 221 521 221 q 504 178 509 205 q 496 126 500 151 q 493 92 493 102 q 503 69 493 74 q 541 64 513 64 q 595 90 577 64 q 612 149 612 115 z "},"ቅ":{"ha":916,"x_min":45,"x_max":879,"o":"m 879 558 q 834 444 879 487 q 710 378 789 400 q 532 347 632 356 l 498 158 q 493 103 493 130 q 501 60 493 71 q 528 41 509 48 l 528 21 l 406 4 q 382 1 395 3 q 358 0 370 0 q 309 17 320 0 q 297 71 297 34 q 299 101 297 83 q 304 134 302 119 l 340 330 q 264 322 305 326 q 196 318 222 318 q 121 328 156 318 q 66 363 87 338 q 45 436 45 389 q 78 552 45 507 q 166 620 112 596 q 281 655 220 644 q 399 668 343 665 q 405 706 401 680 q 413 756 410 732 q 416 787 416 781 q 396 845 416 827 q 342 878 376 863 q 300 863 322 867 q 256 859 278 859 q 161 872 208 859 q 187 909 181 884 q 193 956 193 935 q 187 1001 193 975 q 164 1040 181 1027 q 215 1059 189 1053 q 269 1064 242 1064 q 331 1057 299 1064 q 385 1031 363 1050 q 407 975 407 1013 q 386 914 407 943 l 564 896 q 615 838 615 890 q 611 795 615 823 q 602 737 607 767 q 591 685 596 707 q 660 692 625 689 q 728 694 694 694 q 836 662 793 694 q 879 558 879 629 m 389 614 q 279 582 317 614 q 240 476 240 551 q 256 408 240 435 q 318 380 273 380 q 349 383 335 380 l 389 614 m 677 538 q 663 601 677 570 q 608 632 648 632 l 582 632 l 542 399 q 555 397 550 397 q 618 418 591 397 q 662 472 646 439 q 677 538 677 505 z "},"ቆ":{"ha":907,"x_min":56,"x_max":869,"o":"m 869 461 q 837 362 869 401 q 754 300 805 323 q 648 269 704 278 q 546 257 593 259 q 541 212 545 241 q 535 157 538 183 q 533 119 533 130 q 542 67 533 81 q 571 50 550 54 l 571 28 l 397 0 q 390 0 393 -1 q 383 1 387 0 q 347 29 353 5 q 340 78 340 53 q 342 107 340 90 q 346 140 344 125 l 357 231 q 271 215 315 222 q 184 208 227 208 q 56 334 56 208 q 100 436 56 395 q 218 505 145 477 q 376 551 292 532 q 346 608 365 576 q 313 673 328 640 q 298 732 298 705 q 326 818 298 782 q 395 878 353 854 q 486 913 438 902 q 575 925 534 925 q 655 914 617 925 q 716 876 692 903 q 741 800 741 848 q 716 714 741 750 q 654 653 692 679 q 578 606 617 627 l 575 568 q 647 581 611 576 q 720 586 683 586 q 824 556 778 586 q 869 461 869 526 m 576 789 q 573 827 576 806 q 559 864 570 848 q 525 879 549 879 q 477 849 492 879 q 463 791 463 819 q 481 722 463 762 q 522 647 500 682 q 561 713 546 677 q 576 789 576 749 m 677 428 q 658 490 677 460 q 603 521 639 521 q 587 520 595 521 q 571 518 578 520 q 563 413 568 465 q 551 307 557 360 q 572 305 562 305 q 654 340 630 305 q 677 428 677 374 m 385 504 q 287 461 323 487 q 250 366 250 435 q 275 301 250 318 q 344 284 300 284 q 353 284 349 284 q 363 285 358 284 q 374 394 368 340 q 385 504 380 449 z "},"ቇ":{"ha":907,"x_min":10,"x_max":869,"o":"m 869 461 q 837 362 869 401 q 754 300 805 323 q 648 269 704 278 q 546 257 593 259 q 538 181 543 224 q 533 119 533 139 q 542 66 533 79 q 571 50 551 54 l 571 28 l 257 -22 q 230 -112 257 -68 q 160 -184 203 -155 q 71 -212 117 -212 q 40 -210 59 -212 q 10 -201 22 -208 q 37 -138 25 -175 q 49 -72 49 -102 q 47 -41 49 -58 q 39 -11 45 -24 l 345 38 q 341 58 342 47 q 340 78 340 68 q 342 107 340 90 q 346 140 344 125 l 357 231 q 271 215 315 222 q 184 208 227 208 q 56 334 56 208 q 90 425 56 387 q 176 487 124 463 q 281 527 227 512 q 376 551 336 543 q 346 608 365 576 q 313 673 328 640 q 298 732 298 705 q 325 817 298 781 q 393 877 351 853 q 483 913 435 901 q 575 925 532 925 q 655 914 617 925 q 716 876 692 903 q 741 800 741 848 q 700 694 741 736 q 578 606 659 652 l 575 568 q 647 581 611 576 q 720 586 683 586 q 824 556 778 586 q 869 461 869 526 m 363 285 q 374 394 368 340 q 385 504 380 449 q 287 461 323 487 q 250 366 250 435 q 275 301 250 318 q 344 284 300 284 q 353 284 349 284 q 363 285 358 284 m 677 428 q 658 490 677 460 q 603 521 639 521 q 587 520 595 521 q 571 518 578 520 q 563 413 568 465 q 551 307 557 360 q 571 305 562 305 q 654 339 631 305 q 677 428 677 374 m 576 789 q 573 827 576 806 q 559 864 570 848 q 525 879 549 879 q 477 849 492 879 q 463 791 463 819 q 480 723 463 762 q 522 647 498 684 q 561 713 546 677 q 576 789 576 749 z "},"ቈ":{"ha":1000,"x_min":49,"x_max":947,"o":"m 947 200 q 915 104 947 142 q 822 65 882 65 q 772 74 797 65 q 722 83 748 83 q 672 72 696 83 q 628 49 649 60 q 586 37 606 37 q 531 71 545 37 q 518 138 518 104 q 524 187 518 157 q 541 232 529 216 l 476 211 q 470 158 473 185 q 467 106 467 132 q 470 71 467 87 q 489 41 474 54 l 489 21 l 378 5 q 353 2 367 3 q 328 0 339 0 q 280 19 293 0 q 267 71 267 37 q 269 111 267 91 q 273 151 271 132 l 301 361 q 234 349 271 356 q 176 342 197 342 q 80 382 111 342 q 49 484 49 422 q 90 629 49 576 q 200 705 132 681 q 350 734 269 728 q 356 783 353 758 q 359 822 359 808 q 348 868 359 844 q 315 901 337 892 l 315 922 l 436 938 q 466 942 450 940 q 496 943 481 943 q 545 931 530 943 q 561 884 561 918 q 555 822 561 863 q 545 749 550 782 q 672 757 608 757 q 772 716 739 757 q 806 611 806 675 q 778 503 806 548 q 706 430 751 458 q 606 388 661 402 q 497 372 551 374 l 484 264 q 531 280 507 273 q 579 296 555 288 q 636 323 603 315 q 699 332 669 332 q 724 330 711 332 q 750 328 737 328 q 786 330 768 328 q 822 332 804 332 q 914 294 880 332 q 947 200 947 256 m 619 606 q 613 646 619 624 q 593 683 607 667 q 557 699 580 699 q 539 697 545 699 l 504 427 q 517 424 509 424 q 530 427 522 424 q 541 432 537 429 q 584 477 567 446 q 610 543 602 507 q 619 606 619 578 m 778 220 q 771 258 778 236 q 742 281 764 281 q 704 264 716 281 q 688 225 692 248 q 685 183 685 203 q 694 139 685 159 q 732 119 704 119 q 761 139 751 119 q 774 183 770 159 q 778 220 778 208 m 343 682 q 249 623 277 674 q 220 511 220 572 q 236 443 220 470 q 298 415 252 415 l 309 415 l 343 682 z "},"ቊ":{"ha":1454,"x_min":57,"x_max":1419,"o":"m 1419 310 q 1384 302 1402 305 q 1348 298 1365 298 q 1269 314 1306 298 q 1208 360 1232 329 q 1185 436 1185 391 q 1098 436 1141 436 q 1011 436 1055 436 q 960 448 978 436 q 942 494 942 459 q 945 519 942 505 q 951 546 949 533 l 892 546 q 843 464 880 496 q 756 413 806 431 q 655 386 707 394 q 561 375 604 377 l 534 165 q 530 106 530 136 q 548 64 530 79 q 589 40 566 50 l 589 20 l 439 3 q 415 1 428 3 q 390 0 401 0 q 345 16 364 0 q 325 58 325 31 q 329 102 325 70 q 336 158 333 135 l 361 347 q 286 338 324 342 q 211 334 248 334 q 135 343 170 334 q 79 379 100 353 q 57 452 57 404 q 91 561 57 519 q 177 625 124 602 q 290 656 231 647 q 401 668 350 666 q 413 753 407 706 q 419 822 419 801 q 411 868 419 844 q 380 901 402 892 l 380 922 l 502 938 q 531 942 516 940 q 561 943 547 943 q 605 931 585 943 q 625 892 625 920 q 621 843 625 877 q 611 772 616 810 q 602 705 605 734 q 673 717 637 712 q 746 722 709 722 q 857 695 817 722 q 897 591 897 669 l 962 591 q 976 646 968 614 q 984 690 984 678 q 982 709 984 697 q 970 722 979 720 l 970 736 l 1128 758 q 1145 760 1139 760 q 1178 750 1165 760 q 1191 718 1191 740 q 1187 696 1191 708 l 1133 489 l 1378 489 q 1376 462 1377 477 q 1375 435 1375 447 q 1387 369 1375 404 q 1419 310 1398 334 m 693 566 q 678 628 693 600 q 623 655 663 655 q 596 652 611 655 l 568 428 q 660 470 627 431 q 693 566 693 509 m 395 618 q 296 586 336 618 q 256 492 256 554 q 272 423 256 450 q 334 395 289 395 q 367 399 349 395 l 395 618 z "},"ቋ":{"ha":871,"x_min":56,"x_max":833,"o":"m 833 689 q 826 638 833 663 q 806 591 819 614 q 695 488 766 524 q 546 453 623 453 q 531 453 538 453 q 515 454 523 454 l 492 288 l 693 288 l 693 136 q 700 92 693 119 q 722 53 707 64 l 722 29 q 671 18 701 24 q 615 6 642 12 q 572 1 588 1 q 509 64 509 1 q 509 153 509 108 q 509 241 509 197 l 294 241 q 270 159 297 194 q 202 104 243 123 q 125 85 162 85 q 75 97 98 85 q 96 142 88 113 q 107 204 103 172 q 111 254 111 235 q 109 288 111 271 l 307 288 l 330 454 q 273 441 303 447 q 214 435 242 435 q 99 476 142 435 q 56 591 56 517 q 82 693 56 650 q 152 767 109 737 q 248 811 196 796 q 351 826 300 826 q 366 826 359 826 q 379 825 372 826 q 386 869 382 846 q 389 908 389 893 q 379 947 389 932 q 343 964 370 961 l 343 982 l 479 1004 q 525 1008 502 1008 q 566 985 558 1008 q 574 936 574 962 q 571 887 574 916 q 566 833 569 859 q 625 848 594 844 q 685 852 655 852 q 763 829 730 852 q 815 769 796 806 q 833 689 833 732 m 639 684 q 633 724 639 702 q 613 761 627 745 q 576 777 600 777 q 567 777 572 777 q 558 775 563 777 l 522 511 q 553 505 539 505 q 594 526 578 505 q 621 576 611 546 q 635 636 631 606 q 639 684 639 665 m 372 772 q 353 774 363 774 q 283 746 309 774 q 246 676 257 717 q 235 599 235 635 q 248 535 235 564 q 303 507 262 507 q 320 508 312 507 q 338 511 329 509 l 372 772 z "},"ቌ":{"ha":962,"x_min":68,"x_max":926,"o":"m 926 642 q 896 541 926 579 q 817 481 865 502 q 713 452 768 460 q 610 441 659 444 q 606 400 608 421 q 602 359 604 380 q 682 365 642 359 q 762 371 722 371 q 838 339 815 371 q 860 257 860 307 q 812 148 860 184 q 696 111 765 111 l 608 111 q 511 101 567 111 q 400 78 456 92 q 304 52 345 64 q 254 -75 302 -28 q 126 -122 207 -122 q 68 -115 95 -122 q 84 -73 77 -100 q 98 -17 92 -45 q 103 28 103 11 q 100 57 103 41 q 92 86 96 73 q 240 95 172 87 q 385 127 309 102 l 416 411 q 346 398 385 406 q 285 390 307 390 q 185 421 221 390 q 149 518 149 452 q 177 620 149 578 q 252 688 205 662 q 351 727 298 714 q 454 742 405 740 q 460 784 457 761 q 463 818 464 807 q 452 861 459 846 q 415 882 445 876 l 415 904 l 539 920 q 568 923 553 922 q 596 925 582 925 q 656 865 658 925 q 653 816 655 848 q 648 758 651 785 q 716 765 682 762 q 783 768 749 768 q 886 738 845 768 q 926 642 926 708 m 733 623 q 714 683 733 652 q 661 714 695 714 q 652 714 656 714 q 643 713 648 714 q 629 598 635 655 q 615 484 622 541 q 706 525 680 488 q 733 623 733 561 m 449 688 q 353 647 381 687 q 325 543 325 606 q 340 484 325 505 q 395 462 355 462 q 424 464 410 462 l 449 688 m 685 243 q 669 290 685 270 q 625 309 653 309 q 595 302 608 309 q 585 229 588 267 q 579 155 583 192 q 598 151 587 153 q 618 150 610 150 q 654 166 639 150 q 677 203 669 182 q 685 243 685 225 z "}}}
